%TF.GenerationSoftware,KiCad,Pcbnew,6.99.0-76368af7*%
%TF.CreationDate,2022-01-11T12:03:37+01:00*%
%TF.ProjectId,hc245t_bypass_esd-panel,68633234-3574-45f6-9279-706173735f65,rev?*%
%TF.SameCoordinates,Original*%
%TF.FileFunction,Paste,Top*%
%TF.FilePolarity,Positive*%
%FSLAX46Y46*%
G04 Gerber Fmt 4.6, Leading zero omitted, Abs format (unit mm)*
G04 Created by KiCad (PCBNEW 6.99.0-76368af7) date 2022-01-11 12:03:37*
%MOMM*%
%LPD*%
G01*
G04 APERTURE LIST*
G04 Aperture macros list*
%AMRoundRect*
0 Rectangle with rounded corners*
0 $1 Rounding radius*
0 $2 $3 $4 $5 $6 $7 $8 $9 X,Y pos of 4 corners*
0 Add a 4 corners polygon primitive as box body*
4,1,4,$2,$3,$4,$5,$6,$7,$8,$9,$2,$3,0*
0 Add four circle primitives for the rounded corners*
1,1,$1+$1,$2,$3*
1,1,$1+$1,$4,$5*
1,1,$1+$1,$6,$7*
1,1,$1+$1,$8,$9*
0 Add four rect primitives between the rounded corners*
20,1,$1+$1,$2,$3,$4,$5,0*
20,1,$1+$1,$4,$5,$6,$7,0*
20,1,$1+$1,$6,$7,$8,$9,0*
20,1,$1+$1,$8,$9,$2,$3,0*%
G04 Aperture macros list end*
%ADD10RoundRect,0.140000X0.140000X0.170000X-0.140000X0.170000X-0.140000X-0.170000X0.140000X-0.170000X0*%
%ADD11RoundRect,0.135000X-0.135000X-0.185000X0.135000X-0.185000X0.135000X0.185000X-0.135000X0.185000X0*%
%ADD12R,0.650000X0.400000*%
G04 APERTURE END LIST*
D10*
%TO.C,C1*%
X138480000Y-104000000D03*
X137520000Y-104000000D03*
%TD*%
D11*
%TO.C,R1*%
X163490000Y-120000000D03*
X164510000Y-120000000D03*
%TD*%
D12*
%TO.C,U1*%
X162050000Y-121250000D03*
X162050000Y-121900000D03*
X162050000Y-122550000D03*
X163950000Y-122550000D03*
X163950000Y-121900000D03*
X163950000Y-121250000D03*
%TD*%
%TO.C,U2*%
X130050000Y-124050000D03*
X130050000Y-124700000D03*
X130050000Y-125350000D03*
X131950000Y-125350000D03*
X131950000Y-124700000D03*
X131950000Y-124050000D03*
%TD*%
D10*
%TO.C,C1*%
X138480000Y-120000000D03*
X137520000Y-120000000D03*
%TD*%
D12*
%TO.C,U1*%
X154050000Y-113250000D03*
X154050000Y-113900000D03*
X154050000Y-114550000D03*
X155950000Y-114550000D03*
X155950000Y-113900000D03*
X155950000Y-113250000D03*
%TD*%
D11*
%TO.C,R1*%
X163490000Y-112000000D03*
X164510000Y-112000000D03*
%TD*%
D10*
%TO.C,C1*%
X138480000Y-112000000D03*
X137520000Y-112000000D03*
%TD*%
D12*
%TO.C,U2*%
X146050000Y-116050000D03*
X146050000Y-116700000D03*
X146050000Y-117350000D03*
X147950000Y-117350000D03*
X147950000Y-116700000D03*
X147950000Y-116050000D03*
%TD*%
%TO.C,U1*%
X154050000Y-105250000D03*
X154050000Y-105900000D03*
X154050000Y-106550000D03*
X155950000Y-106550000D03*
X155950000Y-105900000D03*
X155950000Y-105250000D03*
%TD*%
%TO.C,U1*%
X130050000Y-113250000D03*
X130050000Y-113900000D03*
X130050000Y-114550000D03*
X131950000Y-114550000D03*
X131950000Y-113900000D03*
X131950000Y-113250000D03*
%TD*%
D11*
%TO.C,R1*%
X147490000Y-120000000D03*
X148510000Y-120000000D03*
%TD*%
%TO.C,R1*%
X163490000Y-104000000D03*
X164510000Y-104000000D03*
%TD*%
D10*
%TO.C,C1*%
X162480000Y-120000000D03*
X161520000Y-120000000D03*
%TD*%
D12*
%TO.C,U1*%
X154050000Y-121250000D03*
X154050000Y-121900000D03*
X154050000Y-122550000D03*
X155950000Y-122550000D03*
X155950000Y-121900000D03*
X155950000Y-121250000D03*
%TD*%
%TO.C,U2*%
X138050000Y-116050000D03*
X138050000Y-116700000D03*
X138050000Y-117350000D03*
X139950000Y-117350000D03*
X139950000Y-116700000D03*
X139950000Y-116050000D03*
%TD*%
D11*
%TO.C,R1*%
X139490000Y-112000000D03*
X140510000Y-112000000D03*
%TD*%
D12*
%TO.C,U1*%
X146050000Y-113250000D03*
X146050000Y-113900000D03*
X146050000Y-114550000D03*
X147950000Y-114550000D03*
X147950000Y-113900000D03*
X147950000Y-113250000D03*
%TD*%
D11*
%TO.C,R1*%
X131490000Y-120000000D03*
X132510000Y-120000000D03*
%TD*%
D12*
%TO.C,U1*%
X138050000Y-113250000D03*
X138050000Y-113900000D03*
X138050000Y-114550000D03*
X139950000Y-114550000D03*
X139950000Y-113900000D03*
X139950000Y-113250000D03*
%TD*%
%TO.C,U2*%
X154050000Y-116050000D03*
X154050000Y-116700000D03*
X154050000Y-117350000D03*
X155950000Y-117350000D03*
X155950000Y-116700000D03*
X155950000Y-116050000D03*
%TD*%
D10*
%TO.C,C1*%
X146480000Y-120000000D03*
X145520000Y-120000000D03*
%TD*%
D11*
%TO.C,R1*%
X147490000Y-112000000D03*
X148510000Y-112000000D03*
%TD*%
D10*
%TO.C,C1*%
X146480000Y-112000000D03*
X145520000Y-112000000D03*
%TD*%
%TO.C,C1*%
X154480000Y-112000000D03*
X153520000Y-112000000D03*
%TD*%
D12*
%TO.C,U2*%
X154050000Y-108050000D03*
X154050000Y-108700000D03*
X154050000Y-109350000D03*
X155950000Y-109350000D03*
X155950000Y-108700000D03*
X155950000Y-108050000D03*
%TD*%
D10*
%TO.C,C1*%
X130480000Y-112000000D03*
X129520000Y-112000000D03*
%TD*%
%TO.C,C1*%
X130480000Y-104000000D03*
X129520000Y-104000000D03*
%TD*%
D12*
%TO.C,U1*%
X162050000Y-113250000D03*
X162050000Y-113900000D03*
X162050000Y-114550000D03*
X163950000Y-114550000D03*
X163950000Y-113900000D03*
X163950000Y-113250000D03*
%TD*%
D10*
%TO.C,C1*%
X146480000Y-104000000D03*
X145520000Y-104000000D03*
%TD*%
D12*
%TO.C,U1*%
X130050000Y-105250000D03*
X130050000Y-105900000D03*
X130050000Y-106550000D03*
X131950000Y-106550000D03*
X131950000Y-105900000D03*
X131950000Y-105250000D03*
%TD*%
%TO.C,U1*%
X146050000Y-105250000D03*
X146050000Y-105900000D03*
X146050000Y-106550000D03*
X147950000Y-106550000D03*
X147950000Y-105900000D03*
X147950000Y-105250000D03*
%TD*%
D11*
%TO.C,R1*%
X155490000Y-104000000D03*
X156510000Y-104000000D03*
%TD*%
D12*
%TO.C,U2*%
X146050000Y-124050000D03*
X146050000Y-124700000D03*
X146050000Y-125350000D03*
X147950000Y-125350000D03*
X147950000Y-124700000D03*
X147950000Y-124050000D03*
%TD*%
%TO.C,U1*%
X130050000Y-121250000D03*
X130050000Y-121900000D03*
X130050000Y-122550000D03*
X131950000Y-122550000D03*
X131950000Y-121900000D03*
X131950000Y-121250000D03*
%TD*%
D10*
%TO.C,C1*%
X154480000Y-104000000D03*
X153520000Y-104000000D03*
%TD*%
D12*
%TO.C,U2*%
X146050000Y-108050000D03*
X146050000Y-108700000D03*
X146050000Y-109350000D03*
X147950000Y-109350000D03*
X147950000Y-108700000D03*
X147950000Y-108050000D03*
%TD*%
D10*
%TO.C,C1*%
X154480000Y-120000000D03*
X153520000Y-120000000D03*
%TD*%
D12*
%TO.C,U2*%
X138050000Y-108050000D03*
X138050000Y-108700000D03*
X138050000Y-109350000D03*
X139950000Y-109350000D03*
X139950000Y-108700000D03*
X139950000Y-108050000D03*
%TD*%
D11*
%TO.C,R1*%
X139490000Y-104000000D03*
X140510000Y-104000000D03*
%TD*%
D12*
%TO.C,U1*%
X146050000Y-121250000D03*
X146050000Y-121900000D03*
X146050000Y-122550000D03*
X147950000Y-122550000D03*
X147950000Y-121900000D03*
X147950000Y-121250000D03*
%TD*%
D11*
%TO.C,R1*%
X147490000Y-104000000D03*
X148510000Y-104000000D03*
%TD*%
D12*
%TO.C,U2*%
X154050000Y-124050000D03*
X154050000Y-124700000D03*
X154050000Y-125350000D03*
X155950000Y-125350000D03*
X155950000Y-124700000D03*
X155950000Y-124050000D03*
%TD*%
%TO.C,U1*%
X138050000Y-105250000D03*
X138050000Y-105900000D03*
X138050000Y-106550000D03*
X139950000Y-106550000D03*
X139950000Y-105900000D03*
X139950000Y-105250000D03*
%TD*%
D11*
%TO.C,R1*%
X139490000Y-120000000D03*
X140510000Y-120000000D03*
%TD*%
D12*
%TO.C,U1*%
X162050000Y-105250000D03*
X162050000Y-105900000D03*
X162050000Y-106550000D03*
X163950000Y-106550000D03*
X163950000Y-105900000D03*
X163950000Y-105250000D03*
%TD*%
%TO.C,U2*%
X162050000Y-124050000D03*
X162050000Y-124700000D03*
X162050000Y-125350000D03*
X163950000Y-125350000D03*
X163950000Y-124700000D03*
X163950000Y-124050000D03*
%TD*%
%TO.C,U2*%
X130050000Y-108050000D03*
X130050000Y-108700000D03*
X130050000Y-109350000D03*
X131950000Y-109350000D03*
X131950000Y-108700000D03*
X131950000Y-108050000D03*
%TD*%
%TO.C,U2*%
X162050000Y-116050000D03*
X162050000Y-116700000D03*
X162050000Y-117350000D03*
X163950000Y-117350000D03*
X163950000Y-116700000D03*
X163950000Y-116050000D03*
%TD*%
D10*
%TO.C,C1*%
X130480000Y-120000000D03*
X129520000Y-120000000D03*
%TD*%
D11*
%TO.C,R1*%
X131490000Y-104000000D03*
X132510000Y-104000000D03*
%TD*%
%TO.C,R1*%
X155490000Y-120000000D03*
X156510000Y-120000000D03*
%TD*%
%TO.C,R1*%
X131490000Y-112000000D03*
X132510000Y-112000000D03*
%TD*%
D10*
%TO.C,C1*%
X162480000Y-104000000D03*
X161520000Y-104000000D03*
%TD*%
%TO.C,C1*%
X162480000Y-112000000D03*
X161520000Y-112000000D03*
%TD*%
D11*
%TO.C,R1*%
X155490000Y-112000000D03*
X156510000Y-112000000D03*
%TD*%
D12*
%TO.C,U1*%
X138050000Y-121250000D03*
X138050000Y-121900000D03*
X138050000Y-122550000D03*
X139950000Y-122550000D03*
X139950000Y-121900000D03*
X139950000Y-121250000D03*
%TD*%
%TO.C,U2*%
X138050000Y-124050000D03*
X138050000Y-124700000D03*
X138050000Y-125350000D03*
X139950000Y-125350000D03*
X139950000Y-124700000D03*
X139950000Y-124050000D03*
%TD*%
%TO.C,U2*%
X162050000Y-108050000D03*
X162050000Y-108700000D03*
X162050000Y-109350000D03*
X163950000Y-109350000D03*
X163950000Y-108700000D03*
X163950000Y-108050000D03*
%TD*%
%TO.C,U2*%
X130050000Y-116050000D03*
X130050000Y-116700000D03*
X130050000Y-117350000D03*
X131950000Y-117350000D03*
X131950000Y-116700000D03*
X131950000Y-116050000D03*
%TD*%
M02*
