%TF.GenerationSoftware,KiCad,Pcbnew,6.99.0-76368af7*%
%TF.CreationDate,2022-01-10T14:25:00+01:00*%
%TF.ProjectId,hc245t_bypass_esd-panel,68633234-3574-45f6-9279-706173735f65,rev?*%
%TF.SameCoordinates,Original*%
%TF.FileFunction,Soldermask,Top*%
%TF.FilePolarity,Negative*%
%FSLAX46Y46*%
G04 Gerber Fmt 4.6, Leading zero omitted, Abs format (unit mm)*
G04 Created by KiCad (PCBNEW 6.99.0-76368af7) date 2022-01-10 14:25:00*
%MOMM*%
%LPD*%
G01*
G04 APERTURE LIST*
G04 Aperture macros list*
%AMRoundRect*
0 Rectangle with rounded corners*
0 $1 Rounding radius*
0 $2 $3 $4 $5 $6 $7 $8 $9 X,Y pos of 4 corners*
0 Add a 4 corners polygon primitive as box body*
4,1,4,$2,$3,$4,$5,$6,$7,$8,$9,$2,$3,0*
0 Add four circle primitives for the rounded corners*
1,1,$1+$1,$2,$3*
1,1,$1+$1,$4,$5*
1,1,$1+$1,$6,$7*
1,1,$1+$1,$8,$9*
0 Add four rect primitives between the rounded corners*
20,1,$1+$1,$2,$3,$4,$5,0*
20,1,$1+$1,$4,$5,$6,$7,0*
20,1,$1+$1,$6,$7,$8,$9,0*
20,1,$1+$1,$8,$9,$2,$3,0*%
G04 Aperture macros list end*
%ADD10RoundRect,0.140000X0.140000X0.170000X-0.140000X0.170000X-0.140000X-0.170000X0.140000X-0.170000X0*%
%ADD11R,0.650000X0.400000*%
%ADD12RoundRect,0.100000X-0.637500X-0.100000X0.637500X-0.100000X0.637500X0.100000X-0.637500X0.100000X0*%
%ADD13RoundRect,0.135000X-0.135000X-0.185000X0.135000X-0.185000X0.135000X0.185000X-0.135000X0.185000X0*%
G04 APERTURE END LIST*
D10*
%TO.C,C1*%
X159480000Y-127000000D03*
X158520000Y-127000000D03*
%TD*%
%TO.C,C1*%
X127480000Y-111000000D03*
X126520000Y-111000000D03*
%TD*%
D11*
%TO.C,U1*%
X159050000Y-88250000D03*
X159050000Y-88900000D03*
X159050000Y-89550000D03*
X160950000Y-89550000D03*
X160950000Y-88900000D03*
X160950000Y-88250000D03*
%TD*%
D12*
%TO.C,J1*%
X157137500Y-95075000D03*
X157137500Y-95725000D03*
X157137500Y-96375000D03*
X157137500Y-97025000D03*
X157137500Y-97675000D03*
X157137500Y-98325000D03*
X157137500Y-98975000D03*
X157137500Y-99625000D03*
X157137500Y-100275000D03*
X157137500Y-100925000D03*
X162862500Y-100925000D03*
X162862500Y-100275000D03*
X162862500Y-99625000D03*
X162862500Y-98975000D03*
X162862500Y-98325000D03*
X162862500Y-97675000D03*
X162862500Y-97025000D03*
X162862500Y-96375000D03*
X162862500Y-95725000D03*
X162862500Y-95075000D03*
%TD*%
D11*
%TO.C,U2*%
X119050000Y-91050000D03*
X119050000Y-91700000D03*
X119050000Y-92350000D03*
X120950000Y-92350000D03*
X120950000Y-91700000D03*
X120950000Y-91050000D03*
%TD*%
D13*
%TO.C,R1*%
X152490000Y-127000000D03*
X153510000Y-127000000D03*
%TD*%
D11*
%TO.C,U2*%
X119050000Y-99050000D03*
X119050000Y-99700000D03*
X119050000Y-100350000D03*
X120950000Y-100350000D03*
X120950000Y-99700000D03*
X120950000Y-99050000D03*
%TD*%
%TO.C,U1*%
X119050000Y-96250000D03*
X119050000Y-96900000D03*
X119050000Y-97550000D03*
X120950000Y-97550000D03*
X120950000Y-96900000D03*
X120950000Y-96250000D03*
%TD*%
D13*
%TO.C,R1*%
X144490000Y-103000000D03*
X145510000Y-103000000D03*
%TD*%
D11*
%TO.C,U1*%
X151050000Y-88250000D03*
X151050000Y-88900000D03*
X151050000Y-89550000D03*
X152950000Y-89550000D03*
X152950000Y-88900000D03*
X152950000Y-88250000D03*
%TD*%
D12*
%TO.C,J1*%
X133137500Y-103075000D03*
X133137500Y-103725000D03*
X133137500Y-104375000D03*
X133137500Y-105025000D03*
X133137500Y-105675000D03*
X133137500Y-106325000D03*
X133137500Y-106975000D03*
X133137500Y-107625000D03*
X133137500Y-108275000D03*
X133137500Y-108925000D03*
X138862500Y-108925000D03*
X138862500Y-108275000D03*
X138862500Y-107625000D03*
X138862500Y-106975000D03*
X138862500Y-106325000D03*
X138862500Y-105675000D03*
X138862500Y-105025000D03*
X138862500Y-104375000D03*
X138862500Y-103725000D03*
X138862500Y-103075000D03*
%TD*%
D11*
%TO.C,U1*%
X127050000Y-88250000D03*
X127050000Y-88900000D03*
X127050000Y-89550000D03*
X128950000Y-89550000D03*
X128950000Y-88900000D03*
X128950000Y-88250000D03*
%TD*%
D13*
%TO.C,R1*%
X144490000Y-95000000D03*
X145510000Y-95000000D03*
%TD*%
D10*
%TO.C,C1*%
X159480000Y-87000000D03*
X158520000Y-87000000D03*
%TD*%
D11*
%TO.C,U2*%
X119050000Y-107050000D03*
X119050000Y-107700000D03*
X119050000Y-108350000D03*
X120950000Y-108350000D03*
X120950000Y-107700000D03*
X120950000Y-107050000D03*
%TD*%
%TO.C,U2*%
X127050000Y-91050000D03*
X127050000Y-91700000D03*
X127050000Y-92350000D03*
X128950000Y-92350000D03*
X128950000Y-91700000D03*
X128950000Y-91050000D03*
%TD*%
D12*
%TO.C,J1*%
X125137500Y-119075000D03*
X125137500Y-119725000D03*
X125137500Y-120375000D03*
X125137500Y-121025000D03*
X125137500Y-121675000D03*
X125137500Y-122325000D03*
X125137500Y-122975000D03*
X125137500Y-123625000D03*
X125137500Y-124275000D03*
X125137500Y-124925000D03*
X130862500Y-124925000D03*
X130862500Y-124275000D03*
X130862500Y-123625000D03*
X130862500Y-122975000D03*
X130862500Y-122325000D03*
X130862500Y-121675000D03*
X130862500Y-121025000D03*
X130862500Y-120375000D03*
X130862500Y-119725000D03*
X130862500Y-119075000D03*
%TD*%
D13*
%TO.C,R1*%
X160490000Y-111000000D03*
X161510000Y-111000000D03*
%TD*%
D10*
%TO.C,C1*%
X135480000Y-87000000D03*
X134520000Y-87000000D03*
%TD*%
D12*
%TO.C,J1*%
X141137500Y-127075000D03*
X141137500Y-127725000D03*
X141137500Y-128375000D03*
X141137500Y-129025000D03*
X141137500Y-129675000D03*
X141137500Y-130325000D03*
X141137500Y-130975000D03*
X141137500Y-131625000D03*
X141137500Y-132275000D03*
X141137500Y-132925000D03*
X146862500Y-132925000D03*
X146862500Y-132275000D03*
X146862500Y-131625000D03*
X146862500Y-130975000D03*
X146862500Y-130325000D03*
X146862500Y-129675000D03*
X146862500Y-129025000D03*
X146862500Y-128375000D03*
X146862500Y-127725000D03*
X146862500Y-127075000D03*
%TD*%
D13*
%TO.C,R1*%
X128490000Y-103000000D03*
X129510000Y-103000000D03*
%TD*%
D11*
%TO.C,U1*%
X151050000Y-128250000D03*
X151050000Y-128900000D03*
X151050000Y-129550000D03*
X152950000Y-129550000D03*
X152950000Y-128900000D03*
X152950000Y-128250000D03*
%TD*%
%TO.C,U2*%
X119050000Y-131050000D03*
X119050000Y-131700000D03*
X119050000Y-132350000D03*
X120950000Y-132350000D03*
X120950000Y-131700000D03*
X120950000Y-131050000D03*
%TD*%
D13*
%TO.C,R1*%
X160490000Y-119000000D03*
X161510000Y-119000000D03*
%TD*%
D10*
%TO.C,C1*%
X127480000Y-127000000D03*
X126520000Y-127000000D03*
%TD*%
D12*
%TO.C,J1*%
X157137500Y-127075000D03*
X157137500Y-127725000D03*
X157137500Y-128375000D03*
X157137500Y-129025000D03*
X157137500Y-129675000D03*
X157137500Y-130325000D03*
X157137500Y-130975000D03*
X157137500Y-131625000D03*
X157137500Y-132275000D03*
X157137500Y-132925000D03*
X162862500Y-132925000D03*
X162862500Y-132275000D03*
X162862500Y-131625000D03*
X162862500Y-130975000D03*
X162862500Y-130325000D03*
X162862500Y-129675000D03*
X162862500Y-129025000D03*
X162862500Y-128375000D03*
X162862500Y-127725000D03*
X162862500Y-127075000D03*
%TD*%
D11*
%TO.C,U2*%
X151050000Y-91050000D03*
X151050000Y-91700000D03*
X151050000Y-92350000D03*
X152950000Y-92350000D03*
X152950000Y-91700000D03*
X152950000Y-91050000D03*
%TD*%
D10*
%TO.C,C1*%
X143480000Y-103000000D03*
X142520000Y-103000000D03*
%TD*%
D12*
%TO.C,J1*%
X125137500Y-87075000D03*
X125137500Y-87725000D03*
X125137500Y-88375000D03*
X125137500Y-89025000D03*
X125137500Y-89675000D03*
X125137500Y-90325000D03*
X125137500Y-90975000D03*
X125137500Y-91625000D03*
X125137500Y-92275000D03*
X125137500Y-92925000D03*
X130862500Y-92925000D03*
X130862500Y-92275000D03*
X130862500Y-91625000D03*
X130862500Y-90975000D03*
X130862500Y-90325000D03*
X130862500Y-89675000D03*
X130862500Y-89025000D03*
X130862500Y-88375000D03*
X130862500Y-87725000D03*
X130862500Y-87075000D03*
%TD*%
D10*
%TO.C,C1*%
X135480000Y-103000000D03*
X134520000Y-103000000D03*
%TD*%
D12*
%TO.C,J1*%
X133137500Y-87075000D03*
X133137500Y-87725000D03*
X133137500Y-88375000D03*
X133137500Y-89025000D03*
X133137500Y-89675000D03*
X133137500Y-90325000D03*
X133137500Y-90975000D03*
X133137500Y-91625000D03*
X133137500Y-92275000D03*
X133137500Y-92925000D03*
X138862500Y-92925000D03*
X138862500Y-92275000D03*
X138862500Y-91625000D03*
X138862500Y-90975000D03*
X138862500Y-90325000D03*
X138862500Y-89675000D03*
X138862500Y-89025000D03*
X138862500Y-88375000D03*
X138862500Y-87725000D03*
X138862500Y-87075000D03*
%TD*%
D11*
%TO.C,U1*%
X143050000Y-120250000D03*
X143050000Y-120900000D03*
X143050000Y-121550000D03*
X144950000Y-121550000D03*
X144950000Y-120900000D03*
X144950000Y-120250000D03*
%TD*%
D10*
%TO.C,C1*%
X151480000Y-87000000D03*
X150520000Y-87000000D03*
%TD*%
%TO.C,C1*%
X143480000Y-95000000D03*
X142520000Y-95000000D03*
%TD*%
D13*
%TO.C,R1*%
X152490000Y-119000000D03*
X153510000Y-119000000D03*
%TD*%
D10*
%TO.C,C1*%
X127480000Y-119000000D03*
X126520000Y-119000000D03*
%TD*%
D11*
%TO.C,U2*%
X135050000Y-123050000D03*
X135050000Y-123700000D03*
X135050000Y-124350000D03*
X136950000Y-124350000D03*
X136950000Y-123700000D03*
X136950000Y-123050000D03*
%TD*%
D10*
%TO.C,C1*%
X159480000Y-103000000D03*
X158520000Y-103000000D03*
%TD*%
D13*
%TO.C,R1*%
X160490000Y-127000000D03*
X161510000Y-127000000D03*
%TD*%
D10*
%TO.C,C1*%
X159480000Y-119000000D03*
X158520000Y-119000000D03*
%TD*%
%TO.C,C1*%
X127480000Y-103000000D03*
X126520000Y-103000000D03*
%TD*%
D12*
%TO.C,J1*%
X117137500Y-111075000D03*
X117137500Y-111725000D03*
X117137500Y-112375000D03*
X117137500Y-113025000D03*
X117137500Y-113675000D03*
X117137500Y-114325000D03*
X117137500Y-114975000D03*
X117137500Y-115625000D03*
X117137500Y-116275000D03*
X117137500Y-116925000D03*
X122862500Y-116925000D03*
X122862500Y-116275000D03*
X122862500Y-115625000D03*
X122862500Y-114975000D03*
X122862500Y-114325000D03*
X122862500Y-113675000D03*
X122862500Y-113025000D03*
X122862500Y-112375000D03*
X122862500Y-111725000D03*
X122862500Y-111075000D03*
%TD*%
%TO.C,J1*%
X141137500Y-119075000D03*
X141137500Y-119725000D03*
X141137500Y-120375000D03*
X141137500Y-121025000D03*
X141137500Y-121675000D03*
X141137500Y-122325000D03*
X141137500Y-122975000D03*
X141137500Y-123625000D03*
X141137500Y-124275000D03*
X141137500Y-124925000D03*
X146862500Y-124925000D03*
X146862500Y-124275000D03*
X146862500Y-123625000D03*
X146862500Y-122975000D03*
X146862500Y-122325000D03*
X146862500Y-121675000D03*
X146862500Y-121025000D03*
X146862500Y-120375000D03*
X146862500Y-119725000D03*
X146862500Y-119075000D03*
%TD*%
D11*
%TO.C,U1*%
X143050000Y-112250000D03*
X143050000Y-112900000D03*
X143050000Y-113550000D03*
X144950000Y-113550000D03*
X144950000Y-112900000D03*
X144950000Y-112250000D03*
%TD*%
%TO.C,U1*%
X159050000Y-120250000D03*
X159050000Y-120900000D03*
X159050000Y-121550000D03*
X160950000Y-121550000D03*
X160950000Y-120900000D03*
X160950000Y-120250000D03*
%TD*%
%TO.C,U2*%
X143050000Y-99050000D03*
X143050000Y-99700000D03*
X143050000Y-100350000D03*
X144950000Y-100350000D03*
X144950000Y-99700000D03*
X144950000Y-99050000D03*
%TD*%
%TO.C,U1*%
X119050000Y-120250000D03*
X119050000Y-120900000D03*
X119050000Y-121550000D03*
X120950000Y-121550000D03*
X120950000Y-120900000D03*
X120950000Y-120250000D03*
%TD*%
%TO.C,U1*%
X119050000Y-88250000D03*
X119050000Y-88900000D03*
X119050000Y-89550000D03*
X120950000Y-89550000D03*
X120950000Y-88900000D03*
X120950000Y-88250000D03*
%TD*%
%TO.C,U2*%
X159050000Y-115050000D03*
X159050000Y-115700000D03*
X159050000Y-116350000D03*
X160950000Y-116350000D03*
X160950000Y-115700000D03*
X160950000Y-115050000D03*
%TD*%
%TO.C,U1*%
X135050000Y-88250000D03*
X135050000Y-88900000D03*
X135050000Y-89550000D03*
X136950000Y-89550000D03*
X136950000Y-88900000D03*
X136950000Y-88250000D03*
%TD*%
D13*
%TO.C,R1*%
X136490000Y-127000000D03*
X137510000Y-127000000D03*
%TD*%
%TO.C,R1*%
X152490000Y-111000000D03*
X153510000Y-111000000D03*
%TD*%
D11*
%TO.C,U1*%
X119050000Y-104250000D03*
X119050000Y-104900000D03*
X119050000Y-105550000D03*
X120950000Y-105550000D03*
X120950000Y-104900000D03*
X120950000Y-104250000D03*
%TD*%
%TO.C,U1*%
X159050000Y-96250000D03*
X159050000Y-96900000D03*
X159050000Y-97550000D03*
X160950000Y-97550000D03*
X160950000Y-96900000D03*
X160950000Y-96250000D03*
%TD*%
D10*
%TO.C,C1*%
X151480000Y-127000000D03*
X150520000Y-127000000D03*
%TD*%
D11*
%TO.C,U1*%
X143050000Y-128250000D03*
X143050000Y-128900000D03*
X143050000Y-129550000D03*
X144950000Y-129550000D03*
X144950000Y-128900000D03*
X144950000Y-128250000D03*
%TD*%
D12*
%TO.C,J1*%
X117137500Y-87075000D03*
X117137500Y-87725000D03*
X117137500Y-88375000D03*
X117137500Y-89025000D03*
X117137500Y-89675000D03*
X117137500Y-90325000D03*
X117137500Y-90975000D03*
X117137500Y-91625000D03*
X117137500Y-92275000D03*
X117137500Y-92925000D03*
X122862500Y-92925000D03*
X122862500Y-92275000D03*
X122862500Y-91625000D03*
X122862500Y-90975000D03*
X122862500Y-90325000D03*
X122862500Y-89675000D03*
X122862500Y-89025000D03*
X122862500Y-88375000D03*
X122862500Y-87725000D03*
X122862500Y-87075000D03*
%TD*%
%TO.C,J1*%
X141137500Y-111075000D03*
X141137500Y-111725000D03*
X141137500Y-112375000D03*
X141137500Y-113025000D03*
X141137500Y-113675000D03*
X141137500Y-114325000D03*
X141137500Y-114975000D03*
X141137500Y-115625000D03*
X141137500Y-116275000D03*
X141137500Y-116925000D03*
X146862500Y-116925000D03*
X146862500Y-116275000D03*
X146862500Y-115625000D03*
X146862500Y-114975000D03*
X146862500Y-114325000D03*
X146862500Y-113675000D03*
X146862500Y-113025000D03*
X146862500Y-112375000D03*
X146862500Y-111725000D03*
X146862500Y-111075000D03*
%TD*%
D11*
%TO.C,U2*%
X151050000Y-107050000D03*
X151050000Y-107700000D03*
X151050000Y-108350000D03*
X152950000Y-108350000D03*
X152950000Y-107700000D03*
X152950000Y-107050000D03*
%TD*%
D10*
%TO.C,C1*%
X127480000Y-95000000D03*
X126520000Y-95000000D03*
%TD*%
%TO.C,C1*%
X159480000Y-111000000D03*
X158520000Y-111000000D03*
%TD*%
%TO.C,C1*%
X119480000Y-87000000D03*
X118520000Y-87000000D03*
%TD*%
D12*
%TO.C,J1*%
X117137500Y-103075000D03*
X117137500Y-103725000D03*
X117137500Y-104375000D03*
X117137500Y-105025000D03*
X117137500Y-105675000D03*
X117137500Y-106325000D03*
X117137500Y-106975000D03*
X117137500Y-107625000D03*
X117137500Y-108275000D03*
X117137500Y-108925000D03*
X122862500Y-108925000D03*
X122862500Y-108275000D03*
X122862500Y-107625000D03*
X122862500Y-106975000D03*
X122862500Y-106325000D03*
X122862500Y-105675000D03*
X122862500Y-105025000D03*
X122862500Y-104375000D03*
X122862500Y-103725000D03*
X122862500Y-103075000D03*
%TD*%
D11*
%TO.C,U2*%
X143050000Y-107050000D03*
X143050000Y-107700000D03*
X143050000Y-108350000D03*
X144950000Y-108350000D03*
X144950000Y-107700000D03*
X144950000Y-107050000D03*
%TD*%
%TO.C,U1*%
X127050000Y-96250000D03*
X127050000Y-96900000D03*
X127050000Y-97550000D03*
X128950000Y-97550000D03*
X128950000Y-96900000D03*
X128950000Y-96250000D03*
%TD*%
D12*
%TO.C,J1*%
X149137500Y-95075000D03*
X149137500Y-95725000D03*
X149137500Y-96375000D03*
X149137500Y-97025000D03*
X149137500Y-97675000D03*
X149137500Y-98325000D03*
X149137500Y-98975000D03*
X149137500Y-99625000D03*
X149137500Y-100275000D03*
X149137500Y-100925000D03*
X154862500Y-100925000D03*
X154862500Y-100275000D03*
X154862500Y-99625000D03*
X154862500Y-98975000D03*
X154862500Y-98325000D03*
X154862500Y-97675000D03*
X154862500Y-97025000D03*
X154862500Y-96375000D03*
X154862500Y-95725000D03*
X154862500Y-95075000D03*
%TD*%
%TO.C,J1*%
X141137500Y-103075000D03*
X141137500Y-103725000D03*
X141137500Y-104375000D03*
X141137500Y-105025000D03*
X141137500Y-105675000D03*
X141137500Y-106325000D03*
X141137500Y-106975000D03*
X141137500Y-107625000D03*
X141137500Y-108275000D03*
X141137500Y-108925000D03*
X146862500Y-108925000D03*
X146862500Y-108275000D03*
X146862500Y-107625000D03*
X146862500Y-106975000D03*
X146862500Y-106325000D03*
X146862500Y-105675000D03*
X146862500Y-105025000D03*
X146862500Y-104375000D03*
X146862500Y-103725000D03*
X146862500Y-103075000D03*
%TD*%
D11*
%TO.C,U2*%
X127050000Y-123050000D03*
X127050000Y-123700000D03*
X127050000Y-124350000D03*
X128950000Y-124350000D03*
X128950000Y-123700000D03*
X128950000Y-123050000D03*
%TD*%
D13*
%TO.C,R1*%
X128490000Y-119000000D03*
X129510000Y-119000000D03*
%TD*%
%TO.C,R1*%
X136490000Y-95000000D03*
X137510000Y-95000000D03*
%TD*%
%TO.C,R1*%
X128490000Y-87000000D03*
X129510000Y-87000000D03*
%TD*%
D11*
%TO.C,U1*%
X135050000Y-120250000D03*
X135050000Y-120900000D03*
X135050000Y-121550000D03*
X136950000Y-121550000D03*
X136950000Y-120900000D03*
X136950000Y-120250000D03*
%TD*%
D12*
%TO.C,J1*%
X157137500Y-111075000D03*
X157137500Y-111725000D03*
X157137500Y-112375000D03*
X157137500Y-113025000D03*
X157137500Y-113675000D03*
X157137500Y-114325000D03*
X157137500Y-114975000D03*
X157137500Y-115625000D03*
X157137500Y-116275000D03*
X157137500Y-116925000D03*
X162862500Y-116925000D03*
X162862500Y-116275000D03*
X162862500Y-115625000D03*
X162862500Y-114975000D03*
X162862500Y-114325000D03*
X162862500Y-113675000D03*
X162862500Y-113025000D03*
X162862500Y-112375000D03*
X162862500Y-111725000D03*
X162862500Y-111075000D03*
%TD*%
D13*
%TO.C,R1*%
X152490000Y-95000000D03*
X153510000Y-95000000D03*
%TD*%
%TO.C,R1*%
X120490000Y-127000000D03*
X121510000Y-127000000D03*
%TD*%
D12*
%TO.C,J1*%
X125137500Y-95075000D03*
X125137500Y-95725000D03*
X125137500Y-96375000D03*
X125137500Y-97025000D03*
X125137500Y-97675000D03*
X125137500Y-98325000D03*
X125137500Y-98975000D03*
X125137500Y-99625000D03*
X125137500Y-100275000D03*
X125137500Y-100925000D03*
X130862500Y-100925000D03*
X130862500Y-100275000D03*
X130862500Y-99625000D03*
X130862500Y-98975000D03*
X130862500Y-98325000D03*
X130862500Y-97675000D03*
X130862500Y-97025000D03*
X130862500Y-96375000D03*
X130862500Y-95725000D03*
X130862500Y-95075000D03*
%TD*%
D11*
%TO.C,U1*%
X127050000Y-120250000D03*
X127050000Y-120900000D03*
X127050000Y-121550000D03*
X128950000Y-121550000D03*
X128950000Y-120900000D03*
X128950000Y-120250000D03*
%TD*%
D12*
%TO.C,J1*%
X157137500Y-87075000D03*
X157137500Y-87725000D03*
X157137500Y-88375000D03*
X157137500Y-89025000D03*
X157137500Y-89675000D03*
X157137500Y-90325000D03*
X157137500Y-90975000D03*
X157137500Y-91625000D03*
X157137500Y-92275000D03*
X157137500Y-92925000D03*
X162862500Y-92925000D03*
X162862500Y-92275000D03*
X162862500Y-91625000D03*
X162862500Y-90975000D03*
X162862500Y-90325000D03*
X162862500Y-89675000D03*
X162862500Y-89025000D03*
X162862500Y-88375000D03*
X162862500Y-87725000D03*
X162862500Y-87075000D03*
%TD*%
D11*
%TO.C,U2*%
X143050000Y-123050000D03*
X143050000Y-123700000D03*
X143050000Y-124350000D03*
X144950000Y-124350000D03*
X144950000Y-123700000D03*
X144950000Y-123050000D03*
%TD*%
D13*
%TO.C,R1*%
X136490000Y-103000000D03*
X137510000Y-103000000D03*
%TD*%
%TO.C,R1*%
X144490000Y-87000000D03*
X145510000Y-87000000D03*
%TD*%
D11*
%TO.C,U2*%
X127050000Y-107050000D03*
X127050000Y-107700000D03*
X127050000Y-108350000D03*
X128950000Y-108350000D03*
X128950000Y-107700000D03*
X128950000Y-107050000D03*
%TD*%
%TO.C,U1*%
X151050000Y-104250000D03*
X151050000Y-104900000D03*
X151050000Y-105550000D03*
X152950000Y-105550000D03*
X152950000Y-104900000D03*
X152950000Y-104250000D03*
%TD*%
%TO.C,U2*%
X135050000Y-99050000D03*
X135050000Y-99700000D03*
X135050000Y-100350000D03*
X136950000Y-100350000D03*
X136950000Y-99700000D03*
X136950000Y-99050000D03*
%TD*%
D12*
%TO.C,J1*%
X141137500Y-95075000D03*
X141137500Y-95725000D03*
X141137500Y-96375000D03*
X141137500Y-97025000D03*
X141137500Y-97675000D03*
X141137500Y-98325000D03*
X141137500Y-98975000D03*
X141137500Y-99625000D03*
X141137500Y-100275000D03*
X141137500Y-100925000D03*
X146862500Y-100925000D03*
X146862500Y-100275000D03*
X146862500Y-99625000D03*
X146862500Y-98975000D03*
X146862500Y-98325000D03*
X146862500Y-97675000D03*
X146862500Y-97025000D03*
X146862500Y-96375000D03*
X146862500Y-95725000D03*
X146862500Y-95075000D03*
%TD*%
D11*
%TO.C,U1*%
X135050000Y-96250000D03*
X135050000Y-96900000D03*
X135050000Y-97550000D03*
X136950000Y-97550000D03*
X136950000Y-96900000D03*
X136950000Y-96250000D03*
%TD*%
D10*
%TO.C,C1*%
X135480000Y-127000000D03*
X134520000Y-127000000D03*
%TD*%
D11*
%TO.C,U2*%
X159050000Y-99050000D03*
X159050000Y-99700000D03*
X159050000Y-100350000D03*
X160950000Y-100350000D03*
X160950000Y-99700000D03*
X160950000Y-99050000D03*
%TD*%
D13*
%TO.C,R1*%
X136490000Y-119000000D03*
X137510000Y-119000000D03*
%TD*%
D10*
%TO.C,C1*%
X135480000Y-119000000D03*
X134520000Y-119000000D03*
%TD*%
%TO.C,C1*%
X143480000Y-119000000D03*
X142520000Y-119000000D03*
%TD*%
D11*
%TO.C,U2*%
X143050000Y-115050000D03*
X143050000Y-115700000D03*
X143050000Y-116350000D03*
X144950000Y-116350000D03*
X144950000Y-115700000D03*
X144950000Y-115050000D03*
%TD*%
D10*
%TO.C,C1*%
X119480000Y-119000000D03*
X118520000Y-119000000D03*
%TD*%
%TO.C,C1*%
X119480000Y-111000000D03*
X118520000Y-111000000D03*
%TD*%
D11*
%TO.C,U1*%
X151050000Y-120250000D03*
X151050000Y-120900000D03*
X151050000Y-121550000D03*
X152950000Y-121550000D03*
X152950000Y-120900000D03*
X152950000Y-120250000D03*
%TD*%
D13*
%TO.C,R1*%
X120490000Y-103000000D03*
X121510000Y-103000000D03*
%TD*%
%TO.C,R1*%
X128490000Y-95000000D03*
X129510000Y-95000000D03*
%TD*%
%TO.C,R1*%
X160490000Y-87000000D03*
X161510000Y-87000000D03*
%TD*%
D12*
%TO.C,J1*%
X149137500Y-111075000D03*
X149137500Y-111725000D03*
X149137500Y-112375000D03*
X149137500Y-113025000D03*
X149137500Y-113675000D03*
X149137500Y-114325000D03*
X149137500Y-114975000D03*
X149137500Y-115625000D03*
X149137500Y-116275000D03*
X149137500Y-116925000D03*
X154862500Y-116925000D03*
X154862500Y-116275000D03*
X154862500Y-115625000D03*
X154862500Y-114975000D03*
X154862500Y-114325000D03*
X154862500Y-113675000D03*
X154862500Y-113025000D03*
X154862500Y-112375000D03*
X154862500Y-111725000D03*
X154862500Y-111075000D03*
%TD*%
D11*
%TO.C,U1*%
X135050000Y-104250000D03*
X135050000Y-104900000D03*
X135050000Y-105550000D03*
X136950000Y-105550000D03*
X136950000Y-104900000D03*
X136950000Y-104250000D03*
%TD*%
D10*
%TO.C,C1*%
X135480000Y-111000000D03*
X134520000Y-111000000D03*
%TD*%
%TO.C,C1*%
X159480000Y-95000000D03*
X158520000Y-95000000D03*
%TD*%
D13*
%TO.C,R1*%
X152490000Y-103000000D03*
X153510000Y-103000000D03*
%TD*%
D11*
%TO.C,U1*%
X119050000Y-112250000D03*
X119050000Y-112900000D03*
X119050000Y-113550000D03*
X120950000Y-113550000D03*
X120950000Y-112900000D03*
X120950000Y-112250000D03*
%TD*%
D12*
%TO.C,J1*%
X133137500Y-127075000D03*
X133137500Y-127725000D03*
X133137500Y-128375000D03*
X133137500Y-129025000D03*
X133137500Y-129675000D03*
X133137500Y-130325000D03*
X133137500Y-130975000D03*
X133137500Y-131625000D03*
X133137500Y-132275000D03*
X133137500Y-132925000D03*
X138862500Y-132925000D03*
X138862500Y-132275000D03*
X138862500Y-131625000D03*
X138862500Y-130975000D03*
X138862500Y-130325000D03*
X138862500Y-129675000D03*
X138862500Y-129025000D03*
X138862500Y-128375000D03*
X138862500Y-127725000D03*
X138862500Y-127075000D03*
%TD*%
D13*
%TO.C,R1*%
X152490000Y-87000000D03*
X153510000Y-87000000D03*
%TD*%
D10*
%TO.C,C1*%
X135480000Y-95000000D03*
X134520000Y-95000000D03*
%TD*%
D11*
%TO.C,U1*%
X135050000Y-112250000D03*
X135050000Y-112900000D03*
X135050000Y-113550000D03*
X136950000Y-113550000D03*
X136950000Y-112900000D03*
X136950000Y-112250000D03*
%TD*%
%TO.C,U1*%
X143050000Y-104250000D03*
X143050000Y-104900000D03*
X143050000Y-105550000D03*
X144950000Y-105550000D03*
X144950000Y-104900000D03*
X144950000Y-104250000D03*
%TD*%
D13*
%TO.C,R1*%
X144490000Y-111000000D03*
X145510000Y-111000000D03*
%TD*%
D11*
%TO.C,U1*%
X159050000Y-128250000D03*
X159050000Y-128900000D03*
X159050000Y-129550000D03*
X160950000Y-129550000D03*
X160950000Y-128900000D03*
X160950000Y-128250000D03*
%TD*%
%TO.C,U2*%
X159050000Y-107050000D03*
X159050000Y-107700000D03*
X159050000Y-108350000D03*
X160950000Y-108350000D03*
X160950000Y-107700000D03*
X160950000Y-107050000D03*
%TD*%
%TO.C,U2*%
X135050000Y-131050000D03*
X135050000Y-131700000D03*
X135050000Y-132350000D03*
X136950000Y-132350000D03*
X136950000Y-131700000D03*
X136950000Y-131050000D03*
%TD*%
D10*
%TO.C,C1*%
X119480000Y-103000000D03*
X118520000Y-103000000D03*
%TD*%
D12*
%TO.C,J1*%
X157137500Y-119075000D03*
X157137500Y-119725000D03*
X157137500Y-120375000D03*
X157137500Y-121025000D03*
X157137500Y-121675000D03*
X157137500Y-122325000D03*
X157137500Y-122975000D03*
X157137500Y-123625000D03*
X157137500Y-124275000D03*
X157137500Y-124925000D03*
X162862500Y-124925000D03*
X162862500Y-124275000D03*
X162862500Y-123625000D03*
X162862500Y-122975000D03*
X162862500Y-122325000D03*
X162862500Y-121675000D03*
X162862500Y-121025000D03*
X162862500Y-120375000D03*
X162862500Y-119725000D03*
X162862500Y-119075000D03*
%TD*%
%TO.C,J1*%
X149137500Y-87075000D03*
X149137500Y-87725000D03*
X149137500Y-88375000D03*
X149137500Y-89025000D03*
X149137500Y-89675000D03*
X149137500Y-90325000D03*
X149137500Y-90975000D03*
X149137500Y-91625000D03*
X149137500Y-92275000D03*
X149137500Y-92925000D03*
X154862500Y-92925000D03*
X154862500Y-92275000D03*
X154862500Y-91625000D03*
X154862500Y-90975000D03*
X154862500Y-90325000D03*
X154862500Y-89675000D03*
X154862500Y-89025000D03*
X154862500Y-88375000D03*
X154862500Y-87725000D03*
X154862500Y-87075000D03*
%TD*%
D11*
%TO.C,U1*%
X143050000Y-96250000D03*
X143050000Y-96900000D03*
X143050000Y-97550000D03*
X144950000Y-97550000D03*
X144950000Y-96900000D03*
X144950000Y-96250000D03*
%TD*%
%TO.C,U1*%
X119050000Y-128250000D03*
X119050000Y-128900000D03*
X119050000Y-129550000D03*
X120950000Y-129550000D03*
X120950000Y-128900000D03*
X120950000Y-128250000D03*
%TD*%
D10*
%TO.C,C1*%
X143480000Y-111000000D03*
X142520000Y-111000000D03*
%TD*%
D11*
%TO.C,U2*%
X135050000Y-115050000D03*
X135050000Y-115700000D03*
X135050000Y-116350000D03*
X136950000Y-116350000D03*
X136950000Y-115700000D03*
X136950000Y-115050000D03*
%TD*%
D12*
%TO.C,J1*%
X133137500Y-119075000D03*
X133137500Y-119725000D03*
X133137500Y-120375000D03*
X133137500Y-121025000D03*
X133137500Y-121675000D03*
X133137500Y-122325000D03*
X133137500Y-122975000D03*
X133137500Y-123625000D03*
X133137500Y-124275000D03*
X133137500Y-124925000D03*
X138862500Y-124925000D03*
X138862500Y-124275000D03*
X138862500Y-123625000D03*
X138862500Y-122975000D03*
X138862500Y-122325000D03*
X138862500Y-121675000D03*
X138862500Y-121025000D03*
X138862500Y-120375000D03*
X138862500Y-119725000D03*
X138862500Y-119075000D03*
%TD*%
D10*
%TO.C,C1*%
X143480000Y-127000000D03*
X142520000Y-127000000D03*
%TD*%
D12*
%TO.C,J1*%
X117137500Y-119075000D03*
X117137500Y-119725000D03*
X117137500Y-120375000D03*
X117137500Y-121025000D03*
X117137500Y-121675000D03*
X117137500Y-122325000D03*
X117137500Y-122975000D03*
X117137500Y-123625000D03*
X117137500Y-124275000D03*
X117137500Y-124925000D03*
X122862500Y-124925000D03*
X122862500Y-124275000D03*
X122862500Y-123625000D03*
X122862500Y-122975000D03*
X122862500Y-122325000D03*
X122862500Y-121675000D03*
X122862500Y-121025000D03*
X122862500Y-120375000D03*
X122862500Y-119725000D03*
X122862500Y-119075000D03*
%TD*%
%TO.C,J1*%
X149137500Y-119075000D03*
X149137500Y-119725000D03*
X149137500Y-120375000D03*
X149137500Y-121025000D03*
X149137500Y-121675000D03*
X149137500Y-122325000D03*
X149137500Y-122975000D03*
X149137500Y-123625000D03*
X149137500Y-124275000D03*
X149137500Y-124925000D03*
X154862500Y-124925000D03*
X154862500Y-124275000D03*
X154862500Y-123625000D03*
X154862500Y-122975000D03*
X154862500Y-122325000D03*
X154862500Y-121675000D03*
X154862500Y-121025000D03*
X154862500Y-120375000D03*
X154862500Y-119725000D03*
X154862500Y-119075000D03*
%TD*%
%TO.C,J1*%
X133137500Y-111075000D03*
X133137500Y-111725000D03*
X133137500Y-112375000D03*
X133137500Y-113025000D03*
X133137500Y-113675000D03*
X133137500Y-114325000D03*
X133137500Y-114975000D03*
X133137500Y-115625000D03*
X133137500Y-116275000D03*
X133137500Y-116925000D03*
X138862500Y-116925000D03*
X138862500Y-116275000D03*
X138862500Y-115625000D03*
X138862500Y-114975000D03*
X138862500Y-114325000D03*
X138862500Y-113675000D03*
X138862500Y-113025000D03*
X138862500Y-112375000D03*
X138862500Y-111725000D03*
X138862500Y-111075000D03*
%TD*%
D11*
%TO.C,U2*%
X159050000Y-131050000D03*
X159050000Y-131700000D03*
X159050000Y-132350000D03*
X160950000Y-132350000D03*
X160950000Y-131700000D03*
X160950000Y-131050000D03*
%TD*%
%TO.C,U2*%
X127050000Y-115050000D03*
X127050000Y-115700000D03*
X127050000Y-116350000D03*
X128950000Y-116350000D03*
X128950000Y-115700000D03*
X128950000Y-115050000D03*
%TD*%
D13*
%TO.C,R1*%
X128490000Y-111000000D03*
X129510000Y-111000000D03*
%TD*%
D10*
%TO.C,C1*%
X151480000Y-95000000D03*
X150520000Y-95000000D03*
%TD*%
D13*
%TO.C,R1*%
X120490000Y-87000000D03*
X121510000Y-87000000D03*
%TD*%
D11*
%TO.C,U1*%
X135050000Y-128250000D03*
X135050000Y-128900000D03*
X135050000Y-129550000D03*
X136950000Y-129550000D03*
X136950000Y-128900000D03*
X136950000Y-128250000D03*
%TD*%
D13*
%TO.C,R1*%
X120490000Y-95000000D03*
X121510000Y-95000000D03*
%TD*%
D12*
%TO.C,J1*%
X141137500Y-87075000D03*
X141137500Y-87725000D03*
X141137500Y-88375000D03*
X141137500Y-89025000D03*
X141137500Y-89675000D03*
X141137500Y-90325000D03*
X141137500Y-90975000D03*
X141137500Y-91625000D03*
X141137500Y-92275000D03*
X141137500Y-92925000D03*
X146862500Y-92925000D03*
X146862500Y-92275000D03*
X146862500Y-91625000D03*
X146862500Y-90975000D03*
X146862500Y-90325000D03*
X146862500Y-89675000D03*
X146862500Y-89025000D03*
X146862500Y-88375000D03*
X146862500Y-87725000D03*
X146862500Y-87075000D03*
%TD*%
D11*
%TO.C,U1*%
X159050000Y-104250000D03*
X159050000Y-104900000D03*
X159050000Y-105550000D03*
X160950000Y-105550000D03*
X160950000Y-104900000D03*
X160950000Y-104250000D03*
%TD*%
%TO.C,U2*%
X151050000Y-99050000D03*
X151050000Y-99700000D03*
X151050000Y-100350000D03*
X152950000Y-100350000D03*
X152950000Y-99700000D03*
X152950000Y-99050000D03*
%TD*%
D13*
%TO.C,R1*%
X136490000Y-111000000D03*
X137510000Y-111000000D03*
%TD*%
D11*
%TO.C,U2*%
X143050000Y-131050000D03*
X143050000Y-131700000D03*
X143050000Y-132350000D03*
X144950000Y-132350000D03*
X144950000Y-131700000D03*
X144950000Y-131050000D03*
%TD*%
%TO.C,U1*%
X127050000Y-112250000D03*
X127050000Y-112900000D03*
X127050000Y-113550000D03*
X128950000Y-113550000D03*
X128950000Y-112900000D03*
X128950000Y-112250000D03*
%TD*%
D12*
%TO.C,J1*%
X125137500Y-111075000D03*
X125137500Y-111725000D03*
X125137500Y-112375000D03*
X125137500Y-113025000D03*
X125137500Y-113675000D03*
X125137500Y-114325000D03*
X125137500Y-114975000D03*
X125137500Y-115625000D03*
X125137500Y-116275000D03*
X125137500Y-116925000D03*
X130862500Y-116925000D03*
X130862500Y-116275000D03*
X130862500Y-115625000D03*
X130862500Y-114975000D03*
X130862500Y-114325000D03*
X130862500Y-113675000D03*
X130862500Y-113025000D03*
X130862500Y-112375000D03*
X130862500Y-111725000D03*
X130862500Y-111075000D03*
%TD*%
D13*
%TO.C,R1*%
X128490000Y-127000000D03*
X129510000Y-127000000D03*
%TD*%
D11*
%TO.C,U2*%
X127050000Y-99050000D03*
X127050000Y-99700000D03*
X127050000Y-100350000D03*
X128950000Y-100350000D03*
X128950000Y-99700000D03*
X128950000Y-99050000D03*
%TD*%
D12*
%TO.C,J1*%
X117137500Y-95075000D03*
X117137500Y-95725000D03*
X117137500Y-96375000D03*
X117137500Y-97025000D03*
X117137500Y-97675000D03*
X117137500Y-98325000D03*
X117137500Y-98975000D03*
X117137500Y-99625000D03*
X117137500Y-100275000D03*
X117137500Y-100925000D03*
X122862500Y-100925000D03*
X122862500Y-100275000D03*
X122862500Y-99625000D03*
X122862500Y-98975000D03*
X122862500Y-98325000D03*
X122862500Y-97675000D03*
X122862500Y-97025000D03*
X122862500Y-96375000D03*
X122862500Y-95725000D03*
X122862500Y-95075000D03*
%TD*%
%TO.C,J1*%
X117137500Y-127075000D03*
X117137500Y-127725000D03*
X117137500Y-128375000D03*
X117137500Y-129025000D03*
X117137500Y-129675000D03*
X117137500Y-130325000D03*
X117137500Y-130975000D03*
X117137500Y-131625000D03*
X117137500Y-132275000D03*
X117137500Y-132925000D03*
X122862500Y-132925000D03*
X122862500Y-132275000D03*
X122862500Y-131625000D03*
X122862500Y-130975000D03*
X122862500Y-130325000D03*
X122862500Y-129675000D03*
X122862500Y-129025000D03*
X122862500Y-128375000D03*
X122862500Y-127725000D03*
X122862500Y-127075000D03*
%TD*%
D11*
%TO.C,U2*%
X135050000Y-91050000D03*
X135050000Y-91700000D03*
X135050000Y-92350000D03*
X136950000Y-92350000D03*
X136950000Y-91700000D03*
X136950000Y-91050000D03*
%TD*%
D12*
%TO.C,J1*%
X133137500Y-95075000D03*
X133137500Y-95725000D03*
X133137500Y-96375000D03*
X133137500Y-97025000D03*
X133137500Y-97675000D03*
X133137500Y-98325000D03*
X133137500Y-98975000D03*
X133137500Y-99625000D03*
X133137500Y-100275000D03*
X133137500Y-100925000D03*
X138862500Y-100925000D03*
X138862500Y-100275000D03*
X138862500Y-99625000D03*
X138862500Y-98975000D03*
X138862500Y-98325000D03*
X138862500Y-97675000D03*
X138862500Y-97025000D03*
X138862500Y-96375000D03*
X138862500Y-95725000D03*
X138862500Y-95075000D03*
%TD*%
D13*
%TO.C,R1*%
X160490000Y-95000000D03*
X161510000Y-95000000D03*
%TD*%
D11*
%TO.C,U2*%
X159050000Y-91050000D03*
X159050000Y-91700000D03*
X159050000Y-92350000D03*
X160950000Y-92350000D03*
X160950000Y-91700000D03*
X160950000Y-91050000D03*
%TD*%
%TO.C,U1*%
X143050000Y-88250000D03*
X143050000Y-88900000D03*
X143050000Y-89550000D03*
X144950000Y-89550000D03*
X144950000Y-88900000D03*
X144950000Y-88250000D03*
%TD*%
%TO.C,U1*%
X151050000Y-112250000D03*
X151050000Y-112900000D03*
X151050000Y-113550000D03*
X152950000Y-113550000D03*
X152950000Y-112900000D03*
X152950000Y-112250000D03*
%TD*%
%TO.C,U2*%
X159050000Y-123050000D03*
X159050000Y-123700000D03*
X159050000Y-124350000D03*
X160950000Y-124350000D03*
X160950000Y-123700000D03*
X160950000Y-123050000D03*
%TD*%
%TO.C,U2*%
X151050000Y-131050000D03*
X151050000Y-131700000D03*
X151050000Y-132350000D03*
X152950000Y-132350000D03*
X152950000Y-131700000D03*
X152950000Y-131050000D03*
%TD*%
%TO.C,U2*%
X119050000Y-115050000D03*
X119050000Y-115700000D03*
X119050000Y-116350000D03*
X120950000Y-116350000D03*
X120950000Y-115700000D03*
X120950000Y-115050000D03*
%TD*%
%TO.C,U2*%
X151050000Y-123050000D03*
X151050000Y-123700000D03*
X151050000Y-124350000D03*
X152950000Y-124350000D03*
X152950000Y-123700000D03*
X152950000Y-123050000D03*
%TD*%
D10*
%TO.C,C1*%
X119480000Y-127000000D03*
X118520000Y-127000000D03*
%TD*%
D13*
%TO.C,R1*%
X120490000Y-111000000D03*
X121510000Y-111000000D03*
%TD*%
%TO.C,R1*%
X144490000Y-127000000D03*
X145510000Y-127000000D03*
%TD*%
D10*
%TO.C,C1*%
X119480000Y-95000000D03*
X118520000Y-95000000D03*
%TD*%
D11*
%TO.C,U2*%
X143050000Y-91050000D03*
X143050000Y-91700000D03*
X143050000Y-92350000D03*
X144950000Y-92350000D03*
X144950000Y-91700000D03*
X144950000Y-91050000D03*
%TD*%
D12*
%TO.C,J1*%
X157137500Y-103075000D03*
X157137500Y-103725000D03*
X157137500Y-104375000D03*
X157137500Y-105025000D03*
X157137500Y-105675000D03*
X157137500Y-106325000D03*
X157137500Y-106975000D03*
X157137500Y-107625000D03*
X157137500Y-108275000D03*
X157137500Y-108925000D03*
X162862500Y-108925000D03*
X162862500Y-108275000D03*
X162862500Y-107625000D03*
X162862500Y-106975000D03*
X162862500Y-106325000D03*
X162862500Y-105675000D03*
X162862500Y-105025000D03*
X162862500Y-104375000D03*
X162862500Y-103725000D03*
X162862500Y-103075000D03*
%TD*%
D11*
%TO.C,U2*%
X135050000Y-107050000D03*
X135050000Y-107700000D03*
X135050000Y-108350000D03*
X136950000Y-108350000D03*
X136950000Y-107700000D03*
X136950000Y-107050000D03*
%TD*%
D13*
%TO.C,R1*%
X120490000Y-119000000D03*
X121510000Y-119000000D03*
%TD*%
D10*
%TO.C,C1*%
X143480000Y-87000000D03*
X142520000Y-87000000D03*
%TD*%
D12*
%TO.C,J1*%
X125137500Y-127075000D03*
X125137500Y-127725000D03*
X125137500Y-128375000D03*
X125137500Y-129025000D03*
X125137500Y-129675000D03*
X125137500Y-130325000D03*
X125137500Y-130975000D03*
X125137500Y-131625000D03*
X125137500Y-132275000D03*
X125137500Y-132925000D03*
X130862500Y-132925000D03*
X130862500Y-132275000D03*
X130862500Y-131625000D03*
X130862500Y-130975000D03*
X130862500Y-130325000D03*
X130862500Y-129675000D03*
X130862500Y-129025000D03*
X130862500Y-128375000D03*
X130862500Y-127725000D03*
X130862500Y-127075000D03*
%TD*%
D10*
%TO.C,C1*%
X151480000Y-111000000D03*
X150520000Y-111000000D03*
%TD*%
D11*
%TO.C,U1*%
X151050000Y-96250000D03*
X151050000Y-96900000D03*
X151050000Y-97550000D03*
X152950000Y-97550000D03*
X152950000Y-96900000D03*
X152950000Y-96250000D03*
%TD*%
D10*
%TO.C,C1*%
X127480000Y-87000000D03*
X126520000Y-87000000D03*
%TD*%
D13*
%TO.C,R1*%
X160490000Y-103000000D03*
X161510000Y-103000000D03*
%TD*%
D11*
%TO.C,U1*%
X159050000Y-112250000D03*
X159050000Y-112900000D03*
X159050000Y-113550000D03*
X160950000Y-113550000D03*
X160950000Y-112900000D03*
X160950000Y-112250000D03*
%TD*%
D10*
%TO.C,C1*%
X151480000Y-119000000D03*
X150520000Y-119000000D03*
%TD*%
%TO.C,C1*%
X151480000Y-103000000D03*
X150520000Y-103000000D03*
%TD*%
D13*
%TO.C,R1*%
X144490000Y-119000000D03*
X145510000Y-119000000D03*
%TD*%
D12*
%TO.C,J1*%
X149137500Y-103075000D03*
X149137500Y-103725000D03*
X149137500Y-104375000D03*
X149137500Y-105025000D03*
X149137500Y-105675000D03*
X149137500Y-106325000D03*
X149137500Y-106975000D03*
X149137500Y-107625000D03*
X149137500Y-108275000D03*
X149137500Y-108925000D03*
X154862500Y-108925000D03*
X154862500Y-108275000D03*
X154862500Y-107625000D03*
X154862500Y-106975000D03*
X154862500Y-106325000D03*
X154862500Y-105675000D03*
X154862500Y-105025000D03*
X154862500Y-104375000D03*
X154862500Y-103725000D03*
X154862500Y-103075000D03*
%TD*%
D11*
%TO.C,U1*%
X127050000Y-128250000D03*
X127050000Y-128900000D03*
X127050000Y-129550000D03*
X128950000Y-129550000D03*
X128950000Y-128900000D03*
X128950000Y-128250000D03*
%TD*%
%TO.C,U1*%
X127050000Y-104250000D03*
X127050000Y-104900000D03*
X127050000Y-105550000D03*
X128950000Y-105550000D03*
X128950000Y-104900000D03*
X128950000Y-104250000D03*
%TD*%
%TO.C,U2*%
X127050000Y-131050000D03*
X127050000Y-131700000D03*
X127050000Y-132350000D03*
X128950000Y-132350000D03*
X128950000Y-131700000D03*
X128950000Y-131050000D03*
%TD*%
%TO.C,U2*%
X151050000Y-115050000D03*
X151050000Y-115700000D03*
X151050000Y-116350000D03*
X152950000Y-116350000D03*
X152950000Y-115700000D03*
X152950000Y-115050000D03*
%TD*%
%TO.C,U2*%
X119050000Y-123050000D03*
X119050000Y-123700000D03*
X119050000Y-124350000D03*
X120950000Y-124350000D03*
X120950000Y-123700000D03*
X120950000Y-123050000D03*
%TD*%
D12*
%TO.C,J1*%
X149137500Y-127075000D03*
X149137500Y-127725000D03*
X149137500Y-128375000D03*
X149137500Y-129025000D03*
X149137500Y-129675000D03*
X149137500Y-130325000D03*
X149137500Y-130975000D03*
X149137500Y-131625000D03*
X149137500Y-132275000D03*
X149137500Y-132925000D03*
X154862500Y-132925000D03*
X154862500Y-132275000D03*
X154862500Y-131625000D03*
X154862500Y-130975000D03*
X154862500Y-130325000D03*
X154862500Y-129675000D03*
X154862500Y-129025000D03*
X154862500Y-128375000D03*
X154862500Y-127725000D03*
X154862500Y-127075000D03*
%TD*%
%TO.C,J1*%
X125137500Y-103075000D03*
X125137500Y-103725000D03*
X125137500Y-104375000D03*
X125137500Y-105025000D03*
X125137500Y-105675000D03*
X125137500Y-106325000D03*
X125137500Y-106975000D03*
X125137500Y-107625000D03*
X125137500Y-108275000D03*
X125137500Y-108925000D03*
X130862500Y-108925000D03*
X130862500Y-108275000D03*
X130862500Y-107625000D03*
X130862500Y-106975000D03*
X130862500Y-106325000D03*
X130862500Y-105675000D03*
X130862500Y-105025000D03*
X130862500Y-104375000D03*
X130862500Y-103725000D03*
X130862500Y-103075000D03*
%TD*%
D13*
%TO.C,R1*%
X136490000Y-87000000D03*
X137510000Y-87000000D03*
%TD*%
M02*
