M48
; DRILL file {KiCad 6.99.0-76368af7} date Mon 10 Jan 2022 02:25:05 PM CET
; FORMAT={-:-/ absolute / inch / decimal}
; #@! TF.CreationDate,2022-01-10T14:25:05+01:00
; #@! TF.GenerationSoftware,Kicad,Pcbnew,6.99.0-76368af7
; #@! TF.FileFunction,Plated,1,2,PTH
FMAT,2
INCH
; #@! TA.AperFunction,Plated,PTH,ComponentDrill
T1C0.0098
%
G90
G05
T1
X4.6117Y-3.4281
X4.6117Y-3.4537
X4.6117Y-3.4793
X4.6117Y-3.5049
X4.6117Y-3.5305
X4.6117Y-3.5561
X4.6117Y-3.5817
X4.6117Y-3.6073
X4.6117Y-3.6329
X4.6117Y-3.6585
X4.6117Y-3.7431
X4.6117Y-3.7687
X4.6117Y-3.7943
X4.6117Y-3.8199
X4.6117Y-3.8455
X4.6117Y-3.8711
X4.6117Y-3.8967
X4.6117Y-3.9222
X4.6117Y-3.9478
X4.6117Y-3.9734
X4.6117Y-4.0581
X4.6117Y-4.0837
X4.6117Y-4.1093
X4.6117Y-4.1348
X4.6117Y-4.1604
X4.6117Y-4.186
X4.6117Y-4.2116
X4.6117Y-4.2372
X4.6117Y-4.2628
X4.6117Y-4.2884
X4.6117Y-4.373
X4.6117Y-4.3986
X4.6117Y-4.4242
X4.6117Y-4.4498
X4.6117Y-4.4754
X4.6117Y-4.501
X4.6117Y-4.5266
X4.6117Y-4.5522
X4.6117Y-4.5778
X4.6117Y-4.6033
X4.6117Y-4.688
X4.6117Y-4.7136
X4.6117Y-4.7392
X4.6117Y-4.7648
X4.6117Y-4.7904
X4.6117Y-4.8159
X4.6117Y-4.8415
X4.6117Y-4.8671
X4.6117Y-4.8927
X4.6117Y-4.9183
X4.6117Y-5.003
X4.6117Y-5.0285
X4.6117Y-5.0541
X4.6117Y-5.0797
X4.6117Y-5.1053
X4.6117Y-5.1309
X4.6117Y-5.1565
X4.6117Y-5.1821
X4.6117Y-5.2077
X4.6117Y-5.2333
X4.8371Y-3.4281
X4.8371Y-3.4537
X4.8371Y-3.4793
X4.8371Y-3.5049
X4.8371Y-3.5305
X4.8371Y-3.5561
X4.8371Y-3.5817
X4.8371Y-3.6073
X4.8371Y-3.6329
X4.8371Y-3.6585
X4.8371Y-3.7431
X4.8371Y-3.7687
X4.8371Y-3.7943
X4.8371Y-3.8199
X4.8371Y-3.8455
X4.8371Y-3.8711
X4.8371Y-3.8967
X4.8371Y-3.9222
X4.8371Y-3.9478
X4.8371Y-3.9734
X4.8371Y-4.0581
X4.8371Y-4.0837
X4.8371Y-4.1093
X4.8371Y-4.1348
X4.8371Y-4.1604
X4.8371Y-4.186
X4.8371Y-4.2116
X4.8371Y-4.2372
X4.8371Y-4.2628
X4.8371Y-4.2884
X4.8371Y-4.373
X4.8371Y-4.3986
X4.8371Y-4.4242
X4.8371Y-4.4498
X4.8371Y-4.4754
X4.8371Y-4.501
X4.8371Y-4.5266
X4.8371Y-4.5522
X4.8371Y-4.5778
X4.8371Y-4.6033
X4.8371Y-4.688
X4.8371Y-4.7136
X4.8371Y-4.7392
X4.8371Y-4.7648
X4.8371Y-4.7904
X4.8371Y-4.8159
X4.8371Y-4.8415
X4.8371Y-4.8671
X4.8371Y-4.8927
X4.8371Y-4.9183
X4.8371Y-5.003
X4.8371Y-5.0285
X4.8371Y-5.0541
X4.8371Y-5.0797
X4.8371Y-5.1053
X4.8371Y-5.1309
X4.8371Y-5.1565
X4.8371Y-5.1821
X4.8371Y-5.2077
X4.8371Y-5.2333
X4.9267Y-3.4281
X4.9267Y-3.4537
X4.9267Y-3.4793
X4.9267Y-3.5049
X4.9267Y-3.5305
X4.9267Y-3.5561
X4.9267Y-3.5817
X4.9267Y-3.6073
X4.9267Y-3.6329
X4.9267Y-3.6585
X4.9267Y-3.7431
X4.9267Y-3.7687
X4.9267Y-3.7943
X4.9267Y-3.8199
X4.9267Y-3.8455
X4.9267Y-3.8711
X4.9267Y-3.8967
X4.9267Y-3.9222
X4.9267Y-3.9478
X4.9267Y-3.9734
X4.9267Y-4.0581
X4.9267Y-4.0837
X4.9267Y-4.1093
X4.9267Y-4.1348
X4.9267Y-4.1604
X4.9267Y-4.186
X4.9267Y-4.2116
X4.9267Y-4.2372
X4.9267Y-4.2628
X4.9267Y-4.2884
X4.9267Y-4.373
X4.9267Y-4.3986
X4.9267Y-4.4242
X4.9267Y-4.4498
X4.9267Y-4.4754
X4.9267Y-4.501
X4.9267Y-4.5266
X4.9267Y-4.5522
X4.9267Y-4.5778
X4.9267Y-4.6033
X4.9267Y-4.688
X4.9267Y-4.7136
X4.9267Y-4.7392
X4.9267Y-4.7648
X4.9267Y-4.7904
X4.9267Y-4.8159
X4.9267Y-4.8415
X4.9267Y-4.8671
X4.9267Y-4.8927
X4.9267Y-4.9183
X4.9267Y-5.003
X4.9267Y-5.0285
X4.9267Y-5.0541
X4.9267Y-5.0797
X4.9267Y-5.1053
X4.9267Y-5.1309
X4.9267Y-5.1565
X4.9267Y-5.1821
X4.9267Y-5.2077
X4.9267Y-5.2333
X5.1521Y-3.4281
X5.1521Y-3.4537
X5.1521Y-3.4793
X5.1521Y-3.5049
X5.1521Y-3.5305
X5.1521Y-3.5561
X5.1521Y-3.5817
X5.1521Y-3.6073
X5.1521Y-3.6329
X5.1521Y-3.6585
X5.1521Y-3.7431
X5.1521Y-3.7687
X5.1521Y-3.7943
X5.1521Y-3.8199
X5.1521Y-3.8455
X5.1521Y-3.8711
X5.1521Y-3.8967
X5.1521Y-3.9222
X5.1521Y-3.9478
X5.1521Y-3.9734
X5.1521Y-4.0581
X5.1521Y-4.0837
X5.1521Y-4.1093
X5.1521Y-4.1348
X5.1521Y-4.1604
X5.1521Y-4.186
X5.1521Y-4.2116
X5.1521Y-4.2372
X5.1521Y-4.2628
X5.1521Y-4.2884
X5.1521Y-4.373
X5.1521Y-4.3986
X5.1521Y-4.4242
X5.1521Y-4.4498
X5.1521Y-4.4754
X5.1521Y-4.501
X5.1521Y-4.5266
X5.1521Y-4.5522
X5.1521Y-4.5778
X5.1521Y-4.6033
X5.1521Y-4.688
X5.1521Y-4.7136
X5.1521Y-4.7392
X5.1521Y-4.7648
X5.1521Y-4.7904
X5.1521Y-4.8159
X5.1521Y-4.8415
X5.1521Y-4.8671
X5.1521Y-4.8927
X5.1521Y-4.9183
X5.1521Y-5.003
X5.1521Y-5.0285
X5.1521Y-5.0541
X5.1521Y-5.0797
X5.1521Y-5.1053
X5.1521Y-5.1309
X5.1521Y-5.1565
X5.1521Y-5.1821
X5.1521Y-5.2077
X5.1521Y-5.2333
X5.2416Y-3.4281
X5.2416Y-3.4537
X5.2416Y-3.4793
X5.2416Y-3.5049
X5.2416Y-3.5305
X5.2416Y-3.5561
X5.2416Y-3.5817
X5.2416Y-3.6073
X5.2416Y-3.6329
X5.2416Y-3.6585
X5.2416Y-3.7431
X5.2416Y-3.7687
X5.2416Y-3.7943
X5.2416Y-3.8199
X5.2416Y-3.8455
X5.2416Y-3.8711
X5.2416Y-3.8967
X5.2416Y-3.9222
X5.2416Y-3.9478
X5.2416Y-3.9734
X5.2416Y-4.0581
X5.2416Y-4.0837
X5.2416Y-4.1093
X5.2416Y-4.1348
X5.2416Y-4.1604
X5.2416Y-4.186
X5.2416Y-4.2116
X5.2416Y-4.2372
X5.2416Y-4.2628
X5.2416Y-4.2884
X5.2416Y-4.373
X5.2416Y-4.3986
X5.2416Y-4.4242
X5.2416Y-4.4498
X5.2416Y-4.4754
X5.2416Y-4.501
X5.2416Y-4.5266
X5.2416Y-4.5522
X5.2416Y-4.5778
X5.2416Y-4.6033
X5.2416Y-4.688
X5.2416Y-4.7136
X5.2416Y-4.7392
X5.2416Y-4.7648
X5.2416Y-4.7904
X5.2416Y-4.8159
X5.2416Y-4.8415
X5.2416Y-4.8671
X5.2416Y-4.8927
X5.2416Y-4.9183
X5.2416Y-5.003
X5.2416Y-5.0285
X5.2416Y-5.0541
X5.2416Y-5.0797
X5.2416Y-5.1053
X5.2416Y-5.1309
X5.2416Y-5.1565
X5.2416Y-5.1821
X5.2416Y-5.2077
X5.2416Y-5.2333
X5.467Y-3.4281
X5.467Y-3.4537
X5.467Y-3.4793
X5.467Y-3.5049
X5.467Y-3.5305
X5.467Y-3.5561
X5.467Y-3.5817
X5.467Y-3.6073
X5.467Y-3.6329
X5.467Y-3.6585
X5.467Y-3.7431
X5.467Y-3.7687
X5.467Y-3.7943
X5.467Y-3.8199
X5.467Y-3.8455
X5.467Y-3.8711
X5.467Y-3.8967
X5.467Y-3.9222
X5.467Y-3.9478
X5.467Y-3.9734
X5.467Y-4.0581
X5.467Y-4.0837
X5.467Y-4.1093
X5.467Y-4.1348
X5.467Y-4.1604
X5.467Y-4.186
X5.467Y-4.2116
X5.467Y-4.2372
X5.467Y-4.2628
X5.467Y-4.2884
X5.467Y-4.373
X5.467Y-4.3986
X5.467Y-4.4242
X5.467Y-4.4498
X5.467Y-4.4754
X5.467Y-4.501
X5.467Y-4.5266
X5.467Y-4.5522
X5.467Y-4.5778
X5.467Y-4.6033
X5.467Y-4.688
X5.467Y-4.7136
X5.467Y-4.7392
X5.467Y-4.7648
X5.467Y-4.7904
X5.467Y-4.8159
X5.467Y-4.8415
X5.467Y-4.8671
X5.467Y-4.8927
X5.467Y-4.9183
X5.467Y-5.003
X5.467Y-5.0285
X5.467Y-5.0541
X5.467Y-5.0797
X5.467Y-5.1053
X5.467Y-5.1309
X5.467Y-5.1565
X5.467Y-5.1821
X5.467Y-5.2077
X5.467Y-5.2333
X5.5566Y-3.4281
X5.5566Y-3.4537
X5.5566Y-3.4793
X5.5566Y-3.5049
X5.5566Y-3.5305
X5.5566Y-3.5561
X5.5566Y-3.5817
X5.5566Y-3.6073
X5.5566Y-3.6329
X5.5566Y-3.6585
X5.5566Y-3.7431
X5.5566Y-3.7687
X5.5566Y-3.7943
X5.5566Y-3.8199
X5.5566Y-3.8455
X5.5566Y-3.8711
X5.5566Y-3.8967
X5.5566Y-3.9222
X5.5566Y-3.9478
X5.5566Y-3.9734
X5.5566Y-4.0581
X5.5566Y-4.0837
X5.5566Y-4.1093
X5.5566Y-4.1348
X5.5566Y-4.1604
X5.5566Y-4.186
X5.5566Y-4.2116
X5.5566Y-4.2372
X5.5566Y-4.2628
X5.5566Y-4.2884
X5.5566Y-4.373
X5.5566Y-4.3986
X5.5566Y-4.4242
X5.5566Y-4.4498
X5.5566Y-4.4754
X5.5566Y-4.501
X5.5566Y-4.5266
X5.5566Y-4.5522
X5.5566Y-4.5778
X5.5566Y-4.6033
X5.5566Y-4.688
X5.5566Y-4.7136
X5.5566Y-4.7392
X5.5566Y-4.7648
X5.5566Y-4.7904
X5.5566Y-4.8159
X5.5566Y-4.8415
X5.5566Y-4.8671
X5.5566Y-4.8927
X5.5566Y-4.9183
X5.5566Y-5.003
X5.5566Y-5.0285
X5.5566Y-5.0541
X5.5566Y-5.0797
X5.5566Y-5.1053
X5.5566Y-5.1309
X5.5566Y-5.1565
X5.5566Y-5.1821
X5.5566Y-5.2077
X5.5566Y-5.2333
X5.782Y-3.4281
X5.782Y-3.4537
X5.782Y-3.4793
X5.782Y-3.5049
X5.782Y-3.5305
X5.782Y-3.5561
X5.782Y-3.5817
X5.782Y-3.6073
X5.782Y-3.6329
X5.782Y-3.6585
X5.782Y-3.7431
X5.782Y-3.7687
X5.782Y-3.7943
X5.782Y-3.8199
X5.782Y-3.8455
X5.782Y-3.8711
X5.782Y-3.8967
X5.782Y-3.9222
X5.782Y-3.9478
X5.782Y-3.9734
X5.782Y-4.0581
X5.782Y-4.0837
X5.782Y-4.1093
X5.782Y-4.1348
X5.782Y-4.1604
X5.782Y-4.186
X5.782Y-4.2116
X5.782Y-4.2372
X5.782Y-4.2628
X5.782Y-4.2884
X5.782Y-4.373
X5.782Y-4.3986
X5.782Y-4.4242
X5.782Y-4.4498
X5.782Y-4.4754
X5.782Y-4.501
X5.782Y-4.5266
X5.782Y-4.5522
X5.782Y-4.5778
X5.782Y-4.6033
X5.782Y-4.688
X5.782Y-4.7136
X5.782Y-4.7392
X5.782Y-4.7648
X5.782Y-4.7904
X5.782Y-4.8159
X5.782Y-4.8415
X5.782Y-4.8671
X5.782Y-4.8927
X5.782Y-4.9183
X5.782Y-5.003
X5.782Y-5.0285
X5.782Y-5.0541
X5.782Y-5.0797
X5.782Y-5.1053
X5.782Y-5.1309
X5.782Y-5.1565
X5.782Y-5.1821
X5.782Y-5.2077
X5.782Y-5.2333
X5.8716Y-3.4281
X5.8716Y-3.4537
X5.8716Y-3.4793
X5.8716Y-3.5049
X5.8716Y-3.5305
X5.8716Y-3.5561
X5.8716Y-3.5817
X5.8716Y-3.6073
X5.8716Y-3.6329
X5.8716Y-3.6585
X5.8716Y-3.7431
X5.8716Y-3.7687
X5.8716Y-3.7943
X5.8716Y-3.8199
X5.8716Y-3.8455
X5.8716Y-3.8711
X5.8716Y-3.8967
X5.8716Y-3.9222
X5.8716Y-3.9478
X5.8716Y-3.9734
X5.8716Y-4.0581
X5.8716Y-4.0837
X5.8716Y-4.1093
X5.8716Y-4.1348
X5.8716Y-4.1604
X5.8716Y-4.186
X5.8716Y-4.2116
X5.8716Y-4.2372
X5.8716Y-4.2628
X5.8716Y-4.2884
X5.8716Y-4.373
X5.8716Y-4.3986
X5.8716Y-4.4242
X5.8716Y-4.4498
X5.8716Y-4.4754
X5.8716Y-4.501
X5.8716Y-4.5266
X5.8716Y-4.5522
X5.8716Y-4.5778
X5.8716Y-4.6033
X5.8716Y-4.688
X5.8716Y-4.7136
X5.8716Y-4.7392
X5.8716Y-4.7648
X5.8716Y-4.7904
X5.8716Y-4.8159
X5.8716Y-4.8415
X5.8716Y-4.8671
X5.8716Y-4.8927
X5.8716Y-4.9183
X5.8716Y-5.003
X5.8716Y-5.0285
X5.8716Y-5.0541
X5.8716Y-5.0797
X5.8716Y-5.1053
X5.8716Y-5.1309
X5.8716Y-5.1565
X5.8716Y-5.1821
X5.8716Y-5.2077
X5.8716Y-5.2333
X6.0969Y-3.4281
X6.0969Y-3.4537
X6.0969Y-3.4793
X6.0969Y-3.5049
X6.0969Y-3.5305
X6.0969Y-3.5561
X6.0969Y-3.5817
X6.0969Y-3.6073
X6.0969Y-3.6329
X6.0969Y-3.6585
X6.0969Y-3.7431
X6.0969Y-3.7687
X6.0969Y-3.7943
X6.0969Y-3.8199
X6.0969Y-3.8455
X6.0969Y-3.8711
X6.0969Y-3.8967
X6.0969Y-3.9222
X6.0969Y-3.9478
X6.0969Y-3.9734
X6.0969Y-4.0581
X6.0969Y-4.0837
X6.0969Y-4.1093
X6.0969Y-4.1348
X6.0969Y-4.1604
X6.0969Y-4.186
X6.0969Y-4.2116
X6.0969Y-4.2372
X6.0969Y-4.2628
X6.0969Y-4.2884
X6.0969Y-4.373
X6.0969Y-4.3986
X6.0969Y-4.4242
X6.0969Y-4.4498
X6.0969Y-4.4754
X6.0969Y-4.501
X6.0969Y-4.5266
X6.0969Y-4.5522
X6.0969Y-4.5778
X6.0969Y-4.6033
X6.0969Y-4.688
X6.0969Y-4.7136
X6.0969Y-4.7392
X6.0969Y-4.7648
X6.0969Y-4.7904
X6.0969Y-4.8159
X6.0969Y-4.8415
X6.0969Y-4.8671
X6.0969Y-4.8927
X6.0969Y-4.9183
X6.0969Y-5.003
X6.0969Y-5.0285
X6.0969Y-5.0541
X6.0969Y-5.0797
X6.0969Y-5.1053
X6.0969Y-5.1309
X6.0969Y-5.1565
X6.0969Y-5.1821
X6.0969Y-5.2077
X6.0969Y-5.2333
X6.1865Y-3.4281
X6.1865Y-3.4537
X6.1865Y-3.4793
X6.1865Y-3.5049
X6.1865Y-3.5305
X6.1865Y-3.5561
X6.1865Y-3.5817
X6.1865Y-3.6073
X6.1865Y-3.6329
X6.1865Y-3.6585
X6.1865Y-3.7431
X6.1865Y-3.7687
X6.1865Y-3.7943
X6.1865Y-3.8199
X6.1865Y-3.8455
X6.1865Y-3.8711
X6.1865Y-3.8967
X6.1865Y-3.9222
X6.1865Y-3.9478
X6.1865Y-3.9734
X6.1865Y-4.0581
X6.1865Y-4.0837
X6.1865Y-4.1093
X6.1865Y-4.1348
X6.1865Y-4.1604
X6.1865Y-4.186
X6.1865Y-4.2116
X6.1865Y-4.2372
X6.1865Y-4.2628
X6.1865Y-4.2884
X6.1865Y-4.373
X6.1865Y-4.3986
X6.1865Y-4.4242
X6.1865Y-4.4498
X6.1865Y-4.4754
X6.1865Y-4.501
X6.1865Y-4.5266
X6.1865Y-4.5522
X6.1865Y-4.5778
X6.1865Y-4.6033
X6.1865Y-4.688
X6.1865Y-4.7136
X6.1865Y-4.7392
X6.1865Y-4.7648
X6.1865Y-4.7904
X6.1865Y-4.8159
X6.1865Y-4.8415
X6.1865Y-4.8671
X6.1865Y-4.8927
X6.1865Y-4.9183
X6.1865Y-5.003
X6.1865Y-5.0285
X6.1865Y-5.0541
X6.1865Y-5.0797
X6.1865Y-5.1053
X6.1865Y-5.1309
X6.1865Y-5.1565
X6.1865Y-5.1821
X6.1865Y-5.2077
X6.1865Y-5.2333
X6.4119Y-3.4281
X6.4119Y-3.4537
X6.4119Y-3.4793
X6.4119Y-3.5049
X6.4119Y-3.5305
X6.4119Y-3.5561
X6.4119Y-3.5817
X6.4119Y-3.6073
X6.4119Y-3.6329
X6.4119Y-3.6585
X6.4119Y-3.7431
X6.4119Y-3.7687
X6.4119Y-3.7943
X6.4119Y-3.8199
X6.4119Y-3.8455
X6.4119Y-3.8711
X6.4119Y-3.8967
X6.4119Y-3.9222
X6.4119Y-3.9478
X6.4119Y-3.9734
X6.4119Y-4.0581
X6.4119Y-4.0837
X6.4119Y-4.1093
X6.4119Y-4.1348
X6.4119Y-4.1604
X6.4119Y-4.186
X6.4119Y-4.2116
X6.4119Y-4.2372
X6.4119Y-4.2628
X6.4119Y-4.2884
X6.4119Y-4.373
X6.4119Y-4.3986
X6.4119Y-4.4242
X6.4119Y-4.4498
X6.4119Y-4.4754
X6.4119Y-4.501
X6.4119Y-4.5266
X6.4119Y-4.5522
X6.4119Y-4.5778
X6.4119Y-4.6033
X6.4119Y-4.688
X6.4119Y-4.7136
X6.4119Y-4.7392
X6.4119Y-4.7648
X6.4119Y-4.7904
X6.4119Y-4.8159
X6.4119Y-4.8415
X6.4119Y-4.8671
X6.4119Y-4.8927
X6.4119Y-4.9183
X6.4119Y-5.003
X6.4119Y-5.0285
X6.4119Y-5.0541
X6.4119Y-5.0797
X6.4119Y-5.1053
X6.4119Y-5.1309
X6.4119Y-5.1565
X6.4119Y-5.1821
X6.4119Y-5.2077
X6.4119Y-5.2333
T0
M30
