%TF.GenerationSoftware,KiCad,Pcbnew,6.99.0-76368af7*%
%TF.CreationDate,2022-01-11T12:03:39+01:00*%
%TF.ProjectId,hc245t_bypass_esd-panel,68633234-3574-45f6-9279-706173735f65,rev?*%
%TF.SameCoordinates,Original*%
%TF.FileFunction,Soldermask,Bot*%
%TF.FilePolarity,Negative*%
%FSLAX46Y46*%
G04 Gerber Fmt 4.6, Leading zero omitted, Abs format (unit mm)*
G04 Created by KiCad (PCBNEW 6.99.0-76368af7) date 2022-01-11 12:03:39*
%MOMM*%
%LPD*%
G01*
G04 APERTURE LIST*
G04 Aperture macros list*
%AMRoundRect*
0 Rectangle with rounded corners*
0 $1 Rounding radius*
0 $2 $3 $4 $5 $6 $7 $8 $9 X,Y pos of 4 corners*
0 Add a 4 corners polygon primitive as box body*
4,1,4,$2,$3,$4,$5,$6,$7,$8,$9,$2,$3,0*
0 Add four circle primitives for the rounded corners*
1,1,$1+$1,$2,$3*
1,1,$1+$1,$4,$5*
1,1,$1+$1,$6,$7*
1,1,$1+$1,$8,$9*
0 Add four rect primitives between the rounded corners*
20,1,$1+$1,$2,$3,$4,$5,0*
20,1,$1+$1,$4,$5,$6,$7,0*
20,1,$1+$1,$6,$7,$8,$9,0*
20,1,$1+$1,$8,$9,$2,$3,0*%
G04 Aperture macros list end*
%ADD10RoundRect,0.100000X-0.637500X-0.100000X0.637500X-0.100000X0.637500X0.100000X-0.637500X0.100000X0*%
G04 APERTURE END LIST*
D10*
%TO.C,J1*%
X136137500Y-112075000D03*
X136137500Y-112725000D03*
X136137500Y-113375000D03*
X136137500Y-114025000D03*
X136137500Y-114675000D03*
X136137500Y-115325000D03*
X136137500Y-115975000D03*
X136137500Y-116625000D03*
X136137500Y-117275000D03*
X136137500Y-117925000D03*
X141862500Y-117925000D03*
X141862500Y-117275000D03*
X141862500Y-116625000D03*
X141862500Y-115975000D03*
X141862500Y-115325000D03*
X141862500Y-114675000D03*
X141862500Y-114025000D03*
X141862500Y-113375000D03*
X141862500Y-112725000D03*
X141862500Y-112075000D03*
%TD*%
%TO.C,J1*%
X152137500Y-120075000D03*
X152137500Y-120725000D03*
X152137500Y-121375000D03*
X152137500Y-122025000D03*
X152137500Y-122675000D03*
X152137500Y-123325000D03*
X152137500Y-123975000D03*
X152137500Y-124625000D03*
X152137500Y-125275000D03*
X152137500Y-125925000D03*
X157862500Y-125925000D03*
X157862500Y-125275000D03*
X157862500Y-124625000D03*
X157862500Y-123975000D03*
X157862500Y-123325000D03*
X157862500Y-122675000D03*
X157862500Y-122025000D03*
X157862500Y-121375000D03*
X157862500Y-120725000D03*
X157862500Y-120075000D03*
%TD*%
%TO.C,J1*%
X128137500Y-104075000D03*
X128137500Y-104725000D03*
X128137500Y-105375000D03*
X128137500Y-106025000D03*
X128137500Y-106675000D03*
X128137500Y-107325000D03*
X128137500Y-107975000D03*
X128137500Y-108625000D03*
X128137500Y-109275000D03*
X128137500Y-109925000D03*
X133862500Y-109925000D03*
X133862500Y-109275000D03*
X133862500Y-108625000D03*
X133862500Y-107975000D03*
X133862500Y-107325000D03*
X133862500Y-106675000D03*
X133862500Y-106025000D03*
X133862500Y-105375000D03*
X133862500Y-104725000D03*
X133862500Y-104075000D03*
%TD*%
%TO.C,J1*%
X152137500Y-112075000D03*
X152137500Y-112725000D03*
X152137500Y-113375000D03*
X152137500Y-114025000D03*
X152137500Y-114675000D03*
X152137500Y-115325000D03*
X152137500Y-115975000D03*
X152137500Y-116625000D03*
X152137500Y-117275000D03*
X152137500Y-117925000D03*
X157862500Y-117925000D03*
X157862500Y-117275000D03*
X157862500Y-116625000D03*
X157862500Y-115975000D03*
X157862500Y-115325000D03*
X157862500Y-114675000D03*
X157862500Y-114025000D03*
X157862500Y-113375000D03*
X157862500Y-112725000D03*
X157862500Y-112075000D03*
%TD*%
%TO.C,J1*%
X152137500Y-104075000D03*
X152137500Y-104725000D03*
X152137500Y-105375000D03*
X152137500Y-106025000D03*
X152137500Y-106675000D03*
X152137500Y-107325000D03*
X152137500Y-107975000D03*
X152137500Y-108625000D03*
X152137500Y-109275000D03*
X152137500Y-109925000D03*
X157862500Y-109925000D03*
X157862500Y-109275000D03*
X157862500Y-108625000D03*
X157862500Y-107975000D03*
X157862500Y-107325000D03*
X157862500Y-106675000D03*
X157862500Y-106025000D03*
X157862500Y-105375000D03*
X157862500Y-104725000D03*
X157862500Y-104075000D03*
%TD*%
%TO.C,J1*%
X160137500Y-104075000D03*
X160137500Y-104725000D03*
X160137500Y-105375000D03*
X160137500Y-106025000D03*
X160137500Y-106675000D03*
X160137500Y-107325000D03*
X160137500Y-107975000D03*
X160137500Y-108625000D03*
X160137500Y-109275000D03*
X160137500Y-109925000D03*
X165862500Y-109925000D03*
X165862500Y-109275000D03*
X165862500Y-108625000D03*
X165862500Y-107975000D03*
X165862500Y-107325000D03*
X165862500Y-106675000D03*
X165862500Y-106025000D03*
X165862500Y-105375000D03*
X165862500Y-104725000D03*
X165862500Y-104075000D03*
%TD*%
%TO.C,J1*%
X144137500Y-120075000D03*
X144137500Y-120725000D03*
X144137500Y-121375000D03*
X144137500Y-122025000D03*
X144137500Y-122675000D03*
X144137500Y-123325000D03*
X144137500Y-123975000D03*
X144137500Y-124625000D03*
X144137500Y-125275000D03*
X144137500Y-125925000D03*
X149862500Y-125925000D03*
X149862500Y-125275000D03*
X149862500Y-124625000D03*
X149862500Y-123975000D03*
X149862500Y-123325000D03*
X149862500Y-122675000D03*
X149862500Y-122025000D03*
X149862500Y-121375000D03*
X149862500Y-120725000D03*
X149862500Y-120075000D03*
%TD*%
%TO.C,J1*%
X144137500Y-112075000D03*
X144137500Y-112725000D03*
X144137500Y-113375000D03*
X144137500Y-114025000D03*
X144137500Y-114675000D03*
X144137500Y-115325000D03*
X144137500Y-115975000D03*
X144137500Y-116625000D03*
X144137500Y-117275000D03*
X144137500Y-117925000D03*
X149862500Y-117925000D03*
X149862500Y-117275000D03*
X149862500Y-116625000D03*
X149862500Y-115975000D03*
X149862500Y-115325000D03*
X149862500Y-114675000D03*
X149862500Y-114025000D03*
X149862500Y-113375000D03*
X149862500Y-112725000D03*
X149862500Y-112075000D03*
%TD*%
%TO.C,J1*%
X128137500Y-112075000D03*
X128137500Y-112725000D03*
X128137500Y-113375000D03*
X128137500Y-114025000D03*
X128137500Y-114675000D03*
X128137500Y-115325000D03*
X128137500Y-115975000D03*
X128137500Y-116625000D03*
X128137500Y-117275000D03*
X128137500Y-117925000D03*
X133862500Y-117925000D03*
X133862500Y-117275000D03*
X133862500Y-116625000D03*
X133862500Y-115975000D03*
X133862500Y-115325000D03*
X133862500Y-114675000D03*
X133862500Y-114025000D03*
X133862500Y-113375000D03*
X133862500Y-112725000D03*
X133862500Y-112075000D03*
%TD*%
%TO.C,J1*%
X160137500Y-112075000D03*
X160137500Y-112725000D03*
X160137500Y-113375000D03*
X160137500Y-114025000D03*
X160137500Y-114675000D03*
X160137500Y-115325000D03*
X160137500Y-115975000D03*
X160137500Y-116625000D03*
X160137500Y-117275000D03*
X160137500Y-117925000D03*
X165862500Y-117925000D03*
X165862500Y-117275000D03*
X165862500Y-116625000D03*
X165862500Y-115975000D03*
X165862500Y-115325000D03*
X165862500Y-114675000D03*
X165862500Y-114025000D03*
X165862500Y-113375000D03*
X165862500Y-112725000D03*
X165862500Y-112075000D03*
%TD*%
%TO.C,J1*%
X144137500Y-104075000D03*
X144137500Y-104725000D03*
X144137500Y-105375000D03*
X144137500Y-106025000D03*
X144137500Y-106675000D03*
X144137500Y-107325000D03*
X144137500Y-107975000D03*
X144137500Y-108625000D03*
X144137500Y-109275000D03*
X144137500Y-109925000D03*
X149862500Y-109925000D03*
X149862500Y-109275000D03*
X149862500Y-108625000D03*
X149862500Y-107975000D03*
X149862500Y-107325000D03*
X149862500Y-106675000D03*
X149862500Y-106025000D03*
X149862500Y-105375000D03*
X149862500Y-104725000D03*
X149862500Y-104075000D03*
%TD*%
%TO.C,J1*%
X136137500Y-104075000D03*
X136137500Y-104725000D03*
X136137500Y-105375000D03*
X136137500Y-106025000D03*
X136137500Y-106675000D03*
X136137500Y-107325000D03*
X136137500Y-107975000D03*
X136137500Y-108625000D03*
X136137500Y-109275000D03*
X136137500Y-109925000D03*
X141862500Y-109925000D03*
X141862500Y-109275000D03*
X141862500Y-108625000D03*
X141862500Y-107975000D03*
X141862500Y-107325000D03*
X141862500Y-106675000D03*
X141862500Y-106025000D03*
X141862500Y-105375000D03*
X141862500Y-104725000D03*
X141862500Y-104075000D03*
%TD*%
%TO.C,J1*%
X128137500Y-120075000D03*
X128137500Y-120725000D03*
X128137500Y-121375000D03*
X128137500Y-122025000D03*
X128137500Y-122675000D03*
X128137500Y-123325000D03*
X128137500Y-123975000D03*
X128137500Y-124625000D03*
X128137500Y-125275000D03*
X128137500Y-125925000D03*
X133862500Y-125925000D03*
X133862500Y-125275000D03*
X133862500Y-124625000D03*
X133862500Y-123975000D03*
X133862500Y-123325000D03*
X133862500Y-122675000D03*
X133862500Y-122025000D03*
X133862500Y-121375000D03*
X133862500Y-120725000D03*
X133862500Y-120075000D03*
%TD*%
%TO.C,J1*%
X136137500Y-120075000D03*
X136137500Y-120725000D03*
X136137500Y-121375000D03*
X136137500Y-122025000D03*
X136137500Y-122675000D03*
X136137500Y-123325000D03*
X136137500Y-123975000D03*
X136137500Y-124625000D03*
X136137500Y-125275000D03*
X136137500Y-125925000D03*
X141862500Y-125925000D03*
X141862500Y-125275000D03*
X141862500Y-124625000D03*
X141862500Y-123975000D03*
X141862500Y-123325000D03*
X141862500Y-122675000D03*
X141862500Y-122025000D03*
X141862500Y-121375000D03*
X141862500Y-120725000D03*
X141862500Y-120075000D03*
%TD*%
%TO.C,J1*%
X160137500Y-120075000D03*
X160137500Y-120725000D03*
X160137500Y-121375000D03*
X160137500Y-122025000D03*
X160137500Y-122675000D03*
X160137500Y-123325000D03*
X160137500Y-123975000D03*
X160137500Y-124625000D03*
X160137500Y-125275000D03*
X160137500Y-125925000D03*
X165862500Y-125925000D03*
X165862500Y-125275000D03*
X165862500Y-124625000D03*
X165862500Y-123975000D03*
X165862500Y-123325000D03*
X165862500Y-122675000D03*
X165862500Y-122025000D03*
X165862500Y-121375000D03*
X165862500Y-120725000D03*
X165862500Y-120075000D03*
%TD*%
M02*
