%TF.GenerationSoftware,KiCad,Pcbnew,6.99.0-76368af7*%
%TF.CreationDate,2022-01-11T12:03:36+01:00*%
%TF.ProjectId,hc245t_bypass_esd-panel,68633234-3574-45f6-9279-706173735f65,rev?*%
%TF.SameCoordinates,Original*%
%TF.FileFunction,Copper,L1,Top*%
%TF.FilePolarity,Positive*%
%FSLAX46Y46*%
G04 Gerber Fmt 4.6, Leading zero omitted, Abs format (unit mm)*
G04 Created by KiCad (PCBNEW 6.99.0-76368af7) date 2022-01-11 12:03:36*
%MOMM*%
%LPD*%
G01*
G04 APERTURE LIST*
G04 Aperture macros list*
%AMRoundRect*
0 Rectangle with rounded corners*
0 $1 Rounding radius*
0 $2 $3 $4 $5 $6 $7 $8 $9 X,Y pos of 4 corners*
0 Add a 4 corners polygon primitive as box body*
4,1,4,$2,$3,$4,$5,$6,$7,$8,$9,$2,$3,0*
0 Add four circle primitives for the rounded corners*
1,1,$1+$1,$2,$3*
1,1,$1+$1,$4,$5*
1,1,$1+$1,$6,$7*
1,1,$1+$1,$8,$9*
0 Add four rect primitives between the rounded corners*
20,1,$1+$1,$2,$3,$4,$5,0*
20,1,$1+$1,$4,$5,$6,$7,0*
20,1,$1+$1,$6,$7,$8,$9,0*
20,1,$1+$1,$8,$9,$2,$3,0*%
G04 Aperture macros list end*
%TA.AperFunction,SMDPad,CuDef*%
%ADD10RoundRect,0.140000X0.140000X0.170000X-0.140000X0.170000X-0.140000X-0.170000X0.140000X-0.170000X0*%
%TD*%
%TA.AperFunction,SMDPad,CuDef*%
%ADD11RoundRect,0.135000X-0.135000X-0.185000X0.135000X-0.185000X0.135000X0.185000X-0.135000X0.185000X0*%
%TD*%
%TA.AperFunction,ComponentPad*%
%ADD12RoundRect,0.100000X-0.637500X-0.100000X0.637500X-0.100000X0.637500X0.100000X-0.637500X0.100000X0*%
%TD*%
%TA.AperFunction,SMDPad,CuDef*%
%ADD13R,0.650000X0.400000*%
%TD*%
%TA.AperFunction,Conductor*%
%ADD14C,0.250000*%
%TD*%
G04 APERTURE END LIST*
D10*
%TO.P,C1,1*%
%TO.N,N/C*%
X138480000Y-104000000D03*
%TO.P,C1,2*%
X137520000Y-104000000D03*
%TD*%
D11*
%TO.P,R1,1*%
%TO.N,N/C*%
X163490000Y-120000000D03*
%TO.P,R1,2*%
X164510000Y-120000000D03*
%TD*%
D12*
%TO.P,J1,1,A->B*%
%TO.N,N/C*%
X136137500Y-112075000D03*
%TO.P,J1,2,A0*%
X136137500Y-112725000D03*
%TO.P,J1,3,A1*%
X136137500Y-113375000D03*
%TO.P,J1,4,A2*%
X136137500Y-114025000D03*
%TO.P,J1,5,A3*%
X136137500Y-114675000D03*
%TO.P,J1,6,A4*%
X136137500Y-115325000D03*
%TO.P,J1,7,A5*%
X136137500Y-115975000D03*
%TO.P,J1,8,A6*%
X136137500Y-116625000D03*
%TO.P,J1,9,A7*%
X136137500Y-117275000D03*
%TO.P,J1,10,GND*%
X136137500Y-117925000D03*
%TO.P,J1,11,B7*%
X141862500Y-117925000D03*
%TO.P,J1,12,B6*%
X141862500Y-117275000D03*
%TO.P,J1,13,B5*%
X141862500Y-116625000D03*
%TO.P,J1,14,B4*%
X141862500Y-115975000D03*
%TO.P,J1,15,B3*%
X141862500Y-115325000D03*
%TO.P,J1,16,B2*%
X141862500Y-114675000D03*
%TO.P,J1,17,B1*%
X141862500Y-114025000D03*
%TO.P,J1,18,B0*%
X141862500Y-113375000D03*
%TO.P,J1,19,CE*%
X141862500Y-112725000D03*
%TO.P,J1,20,VCC*%
X141862500Y-112075000D03*
%TD*%
%TO.P,J1,1,A->B*%
%TO.N,N/C*%
X152137500Y-120075000D03*
%TO.P,J1,2,A0*%
X152137500Y-120725000D03*
%TO.P,J1,3,A1*%
X152137500Y-121375000D03*
%TO.P,J1,4,A2*%
X152137500Y-122025000D03*
%TO.P,J1,5,A3*%
X152137500Y-122675000D03*
%TO.P,J1,6,A4*%
X152137500Y-123325000D03*
%TO.P,J1,7,A5*%
X152137500Y-123975000D03*
%TO.P,J1,8,A6*%
X152137500Y-124625000D03*
%TO.P,J1,9,A7*%
X152137500Y-125275000D03*
%TO.P,J1,10,GND*%
X152137500Y-125925000D03*
%TO.P,J1,11,B7*%
X157862500Y-125925000D03*
%TO.P,J1,12,B6*%
X157862500Y-125275000D03*
%TO.P,J1,13,B5*%
X157862500Y-124625000D03*
%TO.P,J1,14,B4*%
X157862500Y-123975000D03*
%TO.P,J1,15,B3*%
X157862500Y-123325000D03*
%TO.P,J1,16,B2*%
X157862500Y-122675000D03*
%TO.P,J1,17,B1*%
X157862500Y-122025000D03*
%TO.P,J1,18,B0*%
X157862500Y-121375000D03*
%TO.P,J1,19,CE*%
X157862500Y-120725000D03*
%TO.P,J1,20,VCC*%
X157862500Y-120075000D03*
%TD*%
D13*
%TO.P,U1,1*%
%TO.N,N/C*%
X162050000Y-121250000D03*
%TO.P,U1,2*%
X162050000Y-121900000D03*
%TO.P,U1,3*%
X162050000Y-122550000D03*
%TO.P,U1,4*%
X163950000Y-122550000D03*
%TO.P,U1,5*%
X163950000Y-121900000D03*
%TO.P,U1,6*%
X163950000Y-121250000D03*
%TD*%
%TO.P,U2,1*%
%TO.N,N/C*%
X130050000Y-124050000D03*
%TO.P,U2,2*%
X130050000Y-124700000D03*
%TO.P,U2,3*%
X130050000Y-125350000D03*
%TO.P,U2,4*%
X131950000Y-125350000D03*
%TO.P,U2,5*%
X131950000Y-124700000D03*
%TO.P,U2,6*%
X131950000Y-124050000D03*
%TD*%
D10*
%TO.P,C1,1*%
%TO.N,N/C*%
X138480000Y-120000000D03*
%TO.P,C1,2*%
X137520000Y-120000000D03*
%TD*%
D13*
%TO.P,U1,1*%
%TO.N,N/C*%
X154050000Y-113250000D03*
%TO.P,U1,2*%
X154050000Y-113900000D03*
%TO.P,U1,3*%
X154050000Y-114550000D03*
%TO.P,U1,4*%
X155950000Y-114550000D03*
%TO.P,U1,5*%
X155950000Y-113900000D03*
%TO.P,U1,6*%
X155950000Y-113250000D03*
%TD*%
D11*
%TO.P,R1,1*%
%TO.N,N/C*%
X163490000Y-112000000D03*
%TO.P,R1,2*%
X164510000Y-112000000D03*
%TD*%
D10*
%TO.P,C1,1*%
%TO.N,N/C*%
X138480000Y-112000000D03*
%TO.P,C1,2*%
X137520000Y-112000000D03*
%TD*%
D13*
%TO.P,U2,1*%
%TO.N,N/C*%
X146050000Y-116050000D03*
%TO.P,U2,2*%
X146050000Y-116700000D03*
%TO.P,U2,3*%
X146050000Y-117350000D03*
%TO.P,U2,4*%
X147950000Y-117350000D03*
%TO.P,U2,5*%
X147950000Y-116700000D03*
%TO.P,U2,6*%
X147950000Y-116050000D03*
%TD*%
D12*
%TO.P,J1,1,A->B*%
%TO.N,N/C*%
X128137500Y-104075000D03*
%TO.P,J1,2,A0*%
X128137500Y-104725000D03*
%TO.P,J1,3,A1*%
X128137500Y-105375000D03*
%TO.P,J1,4,A2*%
X128137500Y-106025000D03*
%TO.P,J1,5,A3*%
X128137500Y-106675000D03*
%TO.P,J1,6,A4*%
X128137500Y-107325000D03*
%TO.P,J1,7,A5*%
X128137500Y-107975000D03*
%TO.P,J1,8,A6*%
X128137500Y-108625000D03*
%TO.P,J1,9,A7*%
X128137500Y-109275000D03*
%TO.P,J1,10,GND*%
X128137500Y-109925000D03*
%TO.P,J1,11,B7*%
X133862500Y-109925000D03*
%TO.P,J1,12,B6*%
X133862500Y-109275000D03*
%TO.P,J1,13,B5*%
X133862500Y-108625000D03*
%TO.P,J1,14,B4*%
X133862500Y-107975000D03*
%TO.P,J1,15,B3*%
X133862500Y-107325000D03*
%TO.P,J1,16,B2*%
X133862500Y-106675000D03*
%TO.P,J1,17,B1*%
X133862500Y-106025000D03*
%TO.P,J1,18,B0*%
X133862500Y-105375000D03*
%TO.P,J1,19,CE*%
X133862500Y-104725000D03*
%TO.P,J1,20,VCC*%
X133862500Y-104075000D03*
%TD*%
%TO.P,J1,1,A->B*%
%TO.N,N/C*%
X152137500Y-112075000D03*
%TO.P,J1,2,A0*%
X152137500Y-112725000D03*
%TO.P,J1,3,A1*%
X152137500Y-113375000D03*
%TO.P,J1,4,A2*%
X152137500Y-114025000D03*
%TO.P,J1,5,A3*%
X152137500Y-114675000D03*
%TO.P,J1,6,A4*%
X152137500Y-115325000D03*
%TO.P,J1,7,A5*%
X152137500Y-115975000D03*
%TO.P,J1,8,A6*%
X152137500Y-116625000D03*
%TO.P,J1,9,A7*%
X152137500Y-117275000D03*
%TO.P,J1,10,GND*%
X152137500Y-117925000D03*
%TO.P,J1,11,B7*%
X157862500Y-117925000D03*
%TO.P,J1,12,B6*%
X157862500Y-117275000D03*
%TO.P,J1,13,B5*%
X157862500Y-116625000D03*
%TO.P,J1,14,B4*%
X157862500Y-115975000D03*
%TO.P,J1,15,B3*%
X157862500Y-115325000D03*
%TO.P,J1,16,B2*%
X157862500Y-114675000D03*
%TO.P,J1,17,B1*%
X157862500Y-114025000D03*
%TO.P,J1,18,B0*%
X157862500Y-113375000D03*
%TO.P,J1,19,CE*%
X157862500Y-112725000D03*
%TO.P,J1,20,VCC*%
X157862500Y-112075000D03*
%TD*%
D13*
%TO.P,U1,1*%
%TO.N,N/C*%
X154050000Y-105250000D03*
%TO.P,U1,2*%
X154050000Y-105900000D03*
%TO.P,U1,3*%
X154050000Y-106550000D03*
%TO.P,U1,4*%
X155950000Y-106550000D03*
%TO.P,U1,5*%
X155950000Y-105900000D03*
%TO.P,U1,6*%
X155950000Y-105250000D03*
%TD*%
%TO.P,U1,1*%
%TO.N,N/C*%
X130050000Y-113250000D03*
%TO.P,U1,2*%
X130050000Y-113900000D03*
%TO.P,U1,3*%
X130050000Y-114550000D03*
%TO.P,U1,4*%
X131950000Y-114550000D03*
%TO.P,U1,5*%
X131950000Y-113900000D03*
%TO.P,U1,6*%
X131950000Y-113250000D03*
%TD*%
D11*
%TO.P,R1,1*%
%TO.N,N/C*%
X147490000Y-120000000D03*
%TO.P,R1,2*%
X148510000Y-120000000D03*
%TD*%
%TO.P,R1,1*%
%TO.N,N/C*%
X163490000Y-104000000D03*
%TO.P,R1,2*%
X164510000Y-104000000D03*
%TD*%
D10*
%TO.P,C1,1*%
%TO.N,N/C*%
X162480000Y-120000000D03*
%TO.P,C1,2*%
X161520000Y-120000000D03*
%TD*%
D13*
%TO.P,U1,1*%
%TO.N,N/C*%
X154050000Y-121250000D03*
%TO.P,U1,2*%
X154050000Y-121900000D03*
%TO.P,U1,3*%
X154050000Y-122550000D03*
%TO.P,U1,4*%
X155950000Y-122550000D03*
%TO.P,U1,5*%
X155950000Y-121900000D03*
%TO.P,U1,6*%
X155950000Y-121250000D03*
%TD*%
D12*
%TO.P,J1,1,A->B*%
%TO.N,N/C*%
X152137500Y-104075000D03*
%TO.P,J1,2,A0*%
X152137500Y-104725000D03*
%TO.P,J1,3,A1*%
X152137500Y-105375000D03*
%TO.P,J1,4,A2*%
X152137500Y-106025000D03*
%TO.P,J1,5,A3*%
X152137500Y-106675000D03*
%TO.P,J1,6,A4*%
X152137500Y-107325000D03*
%TO.P,J1,7,A5*%
X152137500Y-107975000D03*
%TO.P,J1,8,A6*%
X152137500Y-108625000D03*
%TO.P,J1,9,A7*%
X152137500Y-109275000D03*
%TO.P,J1,10,GND*%
X152137500Y-109925000D03*
%TO.P,J1,11,B7*%
X157862500Y-109925000D03*
%TO.P,J1,12,B6*%
X157862500Y-109275000D03*
%TO.P,J1,13,B5*%
X157862500Y-108625000D03*
%TO.P,J1,14,B4*%
X157862500Y-107975000D03*
%TO.P,J1,15,B3*%
X157862500Y-107325000D03*
%TO.P,J1,16,B2*%
X157862500Y-106675000D03*
%TO.P,J1,17,B1*%
X157862500Y-106025000D03*
%TO.P,J1,18,B0*%
X157862500Y-105375000D03*
%TO.P,J1,19,CE*%
X157862500Y-104725000D03*
%TO.P,J1,20,VCC*%
X157862500Y-104075000D03*
%TD*%
D13*
%TO.P,U2,1*%
%TO.N,N/C*%
X138050000Y-116050000D03*
%TO.P,U2,2*%
X138050000Y-116700000D03*
%TO.P,U2,3*%
X138050000Y-117350000D03*
%TO.P,U2,4*%
X139950000Y-117350000D03*
%TO.P,U2,5*%
X139950000Y-116700000D03*
%TO.P,U2,6*%
X139950000Y-116050000D03*
%TD*%
D11*
%TO.P,R1,1*%
%TO.N,N/C*%
X139490000Y-112000000D03*
%TO.P,R1,2*%
X140510000Y-112000000D03*
%TD*%
D13*
%TO.P,U1,1*%
%TO.N,N/C*%
X146050000Y-113250000D03*
%TO.P,U1,2*%
X146050000Y-113900000D03*
%TO.P,U1,3*%
X146050000Y-114550000D03*
%TO.P,U1,4*%
X147950000Y-114550000D03*
%TO.P,U1,5*%
X147950000Y-113900000D03*
%TO.P,U1,6*%
X147950000Y-113250000D03*
%TD*%
D11*
%TO.P,R1,1*%
%TO.N,N/C*%
X131490000Y-120000000D03*
%TO.P,R1,2*%
X132510000Y-120000000D03*
%TD*%
D13*
%TO.P,U1,1*%
%TO.N,N/C*%
X138050000Y-113250000D03*
%TO.P,U1,2*%
X138050000Y-113900000D03*
%TO.P,U1,3*%
X138050000Y-114550000D03*
%TO.P,U1,4*%
X139950000Y-114550000D03*
%TO.P,U1,5*%
X139950000Y-113900000D03*
%TO.P,U1,6*%
X139950000Y-113250000D03*
%TD*%
%TO.P,U2,1*%
%TO.N,N/C*%
X154050000Y-116050000D03*
%TO.P,U2,2*%
X154050000Y-116700000D03*
%TO.P,U2,3*%
X154050000Y-117350000D03*
%TO.P,U2,4*%
X155950000Y-117350000D03*
%TO.P,U2,5*%
X155950000Y-116700000D03*
%TO.P,U2,6*%
X155950000Y-116050000D03*
%TD*%
D10*
%TO.P,C1,1*%
%TO.N,N/C*%
X146480000Y-120000000D03*
%TO.P,C1,2*%
X145520000Y-120000000D03*
%TD*%
D11*
%TO.P,R1,1*%
%TO.N,N/C*%
X147490000Y-112000000D03*
%TO.P,R1,2*%
X148510000Y-112000000D03*
%TD*%
D10*
%TO.P,C1,1*%
%TO.N,N/C*%
X146480000Y-112000000D03*
%TO.P,C1,2*%
X145520000Y-112000000D03*
%TD*%
%TO.P,C1,1*%
%TO.N,N/C*%
X154480000Y-112000000D03*
%TO.P,C1,2*%
X153520000Y-112000000D03*
%TD*%
D13*
%TO.P,U2,1*%
%TO.N,N/C*%
X154050000Y-108050000D03*
%TO.P,U2,2*%
X154050000Y-108700000D03*
%TO.P,U2,3*%
X154050000Y-109350000D03*
%TO.P,U2,4*%
X155950000Y-109350000D03*
%TO.P,U2,5*%
X155950000Y-108700000D03*
%TO.P,U2,6*%
X155950000Y-108050000D03*
%TD*%
D10*
%TO.P,C1,1*%
%TO.N,N/C*%
X130480000Y-112000000D03*
%TO.P,C1,2*%
X129520000Y-112000000D03*
%TD*%
%TO.P,C1,1*%
%TO.N,N/C*%
X130480000Y-104000000D03*
%TO.P,C1,2*%
X129520000Y-104000000D03*
%TD*%
D13*
%TO.P,U1,1*%
%TO.N,N/C*%
X162050000Y-113250000D03*
%TO.P,U1,2*%
X162050000Y-113900000D03*
%TO.P,U1,3*%
X162050000Y-114550000D03*
%TO.P,U1,4*%
X163950000Y-114550000D03*
%TO.P,U1,5*%
X163950000Y-113900000D03*
%TO.P,U1,6*%
X163950000Y-113250000D03*
%TD*%
D12*
%TO.P,J1,1,A->B*%
%TO.N,N/C*%
X160137500Y-104075000D03*
%TO.P,J1,2,A0*%
X160137500Y-104725000D03*
%TO.P,J1,3,A1*%
X160137500Y-105375000D03*
%TO.P,J1,4,A2*%
X160137500Y-106025000D03*
%TO.P,J1,5,A3*%
X160137500Y-106675000D03*
%TO.P,J1,6,A4*%
X160137500Y-107325000D03*
%TO.P,J1,7,A5*%
X160137500Y-107975000D03*
%TO.P,J1,8,A6*%
X160137500Y-108625000D03*
%TO.P,J1,9,A7*%
X160137500Y-109275000D03*
%TO.P,J1,10,GND*%
X160137500Y-109925000D03*
%TO.P,J1,11,B7*%
X165862500Y-109925000D03*
%TO.P,J1,12,B6*%
X165862500Y-109275000D03*
%TO.P,J1,13,B5*%
X165862500Y-108625000D03*
%TO.P,J1,14,B4*%
X165862500Y-107975000D03*
%TO.P,J1,15,B3*%
X165862500Y-107325000D03*
%TO.P,J1,16,B2*%
X165862500Y-106675000D03*
%TO.P,J1,17,B1*%
X165862500Y-106025000D03*
%TO.P,J1,18,B0*%
X165862500Y-105375000D03*
%TO.P,J1,19,CE*%
X165862500Y-104725000D03*
%TO.P,J1,20,VCC*%
X165862500Y-104075000D03*
%TD*%
D10*
%TO.P,C1,1*%
%TO.N,N/C*%
X146480000Y-104000000D03*
%TO.P,C1,2*%
X145520000Y-104000000D03*
%TD*%
D13*
%TO.P,U1,1*%
%TO.N,N/C*%
X130050000Y-105250000D03*
%TO.P,U1,2*%
X130050000Y-105900000D03*
%TO.P,U1,3*%
X130050000Y-106550000D03*
%TO.P,U1,4*%
X131950000Y-106550000D03*
%TO.P,U1,5*%
X131950000Y-105900000D03*
%TO.P,U1,6*%
X131950000Y-105250000D03*
%TD*%
D12*
%TO.P,J1,1,A->B*%
%TO.N,N/C*%
X144137500Y-120075000D03*
%TO.P,J1,2,A0*%
X144137500Y-120725000D03*
%TO.P,J1,3,A1*%
X144137500Y-121375000D03*
%TO.P,J1,4,A2*%
X144137500Y-122025000D03*
%TO.P,J1,5,A3*%
X144137500Y-122675000D03*
%TO.P,J1,6,A4*%
X144137500Y-123325000D03*
%TO.P,J1,7,A5*%
X144137500Y-123975000D03*
%TO.P,J1,8,A6*%
X144137500Y-124625000D03*
%TO.P,J1,9,A7*%
X144137500Y-125275000D03*
%TO.P,J1,10,GND*%
X144137500Y-125925000D03*
%TO.P,J1,11,B7*%
X149862500Y-125925000D03*
%TO.P,J1,12,B6*%
X149862500Y-125275000D03*
%TO.P,J1,13,B5*%
X149862500Y-124625000D03*
%TO.P,J1,14,B4*%
X149862500Y-123975000D03*
%TO.P,J1,15,B3*%
X149862500Y-123325000D03*
%TO.P,J1,16,B2*%
X149862500Y-122675000D03*
%TO.P,J1,17,B1*%
X149862500Y-122025000D03*
%TO.P,J1,18,B0*%
X149862500Y-121375000D03*
%TO.P,J1,19,CE*%
X149862500Y-120725000D03*
%TO.P,J1,20,VCC*%
X149862500Y-120075000D03*
%TD*%
D13*
%TO.P,U1,1*%
%TO.N,N/C*%
X146050000Y-105250000D03*
%TO.P,U1,2*%
X146050000Y-105900000D03*
%TO.P,U1,3*%
X146050000Y-106550000D03*
%TO.P,U1,4*%
X147950000Y-106550000D03*
%TO.P,U1,5*%
X147950000Y-105900000D03*
%TO.P,U1,6*%
X147950000Y-105250000D03*
%TD*%
D11*
%TO.P,R1,1*%
%TO.N,N/C*%
X155490000Y-104000000D03*
%TO.P,R1,2*%
X156510000Y-104000000D03*
%TD*%
D13*
%TO.P,U2,1*%
%TO.N,N/C*%
X146050000Y-124050000D03*
%TO.P,U2,2*%
X146050000Y-124700000D03*
%TO.P,U2,3*%
X146050000Y-125350000D03*
%TO.P,U2,4*%
X147950000Y-125350000D03*
%TO.P,U2,5*%
X147950000Y-124700000D03*
%TO.P,U2,6*%
X147950000Y-124050000D03*
%TD*%
%TO.P,U1,1*%
%TO.N,N/C*%
X130050000Y-121250000D03*
%TO.P,U1,2*%
X130050000Y-121900000D03*
%TO.P,U1,3*%
X130050000Y-122550000D03*
%TO.P,U1,4*%
X131950000Y-122550000D03*
%TO.P,U1,5*%
X131950000Y-121900000D03*
%TO.P,U1,6*%
X131950000Y-121250000D03*
%TD*%
D10*
%TO.P,C1,1*%
%TO.N,N/C*%
X154480000Y-104000000D03*
%TO.P,C1,2*%
X153520000Y-104000000D03*
%TD*%
D13*
%TO.P,U2,1*%
%TO.N,N/C*%
X146050000Y-108050000D03*
%TO.P,U2,2*%
X146050000Y-108700000D03*
%TO.P,U2,3*%
X146050000Y-109350000D03*
%TO.P,U2,4*%
X147950000Y-109350000D03*
%TO.P,U2,5*%
X147950000Y-108700000D03*
%TO.P,U2,6*%
X147950000Y-108050000D03*
%TD*%
D12*
%TO.P,J1,1,A->B*%
%TO.N,N/C*%
X144137500Y-112075000D03*
%TO.P,J1,2,A0*%
X144137500Y-112725000D03*
%TO.P,J1,3,A1*%
X144137500Y-113375000D03*
%TO.P,J1,4,A2*%
X144137500Y-114025000D03*
%TO.P,J1,5,A3*%
X144137500Y-114675000D03*
%TO.P,J1,6,A4*%
X144137500Y-115325000D03*
%TO.P,J1,7,A5*%
X144137500Y-115975000D03*
%TO.P,J1,8,A6*%
X144137500Y-116625000D03*
%TO.P,J1,9,A7*%
X144137500Y-117275000D03*
%TO.P,J1,10,GND*%
X144137500Y-117925000D03*
%TO.P,J1,11,B7*%
X149862500Y-117925000D03*
%TO.P,J1,12,B6*%
X149862500Y-117275000D03*
%TO.P,J1,13,B5*%
X149862500Y-116625000D03*
%TO.P,J1,14,B4*%
X149862500Y-115975000D03*
%TO.P,J1,15,B3*%
X149862500Y-115325000D03*
%TO.P,J1,16,B2*%
X149862500Y-114675000D03*
%TO.P,J1,17,B1*%
X149862500Y-114025000D03*
%TO.P,J1,18,B0*%
X149862500Y-113375000D03*
%TO.P,J1,19,CE*%
X149862500Y-112725000D03*
%TO.P,J1,20,VCC*%
X149862500Y-112075000D03*
%TD*%
D10*
%TO.P,C1,1*%
%TO.N,N/C*%
X154480000Y-120000000D03*
%TO.P,C1,2*%
X153520000Y-120000000D03*
%TD*%
D12*
%TO.P,J1,1,A->B*%
%TO.N,N/C*%
X128137500Y-112075000D03*
%TO.P,J1,2,A0*%
X128137500Y-112725000D03*
%TO.P,J1,3,A1*%
X128137500Y-113375000D03*
%TO.P,J1,4,A2*%
X128137500Y-114025000D03*
%TO.P,J1,5,A3*%
X128137500Y-114675000D03*
%TO.P,J1,6,A4*%
X128137500Y-115325000D03*
%TO.P,J1,7,A5*%
X128137500Y-115975000D03*
%TO.P,J1,8,A6*%
X128137500Y-116625000D03*
%TO.P,J1,9,A7*%
X128137500Y-117275000D03*
%TO.P,J1,10,GND*%
X128137500Y-117925000D03*
%TO.P,J1,11,B7*%
X133862500Y-117925000D03*
%TO.P,J1,12,B6*%
X133862500Y-117275000D03*
%TO.P,J1,13,B5*%
X133862500Y-116625000D03*
%TO.P,J1,14,B4*%
X133862500Y-115975000D03*
%TO.P,J1,15,B3*%
X133862500Y-115325000D03*
%TO.P,J1,16,B2*%
X133862500Y-114675000D03*
%TO.P,J1,17,B1*%
X133862500Y-114025000D03*
%TO.P,J1,18,B0*%
X133862500Y-113375000D03*
%TO.P,J1,19,CE*%
X133862500Y-112725000D03*
%TO.P,J1,20,VCC*%
X133862500Y-112075000D03*
%TD*%
%TO.P,J1,1,A->B*%
%TO.N,N/C*%
X160137500Y-112075000D03*
%TO.P,J1,2,A0*%
X160137500Y-112725000D03*
%TO.P,J1,3,A1*%
X160137500Y-113375000D03*
%TO.P,J1,4,A2*%
X160137500Y-114025000D03*
%TO.P,J1,5,A3*%
X160137500Y-114675000D03*
%TO.P,J1,6,A4*%
X160137500Y-115325000D03*
%TO.P,J1,7,A5*%
X160137500Y-115975000D03*
%TO.P,J1,8,A6*%
X160137500Y-116625000D03*
%TO.P,J1,9,A7*%
X160137500Y-117275000D03*
%TO.P,J1,10,GND*%
X160137500Y-117925000D03*
%TO.P,J1,11,B7*%
X165862500Y-117925000D03*
%TO.P,J1,12,B6*%
X165862500Y-117275000D03*
%TO.P,J1,13,B5*%
X165862500Y-116625000D03*
%TO.P,J1,14,B4*%
X165862500Y-115975000D03*
%TO.P,J1,15,B3*%
X165862500Y-115325000D03*
%TO.P,J1,16,B2*%
X165862500Y-114675000D03*
%TO.P,J1,17,B1*%
X165862500Y-114025000D03*
%TO.P,J1,18,B0*%
X165862500Y-113375000D03*
%TO.P,J1,19,CE*%
X165862500Y-112725000D03*
%TO.P,J1,20,VCC*%
X165862500Y-112075000D03*
%TD*%
%TO.P,J1,1,A->B*%
%TO.N,N/C*%
X144137500Y-104075000D03*
%TO.P,J1,2,A0*%
X144137500Y-104725000D03*
%TO.P,J1,3,A1*%
X144137500Y-105375000D03*
%TO.P,J1,4,A2*%
X144137500Y-106025000D03*
%TO.P,J1,5,A3*%
X144137500Y-106675000D03*
%TO.P,J1,6,A4*%
X144137500Y-107325000D03*
%TO.P,J1,7,A5*%
X144137500Y-107975000D03*
%TO.P,J1,8,A6*%
X144137500Y-108625000D03*
%TO.P,J1,9,A7*%
X144137500Y-109275000D03*
%TO.P,J1,10,GND*%
X144137500Y-109925000D03*
%TO.P,J1,11,B7*%
X149862500Y-109925000D03*
%TO.P,J1,12,B6*%
X149862500Y-109275000D03*
%TO.P,J1,13,B5*%
X149862500Y-108625000D03*
%TO.P,J1,14,B4*%
X149862500Y-107975000D03*
%TO.P,J1,15,B3*%
X149862500Y-107325000D03*
%TO.P,J1,16,B2*%
X149862500Y-106675000D03*
%TO.P,J1,17,B1*%
X149862500Y-106025000D03*
%TO.P,J1,18,B0*%
X149862500Y-105375000D03*
%TO.P,J1,19,CE*%
X149862500Y-104725000D03*
%TO.P,J1,20,VCC*%
X149862500Y-104075000D03*
%TD*%
D13*
%TO.P,U2,1*%
%TO.N,N/C*%
X138050000Y-108050000D03*
%TO.P,U2,2*%
X138050000Y-108700000D03*
%TO.P,U2,3*%
X138050000Y-109350000D03*
%TO.P,U2,4*%
X139950000Y-109350000D03*
%TO.P,U2,5*%
X139950000Y-108700000D03*
%TO.P,U2,6*%
X139950000Y-108050000D03*
%TD*%
D11*
%TO.P,R1,1*%
%TO.N,N/C*%
X139490000Y-104000000D03*
%TO.P,R1,2*%
X140510000Y-104000000D03*
%TD*%
D13*
%TO.P,U1,1*%
%TO.N,N/C*%
X146050000Y-121250000D03*
%TO.P,U1,2*%
X146050000Y-121900000D03*
%TO.P,U1,3*%
X146050000Y-122550000D03*
%TO.P,U1,4*%
X147950000Y-122550000D03*
%TO.P,U1,5*%
X147950000Y-121900000D03*
%TO.P,U1,6*%
X147950000Y-121250000D03*
%TD*%
D11*
%TO.P,R1,1*%
%TO.N,N/C*%
X147490000Y-104000000D03*
%TO.P,R1,2*%
X148510000Y-104000000D03*
%TD*%
D13*
%TO.P,U2,1*%
%TO.N,N/C*%
X154050000Y-124050000D03*
%TO.P,U2,2*%
X154050000Y-124700000D03*
%TO.P,U2,3*%
X154050000Y-125350000D03*
%TO.P,U2,4*%
X155950000Y-125350000D03*
%TO.P,U2,5*%
X155950000Y-124700000D03*
%TO.P,U2,6*%
X155950000Y-124050000D03*
%TD*%
%TO.P,U1,1*%
%TO.N,N/C*%
X138050000Y-105250000D03*
%TO.P,U1,2*%
X138050000Y-105900000D03*
%TO.P,U1,3*%
X138050000Y-106550000D03*
%TO.P,U1,4*%
X139950000Y-106550000D03*
%TO.P,U1,5*%
X139950000Y-105900000D03*
%TO.P,U1,6*%
X139950000Y-105250000D03*
%TD*%
D12*
%TO.P,J1,1,A->B*%
%TO.N,N/C*%
X136137500Y-104075000D03*
%TO.P,J1,2,A0*%
X136137500Y-104725000D03*
%TO.P,J1,3,A1*%
X136137500Y-105375000D03*
%TO.P,J1,4,A2*%
X136137500Y-106025000D03*
%TO.P,J1,5,A3*%
X136137500Y-106675000D03*
%TO.P,J1,6,A4*%
X136137500Y-107325000D03*
%TO.P,J1,7,A5*%
X136137500Y-107975000D03*
%TO.P,J1,8,A6*%
X136137500Y-108625000D03*
%TO.P,J1,9,A7*%
X136137500Y-109275000D03*
%TO.P,J1,10,GND*%
X136137500Y-109925000D03*
%TO.P,J1,11,B7*%
X141862500Y-109925000D03*
%TO.P,J1,12,B6*%
X141862500Y-109275000D03*
%TO.P,J1,13,B5*%
X141862500Y-108625000D03*
%TO.P,J1,14,B4*%
X141862500Y-107975000D03*
%TO.P,J1,15,B3*%
X141862500Y-107325000D03*
%TO.P,J1,16,B2*%
X141862500Y-106675000D03*
%TO.P,J1,17,B1*%
X141862500Y-106025000D03*
%TO.P,J1,18,B0*%
X141862500Y-105375000D03*
%TO.P,J1,19,CE*%
X141862500Y-104725000D03*
%TO.P,J1,20,VCC*%
X141862500Y-104075000D03*
%TD*%
D11*
%TO.P,R1,1*%
%TO.N,N/C*%
X139490000Y-120000000D03*
%TO.P,R1,2*%
X140510000Y-120000000D03*
%TD*%
D12*
%TO.P,J1,1,A->B*%
%TO.N,N/C*%
X128137500Y-120075000D03*
%TO.P,J1,2,A0*%
X128137500Y-120725000D03*
%TO.P,J1,3,A1*%
X128137500Y-121375000D03*
%TO.P,J1,4,A2*%
X128137500Y-122025000D03*
%TO.P,J1,5,A3*%
X128137500Y-122675000D03*
%TO.P,J1,6,A4*%
X128137500Y-123325000D03*
%TO.P,J1,7,A5*%
X128137500Y-123975000D03*
%TO.P,J1,8,A6*%
X128137500Y-124625000D03*
%TO.P,J1,9,A7*%
X128137500Y-125275000D03*
%TO.P,J1,10,GND*%
X128137500Y-125925000D03*
%TO.P,J1,11,B7*%
X133862500Y-125925000D03*
%TO.P,J1,12,B6*%
X133862500Y-125275000D03*
%TO.P,J1,13,B5*%
X133862500Y-124625000D03*
%TO.P,J1,14,B4*%
X133862500Y-123975000D03*
%TO.P,J1,15,B3*%
X133862500Y-123325000D03*
%TO.P,J1,16,B2*%
X133862500Y-122675000D03*
%TO.P,J1,17,B1*%
X133862500Y-122025000D03*
%TO.P,J1,18,B0*%
X133862500Y-121375000D03*
%TO.P,J1,19,CE*%
X133862500Y-120725000D03*
%TO.P,J1,20,VCC*%
X133862500Y-120075000D03*
%TD*%
D13*
%TO.P,U1,1*%
%TO.N,N/C*%
X162050000Y-105250000D03*
%TO.P,U1,2*%
X162050000Y-105900000D03*
%TO.P,U1,3*%
X162050000Y-106550000D03*
%TO.P,U1,4*%
X163950000Y-106550000D03*
%TO.P,U1,5*%
X163950000Y-105900000D03*
%TO.P,U1,6*%
X163950000Y-105250000D03*
%TD*%
%TO.P,U2,1*%
%TO.N,N/C*%
X162050000Y-124050000D03*
%TO.P,U2,2*%
X162050000Y-124700000D03*
%TO.P,U2,3*%
X162050000Y-125350000D03*
%TO.P,U2,4*%
X163950000Y-125350000D03*
%TO.P,U2,5*%
X163950000Y-124700000D03*
%TO.P,U2,6*%
X163950000Y-124050000D03*
%TD*%
%TO.P,U2,1*%
%TO.N,N/C*%
X130050000Y-108050000D03*
%TO.P,U2,2*%
X130050000Y-108700000D03*
%TO.P,U2,3*%
X130050000Y-109350000D03*
%TO.P,U2,4*%
X131950000Y-109350000D03*
%TO.P,U2,5*%
X131950000Y-108700000D03*
%TO.P,U2,6*%
X131950000Y-108050000D03*
%TD*%
%TO.P,U2,1*%
%TO.N,N/C*%
X162050000Y-116050000D03*
%TO.P,U2,2*%
X162050000Y-116700000D03*
%TO.P,U2,3*%
X162050000Y-117350000D03*
%TO.P,U2,4*%
X163950000Y-117350000D03*
%TO.P,U2,5*%
X163950000Y-116700000D03*
%TO.P,U2,6*%
X163950000Y-116050000D03*
%TD*%
D10*
%TO.P,C1,1*%
%TO.N,N/C*%
X130480000Y-120000000D03*
%TO.P,C1,2*%
X129520000Y-120000000D03*
%TD*%
D11*
%TO.P,R1,1*%
%TO.N,N/C*%
X131490000Y-104000000D03*
%TO.P,R1,2*%
X132510000Y-104000000D03*
%TD*%
%TO.P,R1,1*%
%TO.N,N/C*%
X155490000Y-120000000D03*
%TO.P,R1,2*%
X156510000Y-120000000D03*
%TD*%
%TO.P,R1,1*%
%TO.N,N/C*%
X131490000Y-112000000D03*
%TO.P,R1,2*%
X132510000Y-112000000D03*
%TD*%
D12*
%TO.P,J1,1,A->B*%
%TO.N,N/C*%
X136137500Y-120075000D03*
%TO.P,J1,2,A0*%
X136137500Y-120725000D03*
%TO.P,J1,3,A1*%
X136137500Y-121375000D03*
%TO.P,J1,4,A2*%
X136137500Y-122025000D03*
%TO.P,J1,5,A3*%
X136137500Y-122675000D03*
%TO.P,J1,6,A4*%
X136137500Y-123325000D03*
%TO.P,J1,7,A5*%
X136137500Y-123975000D03*
%TO.P,J1,8,A6*%
X136137500Y-124625000D03*
%TO.P,J1,9,A7*%
X136137500Y-125275000D03*
%TO.P,J1,10,GND*%
X136137500Y-125925000D03*
%TO.P,J1,11,B7*%
X141862500Y-125925000D03*
%TO.P,J1,12,B6*%
X141862500Y-125275000D03*
%TO.P,J1,13,B5*%
X141862500Y-124625000D03*
%TO.P,J1,14,B4*%
X141862500Y-123975000D03*
%TO.P,J1,15,B3*%
X141862500Y-123325000D03*
%TO.P,J1,16,B2*%
X141862500Y-122675000D03*
%TO.P,J1,17,B1*%
X141862500Y-122025000D03*
%TO.P,J1,18,B0*%
X141862500Y-121375000D03*
%TO.P,J1,19,CE*%
X141862500Y-120725000D03*
%TO.P,J1,20,VCC*%
X141862500Y-120075000D03*
%TD*%
D10*
%TO.P,C1,1*%
%TO.N,N/C*%
X162480000Y-104000000D03*
%TO.P,C1,2*%
X161520000Y-104000000D03*
%TD*%
%TO.P,C1,1*%
%TO.N,N/C*%
X162480000Y-112000000D03*
%TO.P,C1,2*%
X161520000Y-112000000D03*
%TD*%
D11*
%TO.P,R1,1*%
%TO.N,N/C*%
X155490000Y-112000000D03*
%TO.P,R1,2*%
X156510000Y-112000000D03*
%TD*%
D13*
%TO.P,U1,1*%
%TO.N,N/C*%
X138050000Y-121250000D03*
%TO.P,U1,2*%
X138050000Y-121900000D03*
%TO.P,U1,3*%
X138050000Y-122550000D03*
%TO.P,U1,4*%
X139950000Y-122550000D03*
%TO.P,U1,5*%
X139950000Y-121900000D03*
%TO.P,U1,6*%
X139950000Y-121250000D03*
%TD*%
%TO.P,U2,1*%
%TO.N,N/C*%
X138050000Y-124050000D03*
%TO.P,U2,2*%
X138050000Y-124700000D03*
%TO.P,U2,3*%
X138050000Y-125350000D03*
%TO.P,U2,4*%
X139950000Y-125350000D03*
%TO.P,U2,5*%
X139950000Y-124700000D03*
%TO.P,U2,6*%
X139950000Y-124050000D03*
%TD*%
%TO.P,U2,1*%
%TO.N,N/C*%
X162050000Y-108050000D03*
%TO.P,U2,2*%
X162050000Y-108700000D03*
%TO.P,U2,3*%
X162050000Y-109350000D03*
%TO.P,U2,4*%
X163950000Y-109350000D03*
%TO.P,U2,5*%
X163950000Y-108700000D03*
%TO.P,U2,6*%
X163950000Y-108050000D03*
%TD*%
%TO.P,U2,1*%
%TO.N,N/C*%
X130050000Y-116050000D03*
%TO.P,U2,2*%
X130050000Y-116700000D03*
%TO.P,U2,3*%
X130050000Y-117350000D03*
%TO.P,U2,4*%
X131950000Y-117350000D03*
%TO.P,U2,5*%
X131950000Y-116700000D03*
%TO.P,U2,6*%
X131950000Y-116050000D03*
%TD*%
D12*
%TO.P,J1,1,A->B*%
%TO.N,N/C*%
X160137500Y-120075000D03*
%TO.P,J1,2,A0*%
X160137500Y-120725000D03*
%TO.P,J1,3,A1*%
X160137500Y-121375000D03*
%TO.P,J1,4,A2*%
X160137500Y-122025000D03*
%TO.P,J1,5,A3*%
X160137500Y-122675000D03*
%TO.P,J1,6,A4*%
X160137500Y-123325000D03*
%TO.P,J1,7,A5*%
X160137500Y-123975000D03*
%TO.P,J1,8,A6*%
X160137500Y-124625000D03*
%TO.P,J1,9,A7*%
X160137500Y-125275000D03*
%TO.P,J1,10,GND*%
X160137500Y-125925000D03*
%TO.P,J1,11,B7*%
X165862500Y-125925000D03*
%TO.P,J1,12,B6*%
X165862500Y-125275000D03*
%TO.P,J1,13,B5*%
X165862500Y-124625000D03*
%TO.P,J1,14,B4*%
X165862500Y-123975000D03*
%TO.P,J1,15,B3*%
X165862500Y-123325000D03*
%TO.P,J1,16,B2*%
X165862500Y-122675000D03*
%TO.P,J1,17,B1*%
X165862500Y-122025000D03*
%TO.P,J1,18,B0*%
X165862500Y-121375000D03*
%TO.P,J1,19,CE*%
X165862500Y-120725000D03*
%TO.P,J1,20,VCC*%
X165862500Y-120075000D03*
%TD*%
D14*
%TO.N,*%
X156625000Y-115975000D02*
X156550000Y-116050000D01*
X132550000Y-125350000D02*
X132625000Y-125275000D01*
X162700000Y-124700000D02*
X162050000Y-124700000D01*
X139950000Y-121900000D02*
X139300000Y-121900000D01*
X137450000Y-125350000D02*
X138050000Y-125350000D01*
X162700000Y-117700000D02*
X162700000Y-116700000D01*
X147000000Y-104500000D02*
X147300000Y-104800000D01*
X161325000Y-122675000D02*
X160137500Y-122675000D01*
X163950000Y-116700000D02*
X163500000Y-116700000D01*
X140550000Y-121250000D02*
X139950000Y-121250000D01*
X162480000Y-112000000D02*
X163000000Y-112000000D01*
X132550000Y-116050000D02*
X131950000Y-116050000D01*
X148550000Y-108050000D02*
X147950000Y-108050000D01*
X152137500Y-123975000D02*
X153375000Y-123975000D01*
X155300000Y-120800000D02*
X155300000Y-121900000D01*
X138480000Y-120000000D02*
X139000000Y-120000000D01*
X133862500Y-123975000D02*
X132625000Y-123975000D01*
X132675000Y-121375000D02*
X132550000Y-121250000D01*
X155000000Y-104000000D02*
X155200000Y-104000000D01*
X148550000Y-117350000D02*
X148625000Y-117275000D01*
X153520000Y-104000000D02*
X153520000Y-104120000D01*
X147200000Y-112000000D02*
X147490000Y-112000000D01*
X161375000Y-117275000D02*
X161450000Y-117350000D01*
X147500000Y-108700000D02*
X147300000Y-108500000D01*
X160137500Y-115975000D02*
X161375000Y-115975000D01*
X149862500Y-115975000D02*
X148625000Y-115975000D01*
X154700000Y-116700000D02*
X154700000Y-113900000D01*
X129450000Y-122550000D02*
X129325000Y-122675000D01*
X146050000Y-114550000D02*
X145450000Y-114550000D01*
X147000000Y-112000000D02*
X147000000Y-112500000D01*
X155950000Y-113900000D02*
X155300000Y-113900000D01*
X133862500Y-122675000D02*
X132675000Y-122675000D01*
X146700000Y-108700000D02*
X146050000Y-108700000D01*
X146050000Y-124050000D02*
X145450000Y-124050000D01*
X138050000Y-121250000D02*
X137450000Y-121250000D01*
X129450000Y-117350000D02*
X130050000Y-117350000D01*
X152137500Y-117925000D02*
X154475000Y-117925000D01*
X146050000Y-113250000D02*
X145450000Y-113250000D01*
X163000000Y-104500000D02*
X163300000Y-104800000D01*
X149862500Y-104075000D02*
X148585000Y-104075000D01*
X164625000Y-123975000D02*
X164550000Y-124050000D01*
X145450000Y-117350000D02*
X146050000Y-117350000D01*
X138700000Y-125700000D02*
X138700000Y-124700000D01*
X163950000Y-108700000D02*
X163500000Y-108700000D01*
X130100000Y-112700000D02*
X130500000Y-112700000D01*
X156550000Y-105250000D02*
X155950000Y-105250000D01*
X162700000Y-108700000D02*
X162700000Y-105900000D01*
X140675000Y-113375000D02*
X140550000Y-113250000D01*
X148625000Y-123975000D02*
X148550000Y-124050000D01*
X154700000Y-112900000D02*
X154700000Y-113900000D01*
X141862500Y-123975000D02*
X140625000Y-123975000D01*
X140550000Y-116050000D02*
X139950000Y-116050000D01*
X138700000Y-113900000D02*
X138050000Y-113900000D01*
X157862500Y-105375000D02*
X156675000Y-105375000D01*
X137325000Y-106675000D02*
X136137500Y-106675000D01*
X162700000Y-109700000D02*
X162700000Y-108700000D01*
X128137500Y-115975000D02*
X129375000Y-115975000D01*
X164585000Y-120075000D02*
X164510000Y-120000000D01*
X162475000Y-117925000D02*
X162700000Y-117700000D01*
X155000000Y-120000000D02*
X155000000Y-120500000D01*
X148550000Y-106550000D02*
X147950000Y-106550000D01*
X164625000Y-107975000D02*
X164550000Y-108050000D01*
X153325000Y-105375000D02*
X152137500Y-105375000D01*
X155950000Y-116700000D02*
X155500000Y-116700000D01*
X139000000Y-112500000D02*
X139300000Y-112800000D01*
X146700000Y-125700000D02*
X146700000Y-124700000D01*
X154700000Y-121900000D02*
X154050000Y-121900000D01*
X162475000Y-109925000D02*
X162700000Y-109700000D01*
X131000000Y-104000000D02*
X131000000Y-104500000D01*
X148675000Y-114675000D02*
X148550000Y-114550000D01*
X165862500Y-114675000D02*
X164675000Y-114675000D01*
X164675000Y-121375000D02*
X164550000Y-121250000D01*
X163200000Y-104000000D02*
X163490000Y-104000000D01*
X133862500Y-115975000D02*
X132625000Y-115975000D01*
X165862500Y-106675000D02*
X164675000Y-106675000D01*
X137375000Y-109275000D02*
X137450000Y-109350000D01*
X146050000Y-116050000D02*
X145450000Y-116050000D01*
X154100000Y-120700000D02*
X154500000Y-120700000D01*
X148550000Y-113250000D02*
X147950000Y-113250000D01*
X136137500Y-117925000D02*
X138475000Y-117925000D01*
X161450000Y-105250000D02*
X161325000Y-105375000D01*
X156550000Y-108050000D02*
X155950000Y-108050000D01*
X129450000Y-105250000D02*
X129325000Y-105375000D01*
X144137500Y-109275000D02*
X145375000Y-109275000D01*
X153450000Y-114550000D02*
X153325000Y-114675000D01*
X132550000Y-114550000D02*
X131950000Y-114550000D01*
X154475000Y-117925000D02*
X154700000Y-117700000D01*
X153325000Y-113375000D02*
X152137500Y-113375000D01*
X131000000Y-112500000D02*
X131300000Y-112800000D01*
X154700000Y-104900000D02*
X154700000Y-105900000D01*
X162700000Y-112900000D02*
X162700000Y-113900000D01*
X152137500Y-109925000D02*
X154475000Y-109925000D01*
X161450000Y-113250000D02*
X161325000Y-113375000D01*
X130700000Y-108700000D02*
X130050000Y-108700000D01*
X156550000Y-116050000D02*
X155950000Y-116050000D01*
X155300000Y-112800000D02*
X155300000Y-113900000D01*
X154050000Y-122550000D02*
X153450000Y-122550000D01*
X146475000Y-109925000D02*
X146700000Y-109700000D01*
X139300000Y-124500000D02*
X139300000Y-121900000D01*
X140675000Y-106675000D02*
X140550000Y-106550000D01*
X164625000Y-125275000D02*
X165862500Y-125275000D01*
X129520000Y-120000000D02*
X129520000Y-120120000D01*
X163950000Y-124700000D02*
X163500000Y-124700000D01*
X156585000Y-104075000D02*
X156510000Y-104000000D01*
X146500000Y-104700000D02*
X146700000Y-104900000D01*
X138500000Y-112700000D02*
X138700000Y-112900000D01*
X154700000Y-120900000D02*
X154700000Y-121900000D01*
X155950000Y-124700000D02*
X155500000Y-124700000D01*
X147950000Y-109350000D02*
X148550000Y-109350000D01*
X146100000Y-112700000D02*
X146500000Y-112700000D01*
X140550000Y-122550000D02*
X139950000Y-122550000D01*
X154700000Y-113900000D02*
X154050000Y-113900000D01*
X130050000Y-116050000D02*
X129450000Y-116050000D01*
X153325000Y-121375000D02*
X152137500Y-121375000D01*
X133862500Y-120075000D02*
X132585000Y-120075000D01*
X130700000Y-116700000D02*
X130700000Y-113900000D01*
X132585000Y-120075000D02*
X132510000Y-120000000D01*
X140550000Y-113250000D02*
X139950000Y-113250000D01*
X147950000Y-117350000D02*
X148550000Y-117350000D01*
X138480000Y-104000000D02*
X139000000Y-104000000D01*
X145325000Y-114675000D02*
X144137500Y-114675000D01*
X165862500Y-113375000D02*
X164675000Y-113375000D01*
X137450000Y-114550000D02*
X137325000Y-114675000D01*
X155200000Y-120000000D02*
X155490000Y-120000000D01*
X145520000Y-104000000D02*
X145520000Y-104120000D01*
X148550000Y-116050000D02*
X147950000Y-116050000D01*
X161450000Y-122550000D02*
X161325000Y-122675000D01*
X147300000Y-112800000D02*
X147300000Y-113900000D01*
X163300000Y-120800000D02*
X163300000Y-121900000D01*
X163200000Y-120000000D02*
X163490000Y-120000000D01*
X130050000Y-113250000D02*
X129450000Y-113250000D01*
X131200000Y-104000000D02*
X131490000Y-104000000D01*
X136137500Y-117275000D02*
X137375000Y-117275000D01*
X147950000Y-108700000D02*
X147500000Y-108700000D01*
X139200000Y-104000000D02*
X139490000Y-104000000D01*
X153325000Y-106675000D02*
X152137500Y-106675000D01*
X138500000Y-104700000D02*
X138700000Y-104900000D01*
X133862500Y-121375000D02*
X132675000Y-121375000D01*
X145325000Y-105375000D02*
X144137500Y-105375000D01*
X130480000Y-104000000D02*
X131000000Y-104000000D01*
X137520000Y-104000000D02*
X137520000Y-104120000D01*
X137325000Y-121375000D02*
X136137500Y-121375000D01*
X146050000Y-105250000D02*
X145450000Y-105250000D01*
X148625000Y-117275000D02*
X149862500Y-117275000D01*
X149862500Y-106675000D02*
X148675000Y-106675000D01*
X165862500Y-122675000D02*
X164675000Y-122675000D01*
X136137500Y-109275000D02*
X137375000Y-109275000D01*
X139500000Y-116700000D02*
X139300000Y-116500000D01*
X164550000Y-108050000D02*
X163950000Y-108050000D01*
X129520000Y-104120000D02*
X130100000Y-104700000D01*
X161520000Y-104000000D02*
X161520000Y-104120000D01*
X138475000Y-125925000D02*
X138700000Y-125700000D01*
X130475000Y-117925000D02*
X130700000Y-117700000D01*
X154500000Y-120700000D02*
X154700000Y-120900000D01*
X131950000Y-121900000D02*
X131300000Y-121900000D01*
X161450000Y-121250000D02*
X161325000Y-121375000D01*
X162050000Y-122550000D02*
X161450000Y-122550000D01*
X137520000Y-120120000D02*
X138100000Y-120700000D01*
X129520000Y-104000000D02*
X129520000Y-104120000D01*
X148585000Y-112075000D02*
X148510000Y-112000000D01*
X132675000Y-122675000D02*
X132550000Y-122550000D01*
X131300000Y-112800000D02*
X131300000Y-113900000D01*
X157862500Y-112075000D02*
X156585000Y-112075000D01*
X140550000Y-105250000D02*
X139950000Y-105250000D01*
X162700000Y-113900000D02*
X162050000Y-113900000D01*
X153520000Y-120120000D02*
X154100000Y-120700000D01*
X144137500Y-125275000D02*
X145375000Y-125275000D01*
X137450000Y-105250000D02*
X137325000Y-105375000D01*
X133862500Y-107975000D02*
X132625000Y-107975000D01*
X162100000Y-104700000D02*
X162500000Y-104700000D01*
X137520000Y-104120000D02*
X138100000Y-104700000D01*
X164675000Y-122675000D02*
X164550000Y-122550000D01*
X146700000Y-104900000D02*
X146700000Y-105900000D01*
X128137500Y-123975000D02*
X129375000Y-123975000D01*
X165862500Y-107975000D02*
X164625000Y-107975000D01*
X154700000Y-125700000D02*
X154700000Y-124700000D01*
X133862500Y-112075000D02*
X132585000Y-112075000D01*
X141862500Y-105375000D02*
X140675000Y-105375000D01*
X153450000Y-116050000D02*
X153375000Y-115975000D01*
X156625000Y-117275000D02*
X157862500Y-117275000D01*
X165862500Y-104075000D02*
X164585000Y-104075000D01*
X137325000Y-122675000D02*
X136137500Y-122675000D01*
X156675000Y-106675000D02*
X156550000Y-106550000D01*
X157862500Y-121375000D02*
X156675000Y-121375000D01*
X145375000Y-125275000D02*
X145450000Y-125350000D01*
X162100000Y-112700000D02*
X162500000Y-112700000D01*
X146700000Y-124700000D02*
X146050000Y-124700000D01*
X132550000Y-109350000D02*
X132625000Y-109275000D01*
X132625000Y-107975000D02*
X132550000Y-108050000D01*
X163000000Y-120000000D02*
X163200000Y-120000000D01*
X156675000Y-121375000D02*
X156550000Y-121250000D01*
X149862500Y-107975000D02*
X148625000Y-107975000D01*
X139950000Y-108700000D02*
X139500000Y-108700000D01*
X153375000Y-125275000D02*
X153450000Y-125350000D01*
X138700000Y-124700000D02*
X138050000Y-124700000D01*
X163000000Y-112000000D02*
X163200000Y-112000000D01*
X129375000Y-117275000D02*
X129450000Y-117350000D01*
X130700000Y-105900000D02*
X130050000Y-105900000D01*
X146700000Y-120900000D02*
X146700000Y-121900000D01*
X138475000Y-109925000D02*
X138700000Y-109700000D01*
X138050000Y-113250000D02*
X137450000Y-113250000D01*
X132550000Y-113250000D02*
X131950000Y-113250000D01*
X156625000Y-123975000D02*
X156550000Y-124050000D01*
X163300000Y-108500000D02*
X163300000Y-105900000D01*
X145450000Y-116050000D02*
X145375000Y-115975000D01*
X157862500Y-120075000D02*
X156585000Y-120075000D01*
X161450000Y-108050000D02*
X161375000Y-107975000D01*
X130700000Y-124700000D02*
X130050000Y-124700000D01*
X140625000Y-107975000D02*
X140550000Y-108050000D01*
X161450000Y-117350000D02*
X162050000Y-117350000D01*
X163500000Y-116700000D02*
X163300000Y-116500000D01*
X137520000Y-112120000D02*
X138100000Y-112700000D01*
X154050000Y-105250000D02*
X153450000Y-105250000D01*
X137325000Y-105375000D02*
X136137500Y-105375000D01*
X136137500Y-125925000D02*
X138475000Y-125925000D01*
X160137500Y-125275000D02*
X161375000Y-125275000D01*
X155500000Y-124700000D02*
X155300000Y-124500000D01*
X162500000Y-120700000D02*
X162700000Y-120900000D01*
X139950000Y-117350000D02*
X140550000Y-117350000D01*
X130475000Y-109925000D02*
X130700000Y-109700000D01*
X162500000Y-112700000D02*
X162700000Y-112900000D01*
X145450000Y-125350000D02*
X146050000Y-125350000D01*
X153450000Y-105250000D02*
X153325000Y-105375000D01*
X145325000Y-113375000D02*
X144137500Y-113375000D01*
X138700000Y-108700000D02*
X138050000Y-108700000D01*
X146100000Y-120700000D02*
X146500000Y-120700000D01*
X141862500Y-121375000D02*
X140675000Y-121375000D01*
X153450000Y-113250000D02*
X153325000Y-113375000D01*
X140585000Y-120075000D02*
X140510000Y-120000000D01*
X163950000Y-105900000D02*
X163300000Y-105900000D01*
X140550000Y-109350000D02*
X140625000Y-109275000D01*
X129375000Y-109275000D02*
X129450000Y-109350000D01*
X138700000Y-116700000D02*
X138700000Y-113900000D01*
X162050000Y-105250000D02*
X161450000Y-105250000D01*
X162700000Y-105900000D02*
X162050000Y-105900000D01*
X129325000Y-106675000D02*
X128137500Y-106675000D01*
X148625000Y-125275000D02*
X149862500Y-125275000D01*
X139500000Y-108700000D02*
X139300000Y-108500000D01*
X137450000Y-113250000D02*
X137325000Y-113375000D01*
X154700000Y-124700000D02*
X154700000Y-121900000D01*
X141862500Y-112075000D02*
X140585000Y-112075000D01*
X162700000Y-125700000D02*
X162700000Y-124700000D01*
X145375000Y-109275000D02*
X145450000Y-109350000D01*
X155950000Y-125350000D02*
X156550000Y-125350000D01*
X136137500Y-123975000D02*
X137375000Y-123975000D01*
X155200000Y-112000000D02*
X155490000Y-112000000D01*
X153450000Y-109350000D02*
X154050000Y-109350000D01*
X162700000Y-108700000D02*
X162050000Y-108700000D01*
X145325000Y-122675000D02*
X144137500Y-122675000D01*
X145520000Y-120000000D02*
X145520000Y-120120000D01*
X163300000Y-116500000D02*
X163300000Y-113900000D01*
X132550000Y-122550000D02*
X131950000Y-122550000D01*
X148550000Y-109350000D02*
X148625000Y-109275000D01*
X138050000Y-114550000D02*
X137450000Y-114550000D01*
X162700000Y-116700000D02*
X162700000Y-113900000D01*
X163000000Y-104000000D02*
X163000000Y-104500000D01*
X139300000Y-116500000D02*
X139300000Y-113900000D01*
X130500000Y-120700000D02*
X130700000Y-120900000D01*
X153375000Y-117275000D02*
X153450000Y-117350000D01*
X148675000Y-121375000D02*
X148550000Y-121250000D01*
X131300000Y-124500000D02*
X131300000Y-121900000D01*
X154700000Y-105900000D02*
X154050000Y-105900000D01*
X131300000Y-120800000D02*
X131300000Y-121900000D01*
X154700000Y-116700000D02*
X154050000Y-116700000D01*
X139000000Y-120500000D02*
X139300000Y-120800000D01*
X144137500Y-109925000D02*
X146475000Y-109925000D01*
X149862500Y-121375000D02*
X148675000Y-121375000D01*
X160137500Y-117925000D02*
X162475000Y-117925000D01*
X156625000Y-109275000D02*
X157862500Y-109275000D01*
X130050000Y-121250000D02*
X129450000Y-121250000D01*
X146480000Y-112000000D02*
X147000000Y-112000000D01*
X146480000Y-104000000D02*
X147000000Y-104000000D01*
X154100000Y-104700000D02*
X154500000Y-104700000D01*
X148675000Y-106675000D02*
X148550000Y-106550000D01*
X160137500Y-125925000D02*
X162475000Y-125925000D01*
X147950000Y-121900000D02*
X147300000Y-121900000D01*
X149862500Y-113375000D02*
X148675000Y-113375000D01*
X131500000Y-108700000D02*
X131300000Y-108500000D01*
X164550000Y-113250000D02*
X163950000Y-113250000D01*
X138050000Y-124050000D02*
X137450000Y-124050000D01*
X138500000Y-120700000D02*
X138700000Y-120900000D01*
X129450000Y-106550000D02*
X129325000Y-106675000D01*
X137325000Y-114675000D02*
X136137500Y-114675000D01*
X130700000Y-112900000D02*
X130700000Y-113900000D01*
X131200000Y-120000000D02*
X131490000Y-120000000D01*
X147000000Y-104000000D02*
X147000000Y-104500000D01*
X147500000Y-116700000D02*
X147300000Y-116500000D01*
X147000000Y-120000000D02*
X147200000Y-120000000D01*
X148550000Y-121250000D02*
X147950000Y-121250000D01*
X141862500Y-113375000D02*
X140675000Y-113375000D01*
X165862500Y-105375000D02*
X164675000Y-105375000D01*
X161375000Y-109275000D02*
X161450000Y-109350000D01*
X136137500Y-125275000D02*
X137375000Y-125275000D01*
X163000000Y-112000000D02*
X163000000Y-112500000D01*
X155200000Y-104000000D02*
X155490000Y-104000000D01*
X138700000Y-124700000D02*
X138700000Y-121900000D01*
X161520000Y-120000000D02*
X161520000Y-120120000D01*
X139200000Y-112000000D02*
X139490000Y-112000000D01*
X132550000Y-121250000D02*
X131950000Y-121250000D01*
X130500000Y-104700000D02*
X130700000Y-104900000D01*
X156625000Y-107975000D02*
X156550000Y-108050000D01*
X147300000Y-124500000D02*
X147300000Y-121900000D01*
X128137500Y-117925000D02*
X130475000Y-117925000D01*
X144137500Y-125925000D02*
X146475000Y-125925000D01*
X147000000Y-112000000D02*
X147200000Y-112000000D01*
X131000000Y-120000000D02*
X131000000Y-120500000D01*
X144137500Y-117925000D02*
X146475000Y-117925000D01*
X163000000Y-120000000D02*
X163000000Y-120500000D01*
X160137500Y-123975000D02*
X161375000Y-123975000D01*
X163200000Y-112000000D02*
X163490000Y-112000000D01*
X161325000Y-121375000D02*
X160137500Y-121375000D01*
X132675000Y-114675000D02*
X132550000Y-114550000D01*
X154480000Y-120000000D02*
X155000000Y-120000000D01*
X155000000Y-120000000D02*
X155200000Y-120000000D01*
X162700000Y-124700000D02*
X162700000Y-121900000D01*
X132625000Y-125275000D02*
X133862500Y-125275000D01*
X160137500Y-117275000D02*
X161375000Y-117275000D01*
X157862500Y-106675000D02*
X156675000Y-106675000D01*
X145520000Y-104120000D02*
X146100000Y-104700000D01*
X161520000Y-104120000D02*
X162100000Y-104700000D01*
X156550000Y-122550000D02*
X155950000Y-122550000D01*
X153450000Y-108050000D02*
X153375000Y-107975000D01*
X136137500Y-115975000D02*
X137375000Y-115975000D01*
X153450000Y-125350000D02*
X154050000Y-125350000D01*
X154050000Y-106550000D02*
X153450000Y-106550000D01*
X157862500Y-123975000D02*
X156625000Y-123975000D01*
X138700000Y-116700000D02*
X138050000Y-116700000D01*
X155300000Y-104800000D02*
X155300000Y-105900000D01*
X165862500Y-120075000D02*
X164585000Y-120075000D01*
X154100000Y-112700000D02*
X154500000Y-112700000D01*
X154050000Y-114550000D02*
X153450000Y-114550000D01*
X139000000Y-120000000D02*
X139200000Y-120000000D01*
X133862500Y-105375000D02*
X132675000Y-105375000D01*
X140550000Y-124050000D02*
X139950000Y-124050000D01*
X141862500Y-106675000D02*
X140675000Y-106675000D01*
X138100000Y-112700000D02*
X138500000Y-112700000D01*
X131300000Y-116500000D02*
X131300000Y-113900000D01*
X139950000Y-113900000D02*
X139300000Y-113900000D01*
X129450000Y-113250000D02*
X129325000Y-113375000D01*
X163950000Y-125350000D02*
X164550000Y-125350000D01*
X138700000Y-108700000D02*
X138700000Y-105900000D01*
X130475000Y-125925000D02*
X130700000Y-125700000D01*
X161520000Y-112120000D02*
X162100000Y-112700000D01*
X144137500Y-117275000D02*
X145375000Y-117275000D01*
X161325000Y-105375000D02*
X160137500Y-105375000D01*
X139200000Y-120000000D02*
X139490000Y-120000000D01*
X146500000Y-112700000D02*
X146700000Y-112900000D01*
X140675000Y-122675000D02*
X140550000Y-122550000D01*
X154700000Y-109700000D02*
X154700000Y-108700000D01*
X129325000Y-114675000D02*
X128137500Y-114675000D01*
X132625000Y-123975000D02*
X132550000Y-124050000D01*
X139000000Y-112000000D02*
X139000000Y-112500000D01*
X137325000Y-113375000D02*
X136137500Y-113375000D01*
X146700000Y-121900000D02*
X146050000Y-121900000D01*
X161520000Y-112000000D02*
X161520000Y-112120000D01*
X146700000Y-124700000D02*
X146700000Y-121900000D01*
X137520000Y-112000000D02*
X137520000Y-112120000D01*
X145375000Y-117275000D02*
X145450000Y-117350000D01*
X148585000Y-104075000D02*
X148510000Y-104000000D01*
X144137500Y-115975000D02*
X145375000Y-115975000D01*
X130050000Y-108050000D02*
X129450000Y-108050000D01*
X154475000Y-109925000D02*
X154700000Y-109700000D01*
X145520000Y-112120000D02*
X146100000Y-112700000D01*
X148675000Y-113375000D02*
X148550000Y-113250000D01*
X146050000Y-122550000D02*
X145450000Y-122550000D01*
X155500000Y-116700000D02*
X155300000Y-116500000D01*
X162700000Y-104900000D02*
X162700000Y-105900000D01*
X161325000Y-114675000D02*
X160137500Y-114675000D01*
X139300000Y-112800000D02*
X139300000Y-113900000D01*
X164585000Y-104075000D02*
X164510000Y-104000000D01*
X145450000Y-124050000D02*
X145375000Y-123975000D01*
X156550000Y-117350000D02*
X156625000Y-117275000D01*
X139000000Y-104500000D02*
X139300000Y-104800000D01*
X153450000Y-121250000D02*
X153325000Y-121375000D01*
X138700000Y-121900000D02*
X138050000Y-121900000D01*
X164675000Y-113375000D02*
X164550000Y-113250000D01*
X146700000Y-112900000D02*
X146700000Y-113900000D01*
X131950000Y-105900000D02*
X131300000Y-105900000D01*
X163300000Y-124500000D02*
X163300000Y-121900000D01*
X155300000Y-108500000D02*
X155300000Y-105900000D01*
X147950000Y-125350000D02*
X148550000Y-125350000D01*
X153450000Y-122550000D02*
X153325000Y-122675000D01*
X147300000Y-116500000D02*
X147300000Y-113900000D01*
X146475000Y-117925000D02*
X146700000Y-117700000D01*
X147950000Y-124700000D02*
X147500000Y-124700000D01*
X139300000Y-104800000D02*
X139300000Y-105900000D01*
X162500000Y-104700000D02*
X162700000Y-104900000D01*
X132550000Y-108050000D02*
X131950000Y-108050000D01*
X130100000Y-104700000D02*
X130500000Y-104700000D01*
X141862500Y-107975000D02*
X140625000Y-107975000D01*
X156550000Y-113250000D02*
X155950000Y-113250000D01*
X138700000Y-117700000D02*
X138700000Y-116700000D01*
X132625000Y-117275000D02*
X133862500Y-117275000D01*
X138100000Y-104700000D02*
X138500000Y-104700000D01*
X156550000Y-125350000D02*
X156625000Y-125275000D01*
X130700000Y-109700000D02*
X130700000Y-108700000D01*
X130700000Y-120900000D02*
X130700000Y-121900000D01*
X136137500Y-107975000D02*
X137375000Y-107975000D01*
X130050000Y-105250000D02*
X129450000Y-105250000D01*
X130480000Y-120000000D02*
X131000000Y-120000000D01*
X138050000Y-105250000D02*
X137450000Y-105250000D01*
X138100000Y-120700000D02*
X138500000Y-120700000D01*
X138050000Y-122550000D02*
X137450000Y-122550000D01*
X155000000Y-112500000D02*
X155300000Y-112800000D01*
X129450000Y-116050000D02*
X129375000Y-115975000D01*
X156675000Y-122675000D02*
X156550000Y-122550000D01*
X163300000Y-104800000D02*
X163300000Y-105900000D01*
X163500000Y-108700000D02*
X163300000Y-108500000D01*
X129450000Y-114550000D02*
X129325000Y-114675000D01*
X145325000Y-121375000D02*
X144137500Y-121375000D01*
X162700000Y-116700000D02*
X162050000Y-116700000D01*
X131950000Y-113900000D02*
X131300000Y-113900000D01*
X132675000Y-113375000D02*
X132550000Y-113250000D01*
X154500000Y-104700000D02*
X154700000Y-104900000D01*
X147500000Y-124700000D02*
X147300000Y-124500000D01*
X132675000Y-105375000D02*
X132550000Y-105250000D01*
X139500000Y-124700000D02*
X139300000Y-124500000D01*
X131500000Y-116700000D02*
X131300000Y-116500000D01*
X156550000Y-114550000D02*
X155950000Y-114550000D01*
X140625000Y-123975000D02*
X140550000Y-124050000D01*
X129520000Y-112000000D02*
X129520000Y-112120000D01*
X129325000Y-121375000D02*
X128137500Y-121375000D01*
X154700000Y-108700000D02*
X154050000Y-108700000D01*
X154700000Y-124700000D02*
X154050000Y-124700000D01*
X164550000Y-109350000D02*
X164625000Y-109275000D01*
X148550000Y-125350000D02*
X148625000Y-125275000D01*
X146050000Y-106550000D02*
X145450000Y-106550000D01*
X145450000Y-109350000D02*
X146050000Y-109350000D01*
X163000000Y-120500000D02*
X163300000Y-120800000D01*
X148550000Y-114550000D02*
X147950000Y-114550000D01*
X148625000Y-109275000D02*
X149862500Y-109275000D01*
X130050000Y-114550000D02*
X129450000Y-114550000D01*
X146475000Y-125925000D02*
X146700000Y-125700000D01*
X131000000Y-112000000D02*
X131000000Y-112500000D01*
X131000000Y-104000000D02*
X131200000Y-104000000D01*
X154700000Y-117700000D02*
X154700000Y-116700000D01*
X153450000Y-124050000D02*
X153375000Y-123975000D01*
X153450000Y-106550000D02*
X153325000Y-106675000D01*
X129450000Y-121250000D02*
X129325000Y-121375000D01*
X137450000Y-121250000D02*
X137325000Y-121375000D01*
X146700000Y-113900000D02*
X146050000Y-113900000D01*
X155500000Y-108700000D02*
X155300000Y-108500000D01*
X139950000Y-116700000D02*
X139500000Y-116700000D01*
X156675000Y-114675000D02*
X156550000Y-114550000D01*
X155950000Y-109350000D02*
X156550000Y-109350000D01*
X130700000Y-125700000D02*
X130700000Y-124700000D01*
X130700000Y-124700000D02*
X130700000Y-121900000D01*
X131000000Y-112000000D02*
X131200000Y-112000000D01*
X165862500Y-112075000D02*
X164585000Y-112075000D01*
X153520000Y-104120000D02*
X154100000Y-104700000D01*
X152137500Y-109275000D02*
X153375000Y-109275000D01*
X162700000Y-121900000D02*
X162050000Y-121900000D01*
X155300000Y-116500000D02*
X155300000Y-113900000D01*
X131000000Y-120500000D02*
X131300000Y-120800000D01*
X132550000Y-117350000D02*
X132625000Y-117275000D01*
X152137500Y-107975000D02*
X153375000Y-107975000D01*
X148675000Y-105375000D02*
X148550000Y-105250000D01*
X153520000Y-112120000D02*
X154100000Y-112700000D01*
X133862500Y-104075000D02*
X132585000Y-104075000D01*
X144137500Y-123975000D02*
X145375000Y-123975000D01*
X138700000Y-109700000D02*
X138700000Y-108700000D01*
X164550000Y-114550000D02*
X163950000Y-114550000D01*
X154480000Y-104000000D02*
X155000000Y-104000000D01*
X148625000Y-115975000D02*
X148550000Y-116050000D01*
X163950000Y-121900000D02*
X163300000Y-121900000D01*
X156625000Y-125275000D02*
X157862500Y-125275000D01*
X129375000Y-125275000D02*
X129450000Y-125350000D01*
X161450000Y-125350000D02*
X162050000Y-125350000D01*
X132625000Y-115975000D02*
X132550000Y-116050000D01*
X156585000Y-120075000D02*
X156510000Y-120000000D01*
X162050000Y-114550000D02*
X161450000Y-114550000D01*
X155000000Y-120500000D02*
X155300000Y-120800000D01*
X146480000Y-120000000D02*
X147000000Y-120000000D01*
X138050000Y-116050000D02*
X137450000Y-116050000D01*
X140550000Y-114550000D02*
X139950000Y-114550000D01*
X140625000Y-117275000D02*
X141862500Y-117275000D01*
X164550000Y-105250000D02*
X163950000Y-105250000D01*
X154480000Y-112000000D02*
X155000000Y-112000000D01*
X145325000Y-106675000D02*
X144137500Y-106675000D01*
X130100000Y-120700000D02*
X130500000Y-120700000D01*
X162050000Y-124050000D02*
X161450000Y-124050000D01*
X155000000Y-104500000D02*
X155300000Y-104800000D01*
X146050000Y-108050000D02*
X145450000Y-108050000D01*
X139000000Y-104000000D02*
X139200000Y-104000000D01*
X157862500Y-107975000D02*
X156625000Y-107975000D01*
X148550000Y-124050000D02*
X147950000Y-124050000D01*
X161375000Y-125275000D02*
X161450000Y-125350000D01*
X136137500Y-109925000D02*
X138475000Y-109925000D01*
X157862500Y-113375000D02*
X156675000Y-113375000D01*
X162480000Y-104000000D02*
X163000000Y-104000000D01*
X163500000Y-124700000D02*
X163300000Y-124500000D01*
X140625000Y-109275000D02*
X141862500Y-109275000D01*
X164675000Y-114675000D02*
X164550000Y-114550000D01*
X149862500Y-114675000D02*
X148675000Y-114675000D01*
X129325000Y-122675000D02*
X128137500Y-122675000D01*
X128137500Y-107975000D02*
X129375000Y-107975000D01*
X129325000Y-105375000D02*
X128137500Y-105375000D01*
X137520000Y-120000000D02*
X137520000Y-120120000D01*
X132585000Y-112075000D02*
X132510000Y-112000000D01*
X137450000Y-124050000D02*
X137375000Y-123975000D01*
X155950000Y-108700000D02*
X155500000Y-108700000D01*
X128137500Y-109925000D02*
X130475000Y-109925000D01*
X154050000Y-113250000D02*
X153450000Y-113250000D01*
X141862500Y-122675000D02*
X140675000Y-122675000D01*
X154050000Y-116050000D02*
X153450000Y-116050000D01*
X161450000Y-116050000D02*
X161375000Y-115975000D01*
X131950000Y-116700000D02*
X131500000Y-116700000D01*
X138475000Y-117925000D02*
X138700000Y-117700000D01*
X157862500Y-115975000D02*
X156625000Y-115975000D01*
X164675000Y-105375000D02*
X164550000Y-105250000D01*
X145450000Y-105250000D02*
X145325000Y-105375000D01*
X137450000Y-116050000D02*
X137375000Y-115975000D01*
X145450000Y-106550000D02*
X145325000Y-106675000D01*
X147300000Y-120800000D02*
X147300000Y-121900000D01*
X164625000Y-109275000D02*
X165862500Y-109275000D01*
X163300000Y-112800000D02*
X163300000Y-113900000D01*
X133862500Y-106675000D02*
X132675000Y-106675000D01*
X137450000Y-106550000D02*
X137325000Y-106675000D01*
X161450000Y-106550000D02*
X161325000Y-106675000D01*
X128137500Y-125925000D02*
X130475000Y-125925000D01*
X154700000Y-108700000D02*
X154700000Y-105900000D01*
X140550000Y-108050000D02*
X139950000Y-108050000D01*
X128137500Y-109275000D02*
X129375000Y-109275000D01*
X161325000Y-113375000D02*
X160137500Y-113375000D01*
X162050000Y-121250000D02*
X161450000Y-121250000D01*
X147000000Y-120500000D02*
X147300000Y-120800000D01*
X145520000Y-112000000D02*
X145520000Y-112120000D01*
X162475000Y-125925000D02*
X162700000Y-125700000D01*
X152137500Y-115975000D02*
X153375000Y-115975000D01*
X132550000Y-106550000D02*
X131950000Y-106550000D01*
X131950000Y-109350000D02*
X132550000Y-109350000D01*
X163950000Y-109350000D02*
X164550000Y-109350000D01*
X129520000Y-112120000D02*
X130100000Y-112700000D01*
X162480000Y-120000000D02*
X163000000Y-120000000D01*
X128137500Y-125275000D02*
X129375000Y-125275000D01*
X164550000Y-125350000D02*
X164625000Y-125275000D01*
X156550000Y-106550000D02*
X155950000Y-106550000D01*
X137375000Y-125275000D02*
X137450000Y-125350000D01*
X153325000Y-122675000D02*
X152137500Y-122675000D01*
X130050000Y-106550000D02*
X129450000Y-106550000D01*
X161520000Y-120120000D02*
X162100000Y-120700000D01*
X131950000Y-108700000D02*
X131500000Y-108700000D01*
X153450000Y-117350000D02*
X154050000Y-117350000D01*
X164550000Y-117350000D02*
X164625000Y-117275000D01*
X132625000Y-109275000D02*
X133862500Y-109275000D01*
X163000000Y-104000000D02*
X163200000Y-104000000D01*
X131000000Y-120000000D02*
X131200000Y-120000000D01*
X164550000Y-121250000D02*
X163950000Y-121250000D01*
X131300000Y-108500000D02*
X131300000Y-105900000D01*
X132550000Y-105250000D02*
X131950000Y-105250000D01*
X139950000Y-105900000D02*
X139300000Y-105900000D01*
X145450000Y-121250000D02*
X145325000Y-121375000D01*
X131300000Y-104800000D02*
X131300000Y-105900000D01*
X146700000Y-108700000D02*
X146700000Y-105900000D01*
X140550000Y-117350000D02*
X140625000Y-117275000D01*
X154050000Y-108050000D02*
X153450000Y-108050000D01*
X130700000Y-121900000D02*
X130050000Y-121900000D01*
X137375000Y-117275000D02*
X137450000Y-117350000D01*
X140675000Y-114675000D02*
X140550000Y-114550000D01*
X139000000Y-112000000D02*
X139200000Y-112000000D01*
X141862500Y-120075000D02*
X140585000Y-120075000D01*
X146700000Y-105900000D02*
X146050000Y-105900000D01*
X130050000Y-124050000D02*
X129450000Y-124050000D01*
X157862500Y-104075000D02*
X156585000Y-104075000D01*
X144137500Y-107975000D02*
X145375000Y-107975000D01*
X161325000Y-106675000D02*
X160137500Y-106675000D01*
X146050000Y-121250000D02*
X145450000Y-121250000D01*
X138700000Y-112900000D02*
X138700000Y-113900000D01*
X160137500Y-107975000D02*
X161375000Y-107975000D01*
X164550000Y-106550000D02*
X163950000Y-106550000D01*
X137450000Y-108050000D02*
X137375000Y-107975000D01*
X156675000Y-113375000D02*
X156550000Y-113250000D01*
X164550000Y-122550000D02*
X163950000Y-122550000D01*
X140625000Y-115975000D02*
X140550000Y-116050000D01*
X165862500Y-115975000D02*
X164625000Y-115975000D01*
X156550000Y-124050000D02*
X155950000Y-124050000D01*
X133862500Y-113375000D02*
X132675000Y-113375000D01*
X149862500Y-112075000D02*
X148585000Y-112075000D01*
X146500000Y-120700000D02*
X146700000Y-120900000D01*
X155300000Y-124500000D02*
X155300000Y-121900000D01*
X130480000Y-112000000D02*
X131000000Y-112000000D01*
X132675000Y-106675000D02*
X132550000Y-106550000D01*
X164625000Y-115975000D02*
X164550000Y-116050000D01*
X141862500Y-115975000D02*
X140625000Y-115975000D01*
X156550000Y-121250000D02*
X155950000Y-121250000D01*
X157862500Y-114675000D02*
X156675000Y-114675000D01*
X145450000Y-122550000D02*
X145325000Y-122675000D01*
X148550000Y-122550000D02*
X147950000Y-122550000D01*
X155950000Y-121900000D02*
X155300000Y-121900000D01*
X148675000Y-122675000D02*
X148550000Y-122550000D01*
X147000000Y-120000000D02*
X147000000Y-120500000D01*
X131200000Y-112000000D02*
X131490000Y-112000000D01*
X157862500Y-122675000D02*
X156675000Y-122675000D01*
X130700000Y-108700000D02*
X130700000Y-105900000D01*
X149862500Y-105375000D02*
X148675000Y-105375000D01*
X146700000Y-116700000D02*
X146700000Y-113900000D01*
X131950000Y-125350000D02*
X132550000Y-125350000D01*
X160137500Y-109275000D02*
X161375000Y-109275000D01*
X163950000Y-117350000D02*
X164550000Y-117350000D01*
X146700000Y-117700000D02*
X146700000Y-116700000D01*
X139000000Y-120000000D02*
X139000000Y-120500000D01*
X155000000Y-104000000D02*
X155000000Y-104500000D01*
X130500000Y-112700000D02*
X130700000Y-112900000D01*
X154050000Y-124050000D02*
X153450000Y-124050000D01*
X130700000Y-116700000D02*
X130050000Y-116700000D01*
X139000000Y-104000000D02*
X139000000Y-104500000D01*
X163000000Y-112500000D02*
X163300000Y-112800000D01*
X149862500Y-123975000D02*
X148625000Y-123975000D01*
X149862500Y-122675000D02*
X148675000Y-122675000D01*
X141862500Y-114675000D02*
X140675000Y-114675000D01*
X137450000Y-109350000D02*
X138050000Y-109350000D01*
X146700000Y-109700000D02*
X146700000Y-108700000D01*
X155950000Y-117350000D02*
X156550000Y-117350000D01*
X154500000Y-112700000D02*
X154700000Y-112900000D01*
X140585000Y-112075000D02*
X140510000Y-112000000D01*
X130050000Y-122550000D02*
X129450000Y-122550000D01*
X161450000Y-109350000D02*
X162050000Y-109350000D01*
X139950000Y-125350000D02*
X140550000Y-125350000D01*
X129450000Y-125350000D02*
X130050000Y-125350000D01*
X145520000Y-120120000D02*
X146100000Y-120700000D01*
X129450000Y-124050000D02*
X129375000Y-123975000D01*
X139300000Y-120800000D02*
X139300000Y-121900000D01*
X156585000Y-112075000D02*
X156510000Y-112000000D01*
X132585000Y-104075000D02*
X132510000Y-104000000D01*
X130700000Y-117700000D02*
X130700000Y-116700000D01*
X146700000Y-116700000D02*
X146050000Y-116700000D01*
X149862500Y-120075000D02*
X148585000Y-120075000D01*
X147950000Y-105900000D02*
X147300000Y-105900000D01*
X130700000Y-113900000D02*
X130050000Y-113900000D01*
X145450000Y-114550000D02*
X145325000Y-114675000D01*
X138050000Y-108050000D02*
X137450000Y-108050000D01*
X165862500Y-123975000D02*
X164625000Y-123975000D01*
X152137500Y-125925000D02*
X154475000Y-125925000D01*
X139300000Y-108500000D02*
X139300000Y-105900000D01*
X148550000Y-105250000D02*
X147950000Y-105250000D01*
X133862500Y-114675000D02*
X132675000Y-114675000D01*
X140675000Y-121375000D02*
X140550000Y-121250000D01*
X153325000Y-114675000D02*
X152137500Y-114675000D01*
X162700000Y-120900000D02*
X162700000Y-121900000D01*
X129520000Y-120120000D02*
X130100000Y-120700000D01*
X152137500Y-117275000D02*
X153375000Y-117275000D01*
X147300000Y-108500000D02*
X147300000Y-105900000D01*
X145450000Y-108050000D02*
X145375000Y-107975000D01*
X162050000Y-116050000D02*
X161450000Y-116050000D01*
X137450000Y-117350000D02*
X138050000Y-117350000D01*
X132550000Y-124050000D02*
X131950000Y-124050000D01*
X145450000Y-113250000D02*
X145325000Y-113375000D01*
X156550000Y-109350000D02*
X156625000Y-109275000D01*
X153520000Y-112000000D02*
X153520000Y-112120000D01*
X147200000Y-120000000D02*
X147490000Y-120000000D01*
X139950000Y-109350000D02*
X140550000Y-109350000D01*
X164550000Y-116050000D02*
X163950000Y-116050000D01*
X139950000Y-124700000D02*
X139500000Y-124700000D01*
X147000000Y-112500000D02*
X147300000Y-112800000D01*
X131950000Y-124700000D02*
X131500000Y-124700000D01*
X162050000Y-108050000D02*
X161450000Y-108050000D01*
X128137500Y-117275000D02*
X129375000Y-117275000D01*
X164585000Y-112075000D02*
X164510000Y-112000000D01*
X138050000Y-106550000D02*
X137450000Y-106550000D01*
X164550000Y-124050000D02*
X163950000Y-124050000D01*
X160137500Y-109925000D02*
X162475000Y-109925000D01*
X148585000Y-120075000D02*
X148510000Y-120000000D01*
X140675000Y-105375000D02*
X140550000Y-105250000D01*
X131500000Y-124700000D02*
X131300000Y-124500000D01*
X147300000Y-104800000D02*
X147300000Y-105900000D01*
X131950000Y-117350000D02*
X132550000Y-117350000D01*
X147950000Y-113900000D02*
X147300000Y-113900000D01*
X140585000Y-104075000D02*
X140510000Y-104000000D01*
X129325000Y-113375000D02*
X128137500Y-113375000D01*
X140550000Y-125350000D02*
X140625000Y-125275000D01*
X161450000Y-114550000D02*
X161325000Y-114675000D01*
X162050000Y-113250000D02*
X161450000Y-113250000D01*
X146100000Y-104700000D02*
X146500000Y-104700000D01*
X129450000Y-108050000D02*
X129375000Y-107975000D01*
X130700000Y-104900000D02*
X130700000Y-105900000D01*
X153520000Y-120000000D02*
X153520000Y-120120000D01*
X164625000Y-117275000D02*
X165862500Y-117275000D01*
X154475000Y-125925000D02*
X154700000Y-125700000D01*
X164675000Y-106675000D02*
X164550000Y-106550000D01*
X154050000Y-121250000D02*
X153450000Y-121250000D01*
X138480000Y-112000000D02*
X139000000Y-112000000D01*
X148625000Y-107975000D02*
X148550000Y-108050000D01*
X140550000Y-106550000D02*
X139950000Y-106550000D01*
X155000000Y-112000000D02*
X155200000Y-112000000D01*
X129450000Y-109350000D02*
X130050000Y-109350000D01*
X140625000Y-125275000D02*
X141862500Y-125275000D01*
X138700000Y-120900000D02*
X138700000Y-121900000D01*
X153375000Y-109275000D02*
X153450000Y-109350000D01*
X162100000Y-120700000D02*
X162500000Y-120700000D01*
X147200000Y-104000000D02*
X147490000Y-104000000D01*
X155950000Y-105900000D02*
X155300000Y-105900000D01*
X155000000Y-112000000D02*
X155000000Y-112500000D01*
X165862500Y-121375000D02*
X164675000Y-121375000D01*
X147000000Y-104000000D02*
X147200000Y-104000000D01*
X162050000Y-106550000D02*
X161450000Y-106550000D01*
X156675000Y-105375000D02*
X156550000Y-105250000D01*
X141862500Y-104075000D02*
X140585000Y-104075000D01*
X131000000Y-104500000D02*
X131300000Y-104800000D01*
X138700000Y-105900000D02*
X138050000Y-105900000D01*
X147950000Y-116700000D02*
X147500000Y-116700000D01*
X152137500Y-125275000D02*
X153375000Y-125275000D01*
X161450000Y-124050000D02*
X161375000Y-123975000D01*
X138700000Y-104900000D02*
X138700000Y-105900000D01*
X137450000Y-122550000D02*
X137325000Y-122675000D01*
X163950000Y-113900000D02*
X163300000Y-113900000D01*
%TD*%
M02*
