M48
; DRILL file {KiCad 6.99.0-76368af7} date Tue 11 Jan 2022 12:03:42 PM CET
; FORMAT={-:-/ absolute / inch / decimal}
; #@! TF.CreationDate,2022-01-11T12:03:42+01:00
; #@! TF.GenerationSoftware,Kicad,Pcbnew,6.99.0-76368af7
; #@! TF.FileFunction,Plated,1,2,PTH
FMAT,2
INCH
; #@! TA.AperFunction,Plated,PTH,ComponentDrill
T1C0.0098
%
G90
G05
T1
X5.0448Y-4.0974
X5.0448Y-4.123
X5.0448Y-4.1486
X5.0448Y-4.1742
X5.0448Y-4.1998
X5.0448Y-4.2254
X5.0448Y-4.251
X5.0448Y-4.2766
X5.0448Y-4.3022
X5.0448Y-4.3278
X5.0448Y-4.4124
X5.0448Y-4.438
X5.0448Y-4.4636
X5.0448Y-4.4892
X5.0448Y-4.5148
X5.0448Y-4.5404
X5.0448Y-4.5659
X5.0448Y-4.5915
X5.0448Y-4.6171
X5.0448Y-4.6427
X5.0448Y-4.7274
X5.0448Y-4.753
X5.0448Y-4.7785
X5.0448Y-4.8041
X5.0448Y-4.8297
X5.0448Y-4.8553
X5.0448Y-4.8809
X5.0448Y-4.9065
X5.0448Y-4.9321
X5.0448Y-4.9577
X5.2702Y-4.0974
X5.2702Y-4.123
X5.2702Y-4.1486
X5.2702Y-4.1742
X5.2702Y-4.1998
X5.2702Y-4.2254
X5.2702Y-4.251
X5.2702Y-4.2766
X5.2702Y-4.3022
X5.2702Y-4.3278
X5.2702Y-4.4124
X5.2702Y-4.438
X5.2702Y-4.4636
X5.2702Y-4.4892
X5.2702Y-4.5148
X5.2702Y-4.5404
X5.2702Y-4.5659
X5.2702Y-4.5915
X5.2702Y-4.6171
X5.2702Y-4.6427
X5.2702Y-4.7274
X5.2702Y-4.753
X5.2702Y-4.7785
X5.2702Y-4.8041
X5.2702Y-4.8297
X5.2702Y-4.8553
X5.2702Y-4.8809
X5.2702Y-4.9065
X5.2702Y-4.9321
X5.2702Y-4.9577
X5.3597Y-4.0974
X5.3597Y-4.123
X5.3597Y-4.1486
X5.3597Y-4.1742
X5.3597Y-4.1998
X5.3597Y-4.2254
X5.3597Y-4.251
X5.3597Y-4.2766
X5.3597Y-4.3022
X5.3597Y-4.3278
X5.3597Y-4.4124
X5.3597Y-4.438
X5.3597Y-4.4636
X5.3597Y-4.4892
X5.3597Y-4.5148
X5.3597Y-4.5404
X5.3597Y-4.5659
X5.3597Y-4.5915
X5.3597Y-4.6171
X5.3597Y-4.6427
X5.3597Y-4.7274
X5.3597Y-4.753
X5.3597Y-4.7785
X5.3597Y-4.8041
X5.3597Y-4.8297
X5.3597Y-4.8553
X5.3597Y-4.8809
X5.3597Y-4.9065
X5.3597Y-4.9321
X5.3597Y-4.9577
X5.5851Y-4.0974
X5.5851Y-4.123
X5.5851Y-4.1486
X5.5851Y-4.1742
X5.5851Y-4.1998
X5.5851Y-4.2254
X5.5851Y-4.251
X5.5851Y-4.2766
X5.5851Y-4.3022
X5.5851Y-4.3278
X5.5851Y-4.4124
X5.5851Y-4.438
X5.5851Y-4.4636
X5.5851Y-4.4892
X5.5851Y-4.5148
X5.5851Y-4.5404
X5.5851Y-4.5659
X5.5851Y-4.5915
X5.5851Y-4.6171
X5.5851Y-4.6427
X5.5851Y-4.7274
X5.5851Y-4.753
X5.5851Y-4.7785
X5.5851Y-4.8041
X5.5851Y-4.8297
X5.5851Y-4.8553
X5.5851Y-4.8809
X5.5851Y-4.9065
X5.5851Y-4.9321
X5.5851Y-4.9577
X5.6747Y-4.0974
X5.6747Y-4.123
X5.6747Y-4.1486
X5.6747Y-4.1742
X5.6747Y-4.1998
X5.6747Y-4.2254
X5.6747Y-4.251
X5.6747Y-4.2766
X5.6747Y-4.3022
X5.6747Y-4.3278
X5.6747Y-4.4124
X5.6747Y-4.438
X5.6747Y-4.4636
X5.6747Y-4.4892
X5.6747Y-4.5148
X5.6747Y-4.5404
X5.6747Y-4.5659
X5.6747Y-4.5915
X5.6747Y-4.6171
X5.6747Y-4.6427
X5.6747Y-4.7274
X5.6747Y-4.753
X5.6747Y-4.7785
X5.6747Y-4.8041
X5.6747Y-4.8297
X5.6747Y-4.8553
X5.6747Y-4.8809
X5.6747Y-4.9065
X5.6747Y-4.9321
X5.6747Y-4.9577
X5.9001Y-4.0974
X5.9001Y-4.123
X5.9001Y-4.1486
X5.9001Y-4.1742
X5.9001Y-4.1998
X5.9001Y-4.2254
X5.9001Y-4.251
X5.9001Y-4.2766
X5.9001Y-4.3022
X5.9001Y-4.3278
X5.9001Y-4.4124
X5.9001Y-4.438
X5.9001Y-4.4636
X5.9001Y-4.4892
X5.9001Y-4.5148
X5.9001Y-4.5404
X5.9001Y-4.5659
X5.9001Y-4.5915
X5.9001Y-4.6171
X5.9001Y-4.6427
X5.9001Y-4.7274
X5.9001Y-4.753
X5.9001Y-4.7785
X5.9001Y-4.8041
X5.9001Y-4.8297
X5.9001Y-4.8553
X5.9001Y-4.8809
X5.9001Y-4.9065
X5.9001Y-4.9321
X5.9001Y-4.9577
X5.9897Y-4.0974
X5.9897Y-4.123
X5.9897Y-4.1486
X5.9897Y-4.1742
X5.9897Y-4.1998
X5.9897Y-4.2254
X5.9897Y-4.251
X5.9897Y-4.2766
X5.9897Y-4.3022
X5.9897Y-4.3278
X5.9897Y-4.4124
X5.9897Y-4.438
X5.9897Y-4.4636
X5.9897Y-4.4892
X5.9897Y-4.5148
X5.9897Y-4.5404
X5.9897Y-4.5659
X5.9897Y-4.5915
X5.9897Y-4.6171
X5.9897Y-4.6427
X5.9897Y-4.7274
X5.9897Y-4.753
X5.9897Y-4.7785
X5.9897Y-4.8041
X5.9897Y-4.8297
X5.9897Y-4.8553
X5.9897Y-4.8809
X5.9897Y-4.9065
X5.9897Y-4.9321
X5.9897Y-4.9577
X6.2151Y-4.0974
X6.2151Y-4.123
X6.2151Y-4.1486
X6.2151Y-4.1742
X6.2151Y-4.1998
X6.2151Y-4.2254
X6.2151Y-4.251
X6.2151Y-4.2766
X6.2151Y-4.3022
X6.2151Y-4.3278
X6.2151Y-4.4124
X6.2151Y-4.438
X6.2151Y-4.4636
X6.2151Y-4.4892
X6.2151Y-4.5148
X6.2151Y-4.5404
X6.2151Y-4.5659
X6.2151Y-4.5915
X6.2151Y-4.6171
X6.2151Y-4.6427
X6.2151Y-4.7274
X6.2151Y-4.753
X6.2151Y-4.7785
X6.2151Y-4.8041
X6.2151Y-4.8297
X6.2151Y-4.8553
X6.2151Y-4.8809
X6.2151Y-4.9065
X6.2151Y-4.9321
X6.2151Y-4.9577
X6.3046Y-4.0974
X6.3046Y-4.123
X6.3046Y-4.1486
X6.3046Y-4.1742
X6.3046Y-4.1998
X6.3046Y-4.2254
X6.3046Y-4.251
X6.3046Y-4.2766
X6.3046Y-4.3022
X6.3046Y-4.3278
X6.3046Y-4.4124
X6.3046Y-4.438
X6.3046Y-4.4636
X6.3046Y-4.4892
X6.3046Y-4.5148
X6.3046Y-4.5404
X6.3046Y-4.5659
X6.3046Y-4.5915
X6.3046Y-4.6171
X6.3046Y-4.6427
X6.3046Y-4.7274
X6.3046Y-4.753
X6.3046Y-4.7785
X6.3046Y-4.8041
X6.3046Y-4.8297
X6.3046Y-4.8553
X6.3046Y-4.8809
X6.3046Y-4.9065
X6.3046Y-4.9321
X6.3046Y-4.9577
X6.53Y-4.0974
X6.53Y-4.123
X6.53Y-4.1486
X6.53Y-4.1742
X6.53Y-4.1998
X6.53Y-4.2254
X6.53Y-4.251
X6.53Y-4.2766
X6.53Y-4.3022
X6.53Y-4.3278
X6.53Y-4.4124
X6.53Y-4.438
X6.53Y-4.4636
X6.53Y-4.4892
X6.53Y-4.5148
X6.53Y-4.5404
X6.53Y-4.5659
X6.53Y-4.5915
X6.53Y-4.6171
X6.53Y-4.6427
X6.53Y-4.7274
X6.53Y-4.753
X6.53Y-4.7785
X6.53Y-4.8041
X6.53Y-4.8297
X6.53Y-4.8553
X6.53Y-4.8809
X6.53Y-4.9065
X6.53Y-4.9321
X6.53Y-4.9577
T0
M30
