%TF.GenerationSoftware,KiCad,Pcbnew,6.99.0-76368af7*%
%TF.CreationDate,2022-01-10T14:25:00+01:00*%
%TF.ProjectId,hc245t_bypass_esd-panel,68633234-3574-45f6-9279-706173735f65,rev?*%
%TF.SameCoordinates,Original*%
%TF.FileFunction,Soldermask,Bot*%
%TF.FilePolarity,Negative*%
%FSLAX46Y46*%
G04 Gerber Fmt 4.6, Leading zero omitted, Abs format (unit mm)*
G04 Created by KiCad (PCBNEW 6.99.0-76368af7) date 2022-01-10 14:25:00*
%MOMM*%
%LPD*%
G01*
G04 APERTURE LIST*
G04 Aperture macros list*
%AMRoundRect*
0 Rectangle with rounded corners*
0 $1 Rounding radius*
0 $2 $3 $4 $5 $6 $7 $8 $9 X,Y pos of 4 corners*
0 Add a 4 corners polygon primitive as box body*
4,1,4,$2,$3,$4,$5,$6,$7,$8,$9,$2,$3,0*
0 Add four circle primitives for the rounded corners*
1,1,$1+$1,$2,$3*
1,1,$1+$1,$4,$5*
1,1,$1+$1,$6,$7*
1,1,$1+$1,$8,$9*
0 Add four rect primitives between the rounded corners*
20,1,$1+$1,$2,$3,$4,$5,0*
20,1,$1+$1,$4,$5,$6,$7,0*
20,1,$1+$1,$6,$7,$8,$9,0*
20,1,$1+$1,$8,$9,$2,$3,0*%
G04 Aperture macros list end*
%ADD10RoundRect,0.100000X-0.637500X-0.100000X0.637500X-0.100000X0.637500X0.100000X-0.637500X0.100000X0*%
G04 APERTURE END LIST*
D10*
%TO.C,J1*%
X157137500Y-95075000D03*
X157137500Y-95725000D03*
X157137500Y-96375000D03*
X157137500Y-97025000D03*
X157137500Y-97675000D03*
X157137500Y-98325000D03*
X157137500Y-98975000D03*
X157137500Y-99625000D03*
X157137500Y-100275000D03*
X157137500Y-100925000D03*
X162862500Y-100925000D03*
X162862500Y-100275000D03*
X162862500Y-99625000D03*
X162862500Y-98975000D03*
X162862500Y-98325000D03*
X162862500Y-97675000D03*
X162862500Y-97025000D03*
X162862500Y-96375000D03*
X162862500Y-95725000D03*
X162862500Y-95075000D03*
%TD*%
%TO.C,J1*%
X133137500Y-103075000D03*
X133137500Y-103725000D03*
X133137500Y-104375000D03*
X133137500Y-105025000D03*
X133137500Y-105675000D03*
X133137500Y-106325000D03*
X133137500Y-106975000D03*
X133137500Y-107625000D03*
X133137500Y-108275000D03*
X133137500Y-108925000D03*
X138862500Y-108925000D03*
X138862500Y-108275000D03*
X138862500Y-107625000D03*
X138862500Y-106975000D03*
X138862500Y-106325000D03*
X138862500Y-105675000D03*
X138862500Y-105025000D03*
X138862500Y-104375000D03*
X138862500Y-103725000D03*
X138862500Y-103075000D03*
%TD*%
%TO.C,J1*%
X125137500Y-119075000D03*
X125137500Y-119725000D03*
X125137500Y-120375000D03*
X125137500Y-121025000D03*
X125137500Y-121675000D03*
X125137500Y-122325000D03*
X125137500Y-122975000D03*
X125137500Y-123625000D03*
X125137500Y-124275000D03*
X125137500Y-124925000D03*
X130862500Y-124925000D03*
X130862500Y-124275000D03*
X130862500Y-123625000D03*
X130862500Y-122975000D03*
X130862500Y-122325000D03*
X130862500Y-121675000D03*
X130862500Y-121025000D03*
X130862500Y-120375000D03*
X130862500Y-119725000D03*
X130862500Y-119075000D03*
%TD*%
%TO.C,J1*%
X141137500Y-127075000D03*
X141137500Y-127725000D03*
X141137500Y-128375000D03*
X141137500Y-129025000D03*
X141137500Y-129675000D03*
X141137500Y-130325000D03*
X141137500Y-130975000D03*
X141137500Y-131625000D03*
X141137500Y-132275000D03*
X141137500Y-132925000D03*
X146862500Y-132925000D03*
X146862500Y-132275000D03*
X146862500Y-131625000D03*
X146862500Y-130975000D03*
X146862500Y-130325000D03*
X146862500Y-129675000D03*
X146862500Y-129025000D03*
X146862500Y-128375000D03*
X146862500Y-127725000D03*
X146862500Y-127075000D03*
%TD*%
%TO.C,J1*%
X157137500Y-127075000D03*
X157137500Y-127725000D03*
X157137500Y-128375000D03*
X157137500Y-129025000D03*
X157137500Y-129675000D03*
X157137500Y-130325000D03*
X157137500Y-130975000D03*
X157137500Y-131625000D03*
X157137500Y-132275000D03*
X157137500Y-132925000D03*
X162862500Y-132925000D03*
X162862500Y-132275000D03*
X162862500Y-131625000D03*
X162862500Y-130975000D03*
X162862500Y-130325000D03*
X162862500Y-129675000D03*
X162862500Y-129025000D03*
X162862500Y-128375000D03*
X162862500Y-127725000D03*
X162862500Y-127075000D03*
%TD*%
%TO.C,J1*%
X125137500Y-87075000D03*
X125137500Y-87725000D03*
X125137500Y-88375000D03*
X125137500Y-89025000D03*
X125137500Y-89675000D03*
X125137500Y-90325000D03*
X125137500Y-90975000D03*
X125137500Y-91625000D03*
X125137500Y-92275000D03*
X125137500Y-92925000D03*
X130862500Y-92925000D03*
X130862500Y-92275000D03*
X130862500Y-91625000D03*
X130862500Y-90975000D03*
X130862500Y-90325000D03*
X130862500Y-89675000D03*
X130862500Y-89025000D03*
X130862500Y-88375000D03*
X130862500Y-87725000D03*
X130862500Y-87075000D03*
%TD*%
%TO.C,J1*%
X133137500Y-87075000D03*
X133137500Y-87725000D03*
X133137500Y-88375000D03*
X133137500Y-89025000D03*
X133137500Y-89675000D03*
X133137500Y-90325000D03*
X133137500Y-90975000D03*
X133137500Y-91625000D03*
X133137500Y-92275000D03*
X133137500Y-92925000D03*
X138862500Y-92925000D03*
X138862500Y-92275000D03*
X138862500Y-91625000D03*
X138862500Y-90975000D03*
X138862500Y-90325000D03*
X138862500Y-89675000D03*
X138862500Y-89025000D03*
X138862500Y-88375000D03*
X138862500Y-87725000D03*
X138862500Y-87075000D03*
%TD*%
%TO.C,J1*%
X117137500Y-111075000D03*
X117137500Y-111725000D03*
X117137500Y-112375000D03*
X117137500Y-113025000D03*
X117137500Y-113675000D03*
X117137500Y-114325000D03*
X117137500Y-114975000D03*
X117137500Y-115625000D03*
X117137500Y-116275000D03*
X117137500Y-116925000D03*
X122862500Y-116925000D03*
X122862500Y-116275000D03*
X122862500Y-115625000D03*
X122862500Y-114975000D03*
X122862500Y-114325000D03*
X122862500Y-113675000D03*
X122862500Y-113025000D03*
X122862500Y-112375000D03*
X122862500Y-111725000D03*
X122862500Y-111075000D03*
%TD*%
%TO.C,J1*%
X141137500Y-119075000D03*
X141137500Y-119725000D03*
X141137500Y-120375000D03*
X141137500Y-121025000D03*
X141137500Y-121675000D03*
X141137500Y-122325000D03*
X141137500Y-122975000D03*
X141137500Y-123625000D03*
X141137500Y-124275000D03*
X141137500Y-124925000D03*
X146862500Y-124925000D03*
X146862500Y-124275000D03*
X146862500Y-123625000D03*
X146862500Y-122975000D03*
X146862500Y-122325000D03*
X146862500Y-121675000D03*
X146862500Y-121025000D03*
X146862500Y-120375000D03*
X146862500Y-119725000D03*
X146862500Y-119075000D03*
%TD*%
%TO.C,J1*%
X117137500Y-87075000D03*
X117137500Y-87725000D03*
X117137500Y-88375000D03*
X117137500Y-89025000D03*
X117137500Y-89675000D03*
X117137500Y-90325000D03*
X117137500Y-90975000D03*
X117137500Y-91625000D03*
X117137500Y-92275000D03*
X117137500Y-92925000D03*
X122862500Y-92925000D03*
X122862500Y-92275000D03*
X122862500Y-91625000D03*
X122862500Y-90975000D03*
X122862500Y-90325000D03*
X122862500Y-89675000D03*
X122862500Y-89025000D03*
X122862500Y-88375000D03*
X122862500Y-87725000D03*
X122862500Y-87075000D03*
%TD*%
%TO.C,J1*%
X141137500Y-111075000D03*
X141137500Y-111725000D03*
X141137500Y-112375000D03*
X141137500Y-113025000D03*
X141137500Y-113675000D03*
X141137500Y-114325000D03*
X141137500Y-114975000D03*
X141137500Y-115625000D03*
X141137500Y-116275000D03*
X141137500Y-116925000D03*
X146862500Y-116925000D03*
X146862500Y-116275000D03*
X146862500Y-115625000D03*
X146862500Y-114975000D03*
X146862500Y-114325000D03*
X146862500Y-113675000D03*
X146862500Y-113025000D03*
X146862500Y-112375000D03*
X146862500Y-111725000D03*
X146862500Y-111075000D03*
%TD*%
%TO.C,J1*%
X117137500Y-103075000D03*
X117137500Y-103725000D03*
X117137500Y-104375000D03*
X117137500Y-105025000D03*
X117137500Y-105675000D03*
X117137500Y-106325000D03*
X117137500Y-106975000D03*
X117137500Y-107625000D03*
X117137500Y-108275000D03*
X117137500Y-108925000D03*
X122862500Y-108925000D03*
X122862500Y-108275000D03*
X122862500Y-107625000D03*
X122862500Y-106975000D03*
X122862500Y-106325000D03*
X122862500Y-105675000D03*
X122862500Y-105025000D03*
X122862500Y-104375000D03*
X122862500Y-103725000D03*
X122862500Y-103075000D03*
%TD*%
%TO.C,J1*%
X149137500Y-95075000D03*
X149137500Y-95725000D03*
X149137500Y-96375000D03*
X149137500Y-97025000D03*
X149137500Y-97675000D03*
X149137500Y-98325000D03*
X149137500Y-98975000D03*
X149137500Y-99625000D03*
X149137500Y-100275000D03*
X149137500Y-100925000D03*
X154862500Y-100925000D03*
X154862500Y-100275000D03*
X154862500Y-99625000D03*
X154862500Y-98975000D03*
X154862500Y-98325000D03*
X154862500Y-97675000D03*
X154862500Y-97025000D03*
X154862500Y-96375000D03*
X154862500Y-95725000D03*
X154862500Y-95075000D03*
%TD*%
%TO.C,J1*%
X141137500Y-103075000D03*
X141137500Y-103725000D03*
X141137500Y-104375000D03*
X141137500Y-105025000D03*
X141137500Y-105675000D03*
X141137500Y-106325000D03*
X141137500Y-106975000D03*
X141137500Y-107625000D03*
X141137500Y-108275000D03*
X141137500Y-108925000D03*
X146862500Y-108925000D03*
X146862500Y-108275000D03*
X146862500Y-107625000D03*
X146862500Y-106975000D03*
X146862500Y-106325000D03*
X146862500Y-105675000D03*
X146862500Y-105025000D03*
X146862500Y-104375000D03*
X146862500Y-103725000D03*
X146862500Y-103075000D03*
%TD*%
%TO.C,J1*%
X157137500Y-111075000D03*
X157137500Y-111725000D03*
X157137500Y-112375000D03*
X157137500Y-113025000D03*
X157137500Y-113675000D03*
X157137500Y-114325000D03*
X157137500Y-114975000D03*
X157137500Y-115625000D03*
X157137500Y-116275000D03*
X157137500Y-116925000D03*
X162862500Y-116925000D03*
X162862500Y-116275000D03*
X162862500Y-115625000D03*
X162862500Y-114975000D03*
X162862500Y-114325000D03*
X162862500Y-113675000D03*
X162862500Y-113025000D03*
X162862500Y-112375000D03*
X162862500Y-111725000D03*
X162862500Y-111075000D03*
%TD*%
%TO.C,J1*%
X125137500Y-95075000D03*
X125137500Y-95725000D03*
X125137500Y-96375000D03*
X125137500Y-97025000D03*
X125137500Y-97675000D03*
X125137500Y-98325000D03*
X125137500Y-98975000D03*
X125137500Y-99625000D03*
X125137500Y-100275000D03*
X125137500Y-100925000D03*
X130862500Y-100925000D03*
X130862500Y-100275000D03*
X130862500Y-99625000D03*
X130862500Y-98975000D03*
X130862500Y-98325000D03*
X130862500Y-97675000D03*
X130862500Y-97025000D03*
X130862500Y-96375000D03*
X130862500Y-95725000D03*
X130862500Y-95075000D03*
%TD*%
%TO.C,J1*%
X157137500Y-87075000D03*
X157137500Y-87725000D03*
X157137500Y-88375000D03*
X157137500Y-89025000D03*
X157137500Y-89675000D03*
X157137500Y-90325000D03*
X157137500Y-90975000D03*
X157137500Y-91625000D03*
X157137500Y-92275000D03*
X157137500Y-92925000D03*
X162862500Y-92925000D03*
X162862500Y-92275000D03*
X162862500Y-91625000D03*
X162862500Y-90975000D03*
X162862500Y-90325000D03*
X162862500Y-89675000D03*
X162862500Y-89025000D03*
X162862500Y-88375000D03*
X162862500Y-87725000D03*
X162862500Y-87075000D03*
%TD*%
%TO.C,J1*%
X141137500Y-95075000D03*
X141137500Y-95725000D03*
X141137500Y-96375000D03*
X141137500Y-97025000D03*
X141137500Y-97675000D03*
X141137500Y-98325000D03*
X141137500Y-98975000D03*
X141137500Y-99625000D03*
X141137500Y-100275000D03*
X141137500Y-100925000D03*
X146862500Y-100925000D03*
X146862500Y-100275000D03*
X146862500Y-99625000D03*
X146862500Y-98975000D03*
X146862500Y-98325000D03*
X146862500Y-97675000D03*
X146862500Y-97025000D03*
X146862500Y-96375000D03*
X146862500Y-95725000D03*
X146862500Y-95075000D03*
%TD*%
%TO.C,J1*%
X149137500Y-111075000D03*
X149137500Y-111725000D03*
X149137500Y-112375000D03*
X149137500Y-113025000D03*
X149137500Y-113675000D03*
X149137500Y-114325000D03*
X149137500Y-114975000D03*
X149137500Y-115625000D03*
X149137500Y-116275000D03*
X149137500Y-116925000D03*
X154862500Y-116925000D03*
X154862500Y-116275000D03*
X154862500Y-115625000D03*
X154862500Y-114975000D03*
X154862500Y-114325000D03*
X154862500Y-113675000D03*
X154862500Y-113025000D03*
X154862500Y-112375000D03*
X154862500Y-111725000D03*
X154862500Y-111075000D03*
%TD*%
%TO.C,J1*%
X133137500Y-127075000D03*
X133137500Y-127725000D03*
X133137500Y-128375000D03*
X133137500Y-129025000D03*
X133137500Y-129675000D03*
X133137500Y-130325000D03*
X133137500Y-130975000D03*
X133137500Y-131625000D03*
X133137500Y-132275000D03*
X133137500Y-132925000D03*
X138862500Y-132925000D03*
X138862500Y-132275000D03*
X138862500Y-131625000D03*
X138862500Y-130975000D03*
X138862500Y-130325000D03*
X138862500Y-129675000D03*
X138862500Y-129025000D03*
X138862500Y-128375000D03*
X138862500Y-127725000D03*
X138862500Y-127075000D03*
%TD*%
%TO.C,J1*%
X157137500Y-119075000D03*
X157137500Y-119725000D03*
X157137500Y-120375000D03*
X157137500Y-121025000D03*
X157137500Y-121675000D03*
X157137500Y-122325000D03*
X157137500Y-122975000D03*
X157137500Y-123625000D03*
X157137500Y-124275000D03*
X157137500Y-124925000D03*
X162862500Y-124925000D03*
X162862500Y-124275000D03*
X162862500Y-123625000D03*
X162862500Y-122975000D03*
X162862500Y-122325000D03*
X162862500Y-121675000D03*
X162862500Y-121025000D03*
X162862500Y-120375000D03*
X162862500Y-119725000D03*
X162862500Y-119075000D03*
%TD*%
%TO.C,J1*%
X149137500Y-87075000D03*
X149137500Y-87725000D03*
X149137500Y-88375000D03*
X149137500Y-89025000D03*
X149137500Y-89675000D03*
X149137500Y-90325000D03*
X149137500Y-90975000D03*
X149137500Y-91625000D03*
X149137500Y-92275000D03*
X149137500Y-92925000D03*
X154862500Y-92925000D03*
X154862500Y-92275000D03*
X154862500Y-91625000D03*
X154862500Y-90975000D03*
X154862500Y-90325000D03*
X154862500Y-89675000D03*
X154862500Y-89025000D03*
X154862500Y-88375000D03*
X154862500Y-87725000D03*
X154862500Y-87075000D03*
%TD*%
%TO.C,J1*%
X133137500Y-119075000D03*
X133137500Y-119725000D03*
X133137500Y-120375000D03*
X133137500Y-121025000D03*
X133137500Y-121675000D03*
X133137500Y-122325000D03*
X133137500Y-122975000D03*
X133137500Y-123625000D03*
X133137500Y-124275000D03*
X133137500Y-124925000D03*
X138862500Y-124925000D03*
X138862500Y-124275000D03*
X138862500Y-123625000D03*
X138862500Y-122975000D03*
X138862500Y-122325000D03*
X138862500Y-121675000D03*
X138862500Y-121025000D03*
X138862500Y-120375000D03*
X138862500Y-119725000D03*
X138862500Y-119075000D03*
%TD*%
%TO.C,J1*%
X117137500Y-119075000D03*
X117137500Y-119725000D03*
X117137500Y-120375000D03*
X117137500Y-121025000D03*
X117137500Y-121675000D03*
X117137500Y-122325000D03*
X117137500Y-122975000D03*
X117137500Y-123625000D03*
X117137500Y-124275000D03*
X117137500Y-124925000D03*
X122862500Y-124925000D03*
X122862500Y-124275000D03*
X122862500Y-123625000D03*
X122862500Y-122975000D03*
X122862500Y-122325000D03*
X122862500Y-121675000D03*
X122862500Y-121025000D03*
X122862500Y-120375000D03*
X122862500Y-119725000D03*
X122862500Y-119075000D03*
%TD*%
%TO.C,J1*%
X149137500Y-119075000D03*
X149137500Y-119725000D03*
X149137500Y-120375000D03*
X149137500Y-121025000D03*
X149137500Y-121675000D03*
X149137500Y-122325000D03*
X149137500Y-122975000D03*
X149137500Y-123625000D03*
X149137500Y-124275000D03*
X149137500Y-124925000D03*
X154862500Y-124925000D03*
X154862500Y-124275000D03*
X154862500Y-123625000D03*
X154862500Y-122975000D03*
X154862500Y-122325000D03*
X154862500Y-121675000D03*
X154862500Y-121025000D03*
X154862500Y-120375000D03*
X154862500Y-119725000D03*
X154862500Y-119075000D03*
%TD*%
%TO.C,J1*%
X133137500Y-111075000D03*
X133137500Y-111725000D03*
X133137500Y-112375000D03*
X133137500Y-113025000D03*
X133137500Y-113675000D03*
X133137500Y-114325000D03*
X133137500Y-114975000D03*
X133137500Y-115625000D03*
X133137500Y-116275000D03*
X133137500Y-116925000D03*
X138862500Y-116925000D03*
X138862500Y-116275000D03*
X138862500Y-115625000D03*
X138862500Y-114975000D03*
X138862500Y-114325000D03*
X138862500Y-113675000D03*
X138862500Y-113025000D03*
X138862500Y-112375000D03*
X138862500Y-111725000D03*
X138862500Y-111075000D03*
%TD*%
%TO.C,J1*%
X141137500Y-87075000D03*
X141137500Y-87725000D03*
X141137500Y-88375000D03*
X141137500Y-89025000D03*
X141137500Y-89675000D03*
X141137500Y-90325000D03*
X141137500Y-90975000D03*
X141137500Y-91625000D03*
X141137500Y-92275000D03*
X141137500Y-92925000D03*
X146862500Y-92925000D03*
X146862500Y-92275000D03*
X146862500Y-91625000D03*
X146862500Y-90975000D03*
X146862500Y-90325000D03*
X146862500Y-89675000D03*
X146862500Y-89025000D03*
X146862500Y-88375000D03*
X146862500Y-87725000D03*
X146862500Y-87075000D03*
%TD*%
%TO.C,J1*%
X125137500Y-111075000D03*
X125137500Y-111725000D03*
X125137500Y-112375000D03*
X125137500Y-113025000D03*
X125137500Y-113675000D03*
X125137500Y-114325000D03*
X125137500Y-114975000D03*
X125137500Y-115625000D03*
X125137500Y-116275000D03*
X125137500Y-116925000D03*
X130862500Y-116925000D03*
X130862500Y-116275000D03*
X130862500Y-115625000D03*
X130862500Y-114975000D03*
X130862500Y-114325000D03*
X130862500Y-113675000D03*
X130862500Y-113025000D03*
X130862500Y-112375000D03*
X130862500Y-111725000D03*
X130862500Y-111075000D03*
%TD*%
%TO.C,J1*%
X117137500Y-95075000D03*
X117137500Y-95725000D03*
X117137500Y-96375000D03*
X117137500Y-97025000D03*
X117137500Y-97675000D03*
X117137500Y-98325000D03*
X117137500Y-98975000D03*
X117137500Y-99625000D03*
X117137500Y-100275000D03*
X117137500Y-100925000D03*
X122862500Y-100925000D03*
X122862500Y-100275000D03*
X122862500Y-99625000D03*
X122862500Y-98975000D03*
X122862500Y-98325000D03*
X122862500Y-97675000D03*
X122862500Y-97025000D03*
X122862500Y-96375000D03*
X122862500Y-95725000D03*
X122862500Y-95075000D03*
%TD*%
%TO.C,J1*%
X117137500Y-127075000D03*
X117137500Y-127725000D03*
X117137500Y-128375000D03*
X117137500Y-129025000D03*
X117137500Y-129675000D03*
X117137500Y-130325000D03*
X117137500Y-130975000D03*
X117137500Y-131625000D03*
X117137500Y-132275000D03*
X117137500Y-132925000D03*
X122862500Y-132925000D03*
X122862500Y-132275000D03*
X122862500Y-131625000D03*
X122862500Y-130975000D03*
X122862500Y-130325000D03*
X122862500Y-129675000D03*
X122862500Y-129025000D03*
X122862500Y-128375000D03*
X122862500Y-127725000D03*
X122862500Y-127075000D03*
%TD*%
%TO.C,J1*%
X133137500Y-95075000D03*
X133137500Y-95725000D03*
X133137500Y-96375000D03*
X133137500Y-97025000D03*
X133137500Y-97675000D03*
X133137500Y-98325000D03*
X133137500Y-98975000D03*
X133137500Y-99625000D03*
X133137500Y-100275000D03*
X133137500Y-100925000D03*
X138862500Y-100925000D03*
X138862500Y-100275000D03*
X138862500Y-99625000D03*
X138862500Y-98975000D03*
X138862500Y-98325000D03*
X138862500Y-97675000D03*
X138862500Y-97025000D03*
X138862500Y-96375000D03*
X138862500Y-95725000D03*
X138862500Y-95075000D03*
%TD*%
%TO.C,J1*%
X157137500Y-103075000D03*
X157137500Y-103725000D03*
X157137500Y-104375000D03*
X157137500Y-105025000D03*
X157137500Y-105675000D03*
X157137500Y-106325000D03*
X157137500Y-106975000D03*
X157137500Y-107625000D03*
X157137500Y-108275000D03*
X157137500Y-108925000D03*
X162862500Y-108925000D03*
X162862500Y-108275000D03*
X162862500Y-107625000D03*
X162862500Y-106975000D03*
X162862500Y-106325000D03*
X162862500Y-105675000D03*
X162862500Y-105025000D03*
X162862500Y-104375000D03*
X162862500Y-103725000D03*
X162862500Y-103075000D03*
%TD*%
%TO.C,J1*%
X125137500Y-127075000D03*
X125137500Y-127725000D03*
X125137500Y-128375000D03*
X125137500Y-129025000D03*
X125137500Y-129675000D03*
X125137500Y-130325000D03*
X125137500Y-130975000D03*
X125137500Y-131625000D03*
X125137500Y-132275000D03*
X125137500Y-132925000D03*
X130862500Y-132925000D03*
X130862500Y-132275000D03*
X130862500Y-131625000D03*
X130862500Y-130975000D03*
X130862500Y-130325000D03*
X130862500Y-129675000D03*
X130862500Y-129025000D03*
X130862500Y-128375000D03*
X130862500Y-127725000D03*
X130862500Y-127075000D03*
%TD*%
%TO.C,J1*%
X149137500Y-103075000D03*
X149137500Y-103725000D03*
X149137500Y-104375000D03*
X149137500Y-105025000D03*
X149137500Y-105675000D03*
X149137500Y-106325000D03*
X149137500Y-106975000D03*
X149137500Y-107625000D03*
X149137500Y-108275000D03*
X149137500Y-108925000D03*
X154862500Y-108925000D03*
X154862500Y-108275000D03*
X154862500Y-107625000D03*
X154862500Y-106975000D03*
X154862500Y-106325000D03*
X154862500Y-105675000D03*
X154862500Y-105025000D03*
X154862500Y-104375000D03*
X154862500Y-103725000D03*
X154862500Y-103075000D03*
%TD*%
%TO.C,J1*%
X149137500Y-127075000D03*
X149137500Y-127725000D03*
X149137500Y-128375000D03*
X149137500Y-129025000D03*
X149137500Y-129675000D03*
X149137500Y-130325000D03*
X149137500Y-130975000D03*
X149137500Y-131625000D03*
X149137500Y-132275000D03*
X149137500Y-132925000D03*
X154862500Y-132925000D03*
X154862500Y-132275000D03*
X154862500Y-131625000D03*
X154862500Y-130975000D03*
X154862500Y-130325000D03*
X154862500Y-129675000D03*
X154862500Y-129025000D03*
X154862500Y-128375000D03*
X154862500Y-127725000D03*
X154862500Y-127075000D03*
%TD*%
%TO.C,J1*%
X125137500Y-103075000D03*
X125137500Y-103725000D03*
X125137500Y-104375000D03*
X125137500Y-105025000D03*
X125137500Y-105675000D03*
X125137500Y-106325000D03*
X125137500Y-106975000D03*
X125137500Y-107625000D03*
X125137500Y-108275000D03*
X125137500Y-108925000D03*
X130862500Y-108925000D03*
X130862500Y-108275000D03*
X130862500Y-107625000D03*
X130862500Y-106975000D03*
X130862500Y-106325000D03*
X130862500Y-105675000D03*
X130862500Y-105025000D03*
X130862500Y-104375000D03*
X130862500Y-103725000D03*
X130862500Y-103075000D03*
%TD*%
M02*
