%TF.GenerationSoftware,KiCad,Pcbnew,6.99.0-76368af7*%
%TF.CreationDate,2022-01-10T14:24:58+01:00*%
%TF.ProjectId,hc245t_bypass_esd-panel,68633234-3574-45f6-9279-706173735f65,rev?*%
%TF.SameCoordinates,Original*%
%TF.FileFunction,Copper,L2,Bot*%
%TF.FilePolarity,Positive*%
%FSLAX46Y46*%
G04 Gerber Fmt 4.6, Leading zero omitted, Abs format (unit mm)*
G04 Created by KiCad (PCBNEW 6.99.0-76368af7) date 2022-01-10 14:24:58*
%MOMM*%
%LPD*%
G01*
G04 APERTURE LIST*
G04 Aperture macros list*
%AMRoundRect*
0 Rectangle with rounded corners*
0 $1 Rounding radius*
0 $2 $3 $4 $5 $6 $7 $8 $9 X,Y pos of 4 corners*
0 Add a 4 corners polygon primitive as box body*
4,1,4,$2,$3,$4,$5,$6,$7,$8,$9,$2,$3,0*
0 Add four circle primitives for the rounded corners*
1,1,$1+$1,$2,$3*
1,1,$1+$1,$4,$5*
1,1,$1+$1,$6,$7*
1,1,$1+$1,$8,$9*
0 Add four rect primitives between the rounded corners*
20,1,$1+$1,$2,$3,$4,$5,0*
20,1,$1+$1,$4,$5,$6,$7,0*
20,1,$1+$1,$6,$7,$8,$9,0*
20,1,$1+$1,$8,$9,$2,$3,0*%
G04 Aperture macros list end*
%TA.AperFunction,ComponentPad*%
%ADD10RoundRect,0.100000X-0.637500X-0.100000X0.637500X-0.100000X0.637500X0.100000X-0.637500X0.100000X0*%
%TD*%
%TA.AperFunction,Conductor*%
%ADD11C,0.250000*%
%TD*%
G04 APERTURE END LIST*
D10*
%TO.P,J1,1,A->B*%
%TO.N,N/C*%
X157137500Y-95075000D03*
%TO.P,J1,2,A0*%
X157137500Y-95725000D03*
%TO.P,J1,3,A1*%
X157137500Y-96375000D03*
%TO.P,J1,4,A2*%
X157137500Y-97025000D03*
%TO.P,J1,5,A3*%
X157137500Y-97675000D03*
%TO.P,J1,6,A4*%
X157137500Y-98325000D03*
%TO.P,J1,7,A5*%
X157137500Y-98975000D03*
%TO.P,J1,8,A6*%
X157137500Y-99625000D03*
%TO.P,J1,9,A7*%
X157137500Y-100275000D03*
%TO.P,J1,10,GND*%
X157137500Y-100925000D03*
%TO.P,J1,11,B7*%
X162862500Y-100925000D03*
%TO.P,J1,12,B6*%
X162862500Y-100275000D03*
%TO.P,J1,13,B5*%
X162862500Y-99625000D03*
%TO.P,J1,14,B4*%
X162862500Y-98975000D03*
%TO.P,J1,15,B3*%
X162862500Y-98325000D03*
%TO.P,J1,16,B2*%
X162862500Y-97675000D03*
%TO.P,J1,17,B1*%
X162862500Y-97025000D03*
%TO.P,J1,18,B0*%
X162862500Y-96375000D03*
%TO.P,J1,19,CE*%
X162862500Y-95725000D03*
%TO.P,J1,20,VCC*%
X162862500Y-95075000D03*
%TD*%
%TO.P,J1,1,A->B*%
%TO.N,N/C*%
X133137500Y-103075000D03*
%TO.P,J1,2,A0*%
X133137500Y-103725000D03*
%TO.P,J1,3,A1*%
X133137500Y-104375000D03*
%TO.P,J1,4,A2*%
X133137500Y-105025000D03*
%TO.P,J1,5,A3*%
X133137500Y-105675000D03*
%TO.P,J1,6,A4*%
X133137500Y-106325000D03*
%TO.P,J1,7,A5*%
X133137500Y-106975000D03*
%TO.P,J1,8,A6*%
X133137500Y-107625000D03*
%TO.P,J1,9,A7*%
X133137500Y-108275000D03*
%TO.P,J1,10,GND*%
X133137500Y-108925000D03*
%TO.P,J1,11,B7*%
X138862500Y-108925000D03*
%TO.P,J1,12,B6*%
X138862500Y-108275000D03*
%TO.P,J1,13,B5*%
X138862500Y-107625000D03*
%TO.P,J1,14,B4*%
X138862500Y-106975000D03*
%TO.P,J1,15,B3*%
X138862500Y-106325000D03*
%TO.P,J1,16,B2*%
X138862500Y-105675000D03*
%TO.P,J1,17,B1*%
X138862500Y-105025000D03*
%TO.P,J1,18,B0*%
X138862500Y-104375000D03*
%TO.P,J1,19,CE*%
X138862500Y-103725000D03*
%TO.P,J1,20,VCC*%
X138862500Y-103075000D03*
%TD*%
%TO.P,J1,1,A->B*%
%TO.N,N/C*%
X125137500Y-119075000D03*
%TO.P,J1,2,A0*%
X125137500Y-119725000D03*
%TO.P,J1,3,A1*%
X125137500Y-120375000D03*
%TO.P,J1,4,A2*%
X125137500Y-121025000D03*
%TO.P,J1,5,A3*%
X125137500Y-121675000D03*
%TO.P,J1,6,A4*%
X125137500Y-122325000D03*
%TO.P,J1,7,A5*%
X125137500Y-122975000D03*
%TO.P,J1,8,A6*%
X125137500Y-123625000D03*
%TO.P,J1,9,A7*%
X125137500Y-124275000D03*
%TO.P,J1,10,GND*%
X125137500Y-124925000D03*
%TO.P,J1,11,B7*%
X130862500Y-124925000D03*
%TO.P,J1,12,B6*%
X130862500Y-124275000D03*
%TO.P,J1,13,B5*%
X130862500Y-123625000D03*
%TO.P,J1,14,B4*%
X130862500Y-122975000D03*
%TO.P,J1,15,B3*%
X130862500Y-122325000D03*
%TO.P,J1,16,B2*%
X130862500Y-121675000D03*
%TO.P,J1,17,B1*%
X130862500Y-121025000D03*
%TO.P,J1,18,B0*%
X130862500Y-120375000D03*
%TO.P,J1,19,CE*%
X130862500Y-119725000D03*
%TO.P,J1,20,VCC*%
X130862500Y-119075000D03*
%TD*%
%TO.P,J1,1,A->B*%
%TO.N,N/C*%
X141137500Y-127075000D03*
%TO.P,J1,2,A0*%
X141137500Y-127725000D03*
%TO.P,J1,3,A1*%
X141137500Y-128375000D03*
%TO.P,J1,4,A2*%
X141137500Y-129025000D03*
%TO.P,J1,5,A3*%
X141137500Y-129675000D03*
%TO.P,J1,6,A4*%
X141137500Y-130325000D03*
%TO.P,J1,7,A5*%
X141137500Y-130975000D03*
%TO.P,J1,8,A6*%
X141137500Y-131625000D03*
%TO.P,J1,9,A7*%
X141137500Y-132275000D03*
%TO.P,J1,10,GND*%
X141137500Y-132925000D03*
%TO.P,J1,11,B7*%
X146862500Y-132925000D03*
%TO.P,J1,12,B6*%
X146862500Y-132275000D03*
%TO.P,J1,13,B5*%
X146862500Y-131625000D03*
%TO.P,J1,14,B4*%
X146862500Y-130975000D03*
%TO.P,J1,15,B3*%
X146862500Y-130325000D03*
%TO.P,J1,16,B2*%
X146862500Y-129675000D03*
%TO.P,J1,17,B1*%
X146862500Y-129025000D03*
%TO.P,J1,18,B0*%
X146862500Y-128375000D03*
%TO.P,J1,19,CE*%
X146862500Y-127725000D03*
%TO.P,J1,20,VCC*%
X146862500Y-127075000D03*
%TD*%
%TO.P,J1,1,A->B*%
%TO.N,N/C*%
X157137500Y-127075000D03*
%TO.P,J1,2,A0*%
X157137500Y-127725000D03*
%TO.P,J1,3,A1*%
X157137500Y-128375000D03*
%TO.P,J1,4,A2*%
X157137500Y-129025000D03*
%TO.P,J1,5,A3*%
X157137500Y-129675000D03*
%TO.P,J1,6,A4*%
X157137500Y-130325000D03*
%TO.P,J1,7,A5*%
X157137500Y-130975000D03*
%TO.P,J1,8,A6*%
X157137500Y-131625000D03*
%TO.P,J1,9,A7*%
X157137500Y-132275000D03*
%TO.P,J1,10,GND*%
X157137500Y-132925000D03*
%TO.P,J1,11,B7*%
X162862500Y-132925000D03*
%TO.P,J1,12,B6*%
X162862500Y-132275000D03*
%TO.P,J1,13,B5*%
X162862500Y-131625000D03*
%TO.P,J1,14,B4*%
X162862500Y-130975000D03*
%TO.P,J1,15,B3*%
X162862500Y-130325000D03*
%TO.P,J1,16,B2*%
X162862500Y-129675000D03*
%TO.P,J1,17,B1*%
X162862500Y-129025000D03*
%TO.P,J1,18,B0*%
X162862500Y-128375000D03*
%TO.P,J1,19,CE*%
X162862500Y-127725000D03*
%TO.P,J1,20,VCC*%
X162862500Y-127075000D03*
%TD*%
%TO.P,J1,1,A->B*%
%TO.N,N/C*%
X125137500Y-87075000D03*
%TO.P,J1,2,A0*%
X125137500Y-87725000D03*
%TO.P,J1,3,A1*%
X125137500Y-88375000D03*
%TO.P,J1,4,A2*%
X125137500Y-89025000D03*
%TO.P,J1,5,A3*%
X125137500Y-89675000D03*
%TO.P,J1,6,A4*%
X125137500Y-90325000D03*
%TO.P,J1,7,A5*%
X125137500Y-90975000D03*
%TO.P,J1,8,A6*%
X125137500Y-91625000D03*
%TO.P,J1,9,A7*%
X125137500Y-92275000D03*
%TO.P,J1,10,GND*%
X125137500Y-92925000D03*
%TO.P,J1,11,B7*%
X130862500Y-92925000D03*
%TO.P,J1,12,B6*%
X130862500Y-92275000D03*
%TO.P,J1,13,B5*%
X130862500Y-91625000D03*
%TO.P,J1,14,B4*%
X130862500Y-90975000D03*
%TO.P,J1,15,B3*%
X130862500Y-90325000D03*
%TO.P,J1,16,B2*%
X130862500Y-89675000D03*
%TO.P,J1,17,B1*%
X130862500Y-89025000D03*
%TO.P,J1,18,B0*%
X130862500Y-88375000D03*
%TO.P,J1,19,CE*%
X130862500Y-87725000D03*
%TO.P,J1,20,VCC*%
X130862500Y-87075000D03*
%TD*%
%TO.P,J1,1,A->B*%
%TO.N,N/C*%
X133137500Y-87075000D03*
%TO.P,J1,2,A0*%
X133137500Y-87725000D03*
%TO.P,J1,3,A1*%
X133137500Y-88375000D03*
%TO.P,J1,4,A2*%
X133137500Y-89025000D03*
%TO.P,J1,5,A3*%
X133137500Y-89675000D03*
%TO.P,J1,6,A4*%
X133137500Y-90325000D03*
%TO.P,J1,7,A5*%
X133137500Y-90975000D03*
%TO.P,J1,8,A6*%
X133137500Y-91625000D03*
%TO.P,J1,9,A7*%
X133137500Y-92275000D03*
%TO.P,J1,10,GND*%
X133137500Y-92925000D03*
%TO.P,J1,11,B7*%
X138862500Y-92925000D03*
%TO.P,J1,12,B6*%
X138862500Y-92275000D03*
%TO.P,J1,13,B5*%
X138862500Y-91625000D03*
%TO.P,J1,14,B4*%
X138862500Y-90975000D03*
%TO.P,J1,15,B3*%
X138862500Y-90325000D03*
%TO.P,J1,16,B2*%
X138862500Y-89675000D03*
%TO.P,J1,17,B1*%
X138862500Y-89025000D03*
%TO.P,J1,18,B0*%
X138862500Y-88375000D03*
%TO.P,J1,19,CE*%
X138862500Y-87725000D03*
%TO.P,J1,20,VCC*%
X138862500Y-87075000D03*
%TD*%
%TO.P,J1,1,A->B*%
%TO.N,N/C*%
X117137500Y-111075000D03*
%TO.P,J1,2,A0*%
X117137500Y-111725000D03*
%TO.P,J1,3,A1*%
X117137500Y-112375000D03*
%TO.P,J1,4,A2*%
X117137500Y-113025000D03*
%TO.P,J1,5,A3*%
X117137500Y-113675000D03*
%TO.P,J1,6,A4*%
X117137500Y-114325000D03*
%TO.P,J1,7,A5*%
X117137500Y-114975000D03*
%TO.P,J1,8,A6*%
X117137500Y-115625000D03*
%TO.P,J1,9,A7*%
X117137500Y-116275000D03*
%TO.P,J1,10,GND*%
X117137500Y-116925000D03*
%TO.P,J1,11,B7*%
X122862500Y-116925000D03*
%TO.P,J1,12,B6*%
X122862500Y-116275000D03*
%TO.P,J1,13,B5*%
X122862500Y-115625000D03*
%TO.P,J1,14,B4*%
X122862500Y-114975000D03*
%TO.P,J1,15,B3*%
X122862500Y-114325000D03*
%TO.P,J1,16,B2*%
X122862500Y-113675000D03*
%TO.P,J1,17,B1*%
X122862500Y-113025000D03*
%TO.P,J1,18,B0*%
X122862500Y-112375000D03*
%TO.P,J1,19,CE*%
X122862500Y-111725000D03*
%TO.P,J1,20,VCC*%
X122862500Y-111075000D03*
%TD*%
%TO.P,J1,1,A->B*%
%TO.N,N/C*%
X141137500Y-119075000D03*
%TO.P,J1,2,A0*%
X141137500Y-119725000D03*
%TO.P,J1,3,A1*%
X141137500Y-120375000D03*
%TO.P,J1,4,A2*%
X141137500Y-121025000D03*
%TO.P,J1,5,A3*%
X141137500Y-121675000D03*
%TO.P,J1,6,A4*%
X141137500Y-122325000D03*
%TO.P,J1,7,A5*%
X141137500Y-122975000D03*
%TO.P,J1,8,A6*%
X141137500Y-123625000D03*
%TO.P,J1,9,A7*%
X141137500Y-124275000D03*
%TO.P,J1,10,GND*%
X141137500Y-124925000D03*
%TO.P,J1,11,B7*%
X146862500Y-124925000D03*
%TO.P,J1,12,B6*%
X146862500Y-124275000D03*
%TO.P,J1,13,B5*%
X146862500Y-123625000D03*
%TO.P,J1,14,B4*%
X146862500Y-122975000D03*
%TO.P,J1,15,B3*%
X146862500Y-122325000D03*
%TO.P,J1,16,B2*%
X146862500Y-121675000D03*
%TO.P,J1,17,B1*%
X146862500Y-121025000D03*
%TO.P,J1,18,B0*%
X146862500Y-120375000D03*
%TO.P,J1,19,CE*%
X146862500Y-119725000D03*
%TO.P,J1,20,VCC*%
X146862500Y-119075000D03*
%TD*%
%TO.P,J1,1,A->B*%
%TO.N,N/C*%
X117137500Y-87075000D03*
%TO.P,J1,2,A0*%
X117137500Y-87725000D03*
%TO.P,J1,3,A1*%
X117137500Y-88375000D03*
%TO.P,J1,4,A2*%
X117137500Y-89025000D03*
%TO.P,J1,5,A3*%
X117137500Y-89675000D03*
%TO.P,J1,6,A4*%
X117137500Y-90325000D03*
%TO.P,J1,7,A5*%
X117137500Y-90975000D03*
%TO.P,J1,8,A6*%
X117137500Y-91625000D03*
%TO.P,J1,9,A7*%
X117137500Y-92275000D03*
%TO.P,J1,10,GND*%
X117137500Y-92925000D03*
%TO.P,J1,11,B7*%
X122862500Y-92925000D03*
%TO.P,J1,12,B6*%
X122862500Y-92275000D03*
%TO.P,J1,13,B5*%
X122862500Y-91625000D03*
%TO.P,J1,14,B4*%
X122862500Y-90975000D03*
%TO.P,J1,15,B3*%
X122862500Y-90325000D03*
%TO.P,J1,16,B2*%
X122862500Y-89675000D03*
%TO.P,J1,17,B1*%
X122862500Y-89025000D03*
%TO.P,J1,18,B0*%
X122862500Y-88375000D03*
%TO.P,J1,19,CE*%
X122862500Y-87725000D03*
%TO.P,J1,20,VCC*%
X122862500Y-87075000D03*
%TD*%
%TO.P,J1,1,A->B*%
%TO.N,N/C*%
X141137500Y-111075000D03*
%TO.P,J1,2,A0*%
X141137500Y-111725000D03*
%TO.P,J1,3,A1*%
X141137500Y-112375000D03*
%TO.P,J1,4,A2*%
X141137500Y-113025000D03*
%TO.P,J1,5,A3*%
X141137500Y-113675000D03*
%TO.P,J1,6,A4*%
X141137500Y-114325000D03*
%TO.P,J1,7,A5*%
X141137500Y-114975000D03*
%TO.P,J1,8,A6*%
X141137500Y-115625000D03*
%TO.P,J1,9,A7*%
X141137500Y-116275000D03*
%TO.P,J1,10,GND*%
X141137500Y-116925000D03*
%TO.P,J1,11,B7*%
X146862500Y-116925000D03*
%TO.P,J1,12,B6*%
X146862500Y-116275000D03*
%TO.P,J1,13,B5*%
X146862500Y-115625000D03*
%TO.P,J1,14,B4*%
X146862500Y-114975000D03*
%TO.P,J1,15,B3*%
X146862500Y-114325000D03*
%TO.P,J1,16,B2*%
X146862500Y-113675000D03*
%TO.P,J1,17,B1*%
X146862500Y-113025000D03*
%TO.P,J1,18,B0*%
X146862500Y-112375000D03*
%TO.P,J1,19,CE*%
X146862500Y-111725000D03*
%TO.P,J1,20,VCC*%
X146862500Y-111075000D03*
%TD*%
%TO.P,J1,1,A->B*%
%TO.N,N/C*%
X117137500Y-103075000D03*
%TO.P,J1,2,A0*%
X117137500Y-103725000D03*
%TO.P,J1,3,A1*%
X117137500Y-104375000D03*
%TO.P,J1,4,A2*%
X117137500Y-105025000D03*
%TO.P,J1,5,A3*%
X117137500Y-105675000D03*
%TO.P,J1,6,A4*%
X117137500Y-106325000D03*
%TO.P,J1,7,A5*%
X117137500Y-106975000D03*
%TO.P,J1,8,A6*%
X117137500Y-107625000D03*
%TO.P,J1,9,A7*%
X117137500Y-108275000D03*
%TO.P,J1,10,GND*%
X117137500Y-108925000D03*
%TO.P,J1,11,B7*%
X122862500Y-108925000D03*
%TO.P,J1,12,B6*%
X122862500Y-108275000D03*
%TO.P,J1,13,B5*%
X122862500Y-107625000D03*
%TO.P,J1,14,B4*%
X122862500Y-106975000D03*
%TO.P,J1,15,B3*%
X122862500Y-106325000D03*
%TO.P,J1,16,B2*%
X122862500Y-105675000D03*
%TO.P,J1,17,B1*%
X122862500Y-105025000D03*
%TO.P,J1,18,B0*%
X122862500Y-104375000D03*
%TO.P,J1,19,CE*%
X122862500Y-103725000D03*
%TO.P,J1,20,VCC*%
X122862500Y-103075000D03*
%TD*%
%TO.P,J1,1,A->B*%
%TO.N,N/C*%
X149137500Y-95075000D03*
%TO.P,J1,2,A0*%
X149137500Y-95725000D03*
%TO.P,J1,3,A1*%
X149137500Y-96375000D03*
%TO.P,J1,4,A2*%
X149137500Y-97025000D03*
%TO.P,J1,5,A3*%
X149137500Y-97675000D03*
%TO.P,J1,6,A4*%
X149137500Y-98325000D03*
%TO.P,J1,7,A5*%
X149137500Y-98975000D03*
%TO.P,J1,8,A6*%
X149137500Y-99625000D03*
%TO.P,J1,9,A7*%
X149137500Y-100275000D03*
%TO.P,J1,10,GND*%
X149137500Y-100925000D03*
%TO.P,J1,11,B7*%
X154862500Y-100925000D03*
%TO.P,J1,12,B6*%
X154862500Y-100275000D03*
%TO.P,J1,13,B5*%
X154862500Y-99625000D03*
%TO.P,J1,14,B4*%
X154862500Y-98975000D03*
%TO.P,J1,15,B3*%
X154862500Y-98325000D03*
%TO.P,J1,16,B2*%
X154862500Y-97675000D03*
%TO.P,J1,17,B1*%
X154862500Y-97025000D03*
%TO.P,J1,18,B0*%
X154862500Y-96375000D03*
%TO.P,J1,19,CE*%
X154862500Y-95725000D03*
%TO.P,J1,20,VCC*%
X154862500Y-95075000D03*
%TD*%
%TO.P,J1,1,A->B*%
%TO.N,N/C*%
X141137500Y-103075000D03*
%TO.P,J1,2,A0*%
X141137500Y-103725000D03*
%TO.P,J1,3,A1*%
X141137500Y-104375000D03*
%TO.P,J1,4,A2*%
X141137500Y-105025000D03*
%TO.P,J1,5,A3*%
X141137500Y-105675000D03*
%TO.P,J1,6,A4*%
X141137500Y-106325000D03*
%TO.P,J1,7,A5*%
X141137500Y-106975000D03*
%TO.P,J1,8,A6*%
X141137500Y-107625000D03*
%TO.P,J1,9,A7*%
X141137500Y-108275000D03*
%TO.P,J1,10,GND*%
X141137500Y-108925000D03*
%TO.P,J1,11,B7*%
X146862500Y-108925000D03*
%TO.P,J1,12,B6*%
X146862500Y-108275000D03*
%TO.P,J1,13,B5*%
X146862500Y-107625000D03*
%TO.P,J1,14,B4*%
X146862500Y-106975000D03*
%TO.P,J1,15,B3*%
X146862500Y-106325000D03*
%TO.P,J1,16,B2*%
X146862500Y-105675000D03*
%TO.P,J1,17,B1*%
X146862500Y-105025000D03*
%TO.P,J1,18,B0*%
X146862500Y-104375000D03*
%TO.P,J1,19,CE*%
X146862500Y-103725000D03*
%TO.P,J1,20,VCC*%
X146862500Y-103075000D03*
%TD*%
%TO.P,J1,1,A->B*%
%TO.N,N/C*%
X157137500Y-111075000D03*
%TO.P,J1,2,A0*%
X157137500Y-111725000D03*
%TO.P,J1,3,A1*%
X157137500Y-112375000D03*
%TO.P,J1,4,A2*%
X157137500Y-113025000D03*
%TO.P,J1,5,A3*%
X157137500Y-113675000D03*
%TO.P,J1,6,A4*%
X157137500Y-114325000D03*
%TO.P,J1,7,A5*%
X157137500Y-114975000D03*
%TO.P,J1,8,A6*%
X157137500Y-115625000D03*
%TO.P,J1,9,A7*%
X157137500Y-116275000D03*
%TO.P,J1,10,GND*%
X157137500Y-116925000D03*
%TO.P,J1,11,B7*%
X162862500Y-116925000D03*
%TO.P,J1,12,B6*%
X162862500Y-116275000D03*
%TO.P,J1,13,B5*%
X162862500Y-115625000D03*
%TO.P,J1,14,B4*%
X162862500Y-114975000D03*
%TO.P,J1,15,B3*%
X162862500Y-114325000D03*
%TO.P,J1,16,B2*%
X162862500Y-113675000D03*
%TO.P,J1,17,B1*%
X162862500Y-113025000D03*
%TO.P,J1,18,B0*%
X162862500Y-112375000D03*
%TO.P,J1,19,CE*%
X162862500Y-111725000D03*
%TO.P,J1,20,VCC*%
X162862500Y-111075000D03*
%TD*%
%TO.P,J1,1,A->B*%
%TO.N,N/C*%
X125137500Y-95075000D03*
%TO.P,J1,2,A0*%
X125137500Y-95725000D03*
%TO.P,J1,3,A1*%
X125137500Y-96375000D03*
%TO.P,J1,4,A2*%
X125137500Y-97025000D03*
%TO.P,J1,5,A3*%
X125137500Y-97675000D03*
%TO.P,J1,6,A4*%
X125137500Y-98325000D03*
%TO.P,J1,7,A5*%
X125137500Y-98975000D03*
%TO.P,J1,8,A6*%
X125137500Y-99625000D03*
%TO.P,J1,9,A7*%
X125137500Y-100275000D03*
%TO.P,J1,10,GND*%
X125137500Y-100925000D03*
%TO.P,J1,11,B7*%
X130862500Y-100925000D03*
%TO.P,J1,12,B6*%
X130862500Y-100275000D03*
%TO.P,J1,13,B5*%
X130862500Y-99625000D03*
%TO.P,J1,14,B4*%
X130862500Y-98975000D03*
%TO.P,J1,15,B3*%
X130862500Y-98325000D03*
%TO.P,J1,16,B2*%
X130862500Y-97675000D03*
%TO.P,J1,17,B1*%
X130862500Y-97025000D03*
%TO.P,J1,18,B0*%
X130862500Y-96375000D03*
%TO.P,J1,19,CE*%
X130862500Y-95725000D03*
%TO.P,J1,20,VCC*%
X130862500Y-95075000D03*
%TD*%
%TO.P,J1,1,A->B*%
%TO.N,N/C*%
X157137500Y-87075000D03*
%TO.P,J1,2,A0*%
X157137500Y-87725000D03*
%TO.P,J1,3,A1*%
X157137500Y-88375000D03*
%TO.P,J1,4,A2*%
X157137500Y-89025000D03*
%TO.P,J1,5,A3*%
X157137500Y-89675000D03*
%TO.P,J1,6,A4*%
X157137500Y-90325000D03*
%TO.P,J1,7,A5*%
X157137500Y-90975000D03*
%TO.P,J1,8,A6*%
X157137500Y-91625000D03*
%TO.P,J1,9,A7*%
X157137500Y-92275000D03*
%TO.P,J1,10,GND*%
X157137500Y-92925000D03*
%TO.P,J1,11,B7*%
X162862500Y-92925000D03*
%TO.P,J1,12,B6*%
X162862500Y-92275000D03*
%TO.P,J1,13,B5*%
X162862500Y-91625000D03*
%TO.P,J1,14,B4*%
X162862500Y-90975000D03*
%TO.P,J1,15,B3*%
X162862500Y-90325000D03*
%TO.P,J1,16,B2*%
X162862500Y-89675000D03*
%TO.P,J1,17,B1*%
X162862500Y-89025000D03*
%TO.P,J1,18,B0*%
X162862500Y-88375000D03*
%TO.P,J1,19,CE*%
X162862500Y-87725000D03*
%TO.P,J1,20,VCC*%
X162862500Y-87075000D03*
%TD*%
%TO.P,J1,1,A->B*%
%TO.N,N/C*%
X141137500Y-95075000D03*
%TO.P,J1,2,A0*%
X141137500Y-95725000D03*
%TO.P,J1,3,A1*%
X141137500Y-96375000D03*
%TO.P,J1,4,A2*%
X141137500Y-97025000D03*
%TO.P,J1,5,A3*%
X141137500Y-97675000D03*
%TO.P,J1,6,A4*%
X141137500Y-98325000D03*
%TO.P,J1,7,A5*%
X141137500Y-98975000D03*
%TO.P,J1,8,A6*%
X141137500Y-99625000D03*
%TO.P,J1,9,A7*%
X141137500Y-100275000D03*
%TO.P,J1,10,GND*%
X141137500Y-100925000D03*
%TO.P,J1,11,B7*%
X146862500Y-100925000D03*
%TO.P,J1,12,B6*%
X146862500Y-100275000D03*
%TO.P,J1,13,B5*%
X146862500Y-99625000D03*
%TO.P,J1,14,B4*%
X146862500Y-98975000D03*
%TO.P,J1,15,B3*%
X146862500Y-98325000D03*
%TO.P,J1,16,B2*%
X146862500Y-97675000D03*
%TO.P,J1,17,B1*%
X146862500Y-97025000D03*
%TO.P,J1,18,B0*%
X146862500Y-96375000D03*
%TO.P,J1,19,CE*%
X146862500Y-95725000D03*
%TO.P,J1,20,VCC*%
X146862500Y-95075000D03*
%TD*%
%TO.P,J1,1,A->B*%
%TO.N,N/C*%
X149137500Y-111075000D03*
%TO.P,J1,2,A0*%
X149137500Y-111725000D03*
%TO.P,J1,3,A1*%
X149137500Y-112375000D03*
%TO.P,J1,4,A2*%
X149137500Y-113025000D03*
%TO.P,J1,5,A3*%
X149137500Y-113675000D03*
%TO.P,J1,6,A4*%
X149137500Y-114325000D03*
%TO.P,J1,7,A5*%
X149137500Y-114975000D03*
%TO.P,J1,8,A6*%
X149137500Y-115625000D03*
%TO.P,J1,9,A7*%
X149137500Y-116275000D03*
%TO.P,J1,10,GND*%
X149137500Y-116925000D03*
%TO.P,J1,11,B7*%
X154862500Y-116925000D03*
%TO.P,J1,12,B6*%
X154862500Y-116275000D03*
%TO.P,J1,13,B5*%
X154862500Y-115625000D03*
%TO.P,J1,14,B4*%
X154862500Y-114975000D03*
%TO.P,J1,15,B3*%
X154862500Y-114325000D03*
%TO.P,J1,16,B2*%
X154862500Y-113675000D03*
%TO.P,J1,17,B1*%
X154862500Y-113025000D03*
%TO.P,J1,18,B0*%
X154862500Y-112375000D03*
%TO.P,J1,19,CE*%
X154862500Y-111725000D03*
%TO.P,J1,20,VCC*%
X154862500Y-111075000D03*
%TD*%
%TO.P,J1,1,A->B*%
%TO.N,N/C*%
X133137500Y-127075000D03*
%TO.P,J1,2,A0*%
X133137500Y-127725000D03*
%TO.P,J1,3,A1*%
X133137500Y-128375000D03*
%TO.P,J1,4,A2*%
X133137500Y-129025000D03*
%TO.P,J1,5,A3*%
X133137500Y-129675000D03*
%TO.P,J1,6,A4*%
X133137500Y-130325000D03*
%TO.P,J1,7,A5*%
X133137500Y-130975000D03*
%TO.P,J1,8,A6*%
X133137500Y-131625000D03*
%TO.P,J1,9,A7*%
X133137500Y-132275000D03*
%TO.P,J1,10,GND*%
X133137500Y-132925000D03*
%TO.P,J1,11,B7*%
X138862500Y-132925000D03*
%TO.P,J1,12,B6*%
X138862500Y-132275000D03*
%TO.P,J1,13,B5*%
X138862500Y-131625000D03*
%TO.P,J1,14,B4*%
X138862500Y-130975000D03*
%TO.P,J1,15,B3*%
X138862500Y-130325000D03*
%TO.P,J1,16,B2*%
X138862500Y-129675000D03*
%TO.P,J1,17,B1*%
X138862500Y-129025000D03*
%TO.P,J1,18,B0*%
X138862500Y-128375000D03*
%TO.P,J1,19,CE*%
X138862500Y-127725000D03*
%TO.P,J1,20,VCC*%
X138862500Y-127075000D03*
%TD*%
%TO.P,J1,1,A->B*%
%TO.N,N/C*%
X157137500Y-119075000D03*
%TO.P,J1,2,A0*%
X157137500Y-119725000D03*
%TO.P,J1,3,A1*%
X157137500Y-120375000D03*
%TO.P,J1,4,A2*%
X157137500Y-121025000D03*
%TO.P,J1,5,A3*%
X157137500Y-121675000D03*
%TO.P,J1,6,A4*%
X157137500Y-122325000D03*
%TO.P,J1,7,A5*%
X157137500Y-122975000D03*
%TO.P,J1,8,A6*%
X157137500Y-123625000D03*
%TO.P,J1,9,A7*%
X157137500Y-124275000D03*
%TO.P,J1,10,GND*%
X157137500Y-124925000D03*
%TO.P,J1,11,B7*%
X162862500Y-124925000D03*
%TO.P,J1,12,B6*%
X162862500Y-124275000D03*
%TO.P,J1,13,B5*%
X162862500Y-123625000D03*
%TO.P,J1,14,B4*%
X162862500Y-122975000D03*
%TO.P,J1,15,B3*%
X162862500Y-122325000D03*
%TO.P,J1,16,B2*%
X162862500Y-121675000D03*
%TO.P,J1,17,B1*%
X162862500Y-121025000D03*
%TO.P,J1,18,B0*%
X162862500Y-120375000D03*
%TO.P,J1,19,CE*%
X162862500Y-119725000D03*
%TO.P,J1,20,VCC*%
X162862500Y-119075000D03*
%TD*%
%TO.P,J1,1,A->B*%
%TO.N,N/C*%
X149137500Y-87075000D03*
%TO.P,J1,2,A0*%
X149137500Y-87725000D03*
%TO.P,J1,3,A1*%
X149137500Y-88375000D03*
%TO.P,J1,4,A2*%
X149137500Y-89025000D03*
%TO.P,J1,5,A3*%
X149137500Y-89675000D03*
%TO.P,J1,6,A4*%
X149137500Y-90325000D03*
%TO.P,J1,7,A5*%
X149137500Y-90975000D03*
%TO.P,J1,8,A6*%
X149137500Y-91625000D03*
%TO.P,J1,9,A7*%
X149137500Y-92275000D03*
%TO.P,J1,10,GND*%
X149137500Y-92925000D03*
%TO.P,J1,11,B7*%
X154862500Y-92925000D03*
%TO.P,J1,12,B6*%
X154862500Y-92275000D03*
%TO.P,J1,13,B5*%
X154862500Y-91625000D03*
%TO.P,J1,14,B4*%
X154862500Y-90975000D03*
%TO.P,J1,15,B3*%
X154862500Y-90325000D03*
%TO.P,J1,16,B2*%
X154862500Y-89675000D03*
%TO.P,J1,17,B1*%
X154862500Y-89025000D03*
%TO.P,J1,18,B0*%
X154862500Y-88375000D03*
%TO.P,J1,19,CE*%
X154862500Y-87725000D03*
%TO.P,J1,20,VCC*%
X154862500Y-87075000D03*
%TD*%
%TO.P,J1,1,A->B*%
%TO.N,N/C*%
X133137500Y-119075000D03*
%TO.P,J1,2,A0*%
X133137500Y-119725000D03*
%TO.P,J1,3,A1*%
X133137500Y-120375000D03*
%TO.P,J1,4,A2*%
X133137500Y-121025000D03*
%TO.P,J1,5,A3*%
X133137500Y-121675000D03*
%TO.P,J1,6,A4*%
X133137500Y-122325000D03*
%TO.P,J1,7,A5*%
X133137500Y-122975000D03*
%TO.P,J1,8,A6*%
X133137500Y-123625000D03*
%TO.P,J1,9,A7*%
X133137500Y-124275000D03*
%TO.P,J1,10,GND*%
X133137500Y-124925000D03*
%TO.P,J1,11,B7*%
X138862500Y-124925000D03*
%TO.P,J1,12,B6*%
X138862500Y-124275000D03*
%TO.P,J1,13,B5*%
X138862500Y-123625000D03*
%TO.P,J1,14,B4*%
X138862500Y-122975000D03*
%TO.P,J1,15,B3*%
X138862500Y-122325000D03*
%TO.P,J1,16,B2*%
X138862500Y-121675000D03*
%TO.P,J1,17,B1*%
X138862500Y-121025000D03*
%TO.P,J1,18,B0*%
X138862500Y-120375000D03*
%TO.P,J1,19,CE*%
X138862500Y-119725000D03*
%TO.P,J1,20,VCC*%
X138862500Y-119075000D03*
%TD*%
%TO.P,J1,1,A->B*%
%TO.N,N/C*%
X117137500Y-119075000D03*
%TO.P,J1,2,A0*%
X117137500Y-119725000D03*
%TO.P,J1,3,A1*%
X117137500Y-120375000D03*
%TO.P,J1,4,A2*%
X117137500Y-121025000D03*
%TO.P,J1,5,A3*%
X117137500Y-121675000D03*
%TO.P,J1,6,A4*%
X117137500Y-122325000D03*
%TO.P,J1,7,A5*%
X117137500Y-122975000D03*
%TO.P,J1,8,A6*%
X117137500Y-123625000D03*
%TO.P,J1,9,A7*%
X117137500Y-124275000D03*
%TO.P,J1,10,GND*%
X117137500Y-124925000D03*
%TO.P,J1,11,B7*%
X122862500Y-124925000D03*
%TO.P,J1,12,B6*%
X122862500Y-124275000D03*
%TO.P,J1,13,B5*%
X122862500Y-123625000D03*
%TO.P,J1,14,B4*%
X122862500Y-122975000D03*
%TO.P,J1,15,B3*%
X122862500Y-122325000D03*
%TO.P,J1,16,B2*%
X122862500Y-121675000D03*
%TO.P,J1,17,B1*%
X122862500Y-121025000D03*
%TO.P,J1,18,B0*%
X122862500Y-120375000D03*
%TO.P,J1,19,CE*%
X122862500Y-119725000D03*
%TO.P,J1,20,VCC*%
X122862500Y-119075000D03*
%TD*%
%TO.P,J1,1,A->B*%
%TO.N,N/C*%
X149137500Y-119075000D03*
%TO.P,J1,2,A0*%
X149137500Y-119725000D03*
%TO.P,J1,3,A1*%
X149137500Y-120375000D03*
%TO.P,J1,4,A2*%
X149137500Y-121025000D03*
%TO.P,J1,5,A3*%
X149137500Y-121675000D03*
%TO.P,J1,6,A4*%
X149137500Y-122325000D03*
%TO.P,J1,7,A5*%
X149137500Y-122975000D03*
%TO.P,J1,8,A6*%
X149137500Y-123625000D03*
%TO.P,J1,9,A7*%
X149137500Y-124275000D03*
%TO.P,J1,10,GND*%
X149137500Y-124925000D03*
%TO.P,J1,11,B7*%
X154862500Y-124925000D03*
%TO.P,J1,12,B6*%
X154862500Y-124275000D03*
%TO.P,J1,13,B5*%
X154862500Y-123625000D03*
%TO.P,J1,14,B4*%
X154862500Y-122975000D03*
%TO.P,J1,15,B3*%
X154862500Y-122325000D03*
%TO.P,J1,16,B2*%
X154862500Y-121675000D03*
%TO.P,J1,17,B1*%
X154862500Y-121025000D03*
%TO.P,J1,18,B0*%
X154862500Y-120375000D03*
%TO.P,J1,19,CE*%
X154862500Y-119725000D03*
%TO.P,J1,20,VCC*%
X154862500Y-119075000D03*
%TD*%
%TO.P,J1,1,A->B*%
%TO.N,N/C*%
X133137500Y-111075000D03*
%TO.P,J1,2,A0*%
X133137500Y-111725000D03*
%TO.P,J1,3,A1*%
X133137500Y-112375000D03*
%TO.P,J1,4,A2*%
X133137500Y-113025000D03*
%TO.P,J1,5,A3*%
X133137500Y-113675000D03*
%TO.P,J1,6,A4*%
X133137500Y-114325000D03*
%TO.P,J1,7,A5*%
X133137500Y-114975000D03*
%TO.P,J1,8,A6*%
X133137500Y-115625000D03*
%TO.P,J1,9,A7*%
X133137500Y-116275000D03*
%TO.P,J1,10,GND*%
X133137500Y-116925000D03*
%TO.P,J1,11,B7*%
X138862500Y-116925000D03*
%TO.P,J1,12,B6*%
X138862500Y-116275000D03*
%TO.P,J1,13,B5*%
X138862500Y-115625000D03*
%TO.P,J1,14,B4*%
X138862500Y-114975000D03*
%TO.P,J1,15,B3*%
X138862500Y-114325000D03*
%TO.P,J1,16,B2*%
X138862500Y-113675000D03*
%TO.P,J1,17,B1*%
X138862500Y-113025000D03*
%TO.P,J1,18,B0*%
X138862500Y-112375000D03*
%TO.P,J1,19,CE*%
X138862500Y-111725000D03*
%TO.P,J1,20,VCC*%
X138862500Y-111075000D03*
%TD*%
%TO.P,J1,1,A->B*%
%TO.N,N/C*%
X141137500Y-87075000D03*
%TO.P,J1,2,A0*%
X141137500Y-87725000D03*
%TO.P,J1,3,A1*%
X141137500Y-88375000D03*
%TO.P,J1,4,A2*%
X141137500Y-89025000D03*
%TO.P,J1,5,A3*%
X141137500Y-89675000D03*
%TO.P,J1,6,A4*%
X141137500Y-90325000D03*
%TO.P,J1,7,A5*%
X141137500Y-90975000D03*
%TO.P,J1,8,A6*%
X141137500Y-91625000D03*
%TO.P,J1,9,A7*%
X141137500Y-92275000D03*
%TO.P,J1,10,GND*%
X141137500Y-92925000D03*
%TO.P,J1,11,B7*%
X146862500Y-92925000D03*
%TO.P,J1,12,B6*%
X146862500Y-92275000D03*
%TO.P,J1,13,B5*%
X146862500Y-91625000D03*
%TO.P,J1,14,B4*%
X146862500Y-90975000D03*
%TO.P,J1,15,B3*%
X146862500Y-90325000D03*
%TO.P,J1,16,B2*%
X146862500Y-89675000D03*
%TO.P,J1,17,B1*%
X146862500Y-89025000D03*
%TO.P,J1,18,B0*%
X146862500Y-88375000D03*
%TO.P,J1,19,CE*%
X146862500Y-87725000D03*
%TO.P,J1,20,VCC*%
X146862500Y-87075000D03*
%TD*%
%TO.P,J1,1,A->B*%
%TO.N,N/C*%
X125137500Y-111075000D03*
%TO.P,J1,2,A0*%
X125137500Y-111725000D03*
%TO.P,J1,3,A1*%
X125137500Y-112375000D03*
%TO.P,J1,4,A2*%
X125137500Y-113025000D03*
%TO.P,J1,5,A3*%
X125137500Y-113675000D03*
%TO.P,J1,6,A4*%
X125137500Y-114325000D03*
%TO.P,J1,7,A5*%
X125137500Y-114975000D03*
%TO.P,J1,8,A6*%
X125137500Y-115625000D03*
%TO.P,J1,9,A7*%
X125137500Y-116275000D03*
%TO.P,J1,10,GND*%
X125137500Y-116925000D03*
%TO.P,J1,11,B7*%
X130862500Y-116925000D03*
%TO.P,J1,12,B6*%
X130862500Y-116275000D03*
%TO.P,J1,13,B5*%
X130862500Y-115625000D03*
%TO.P,J1,14,B4*%
X130862500Y-114975000D03*
%TO.P,J1,15,B3*%
X130862500Y-114325000D03*
%TO.P,J1,16,B2*%
X130862500Y-113675000D03*
%TO.P,J1,17,B1*%
X130862500Y-113025000D03*
%TO.P,J1,18,B0*%
X130862500Y-112375000D03*
%TO.P,J1,19,CE*%
X130862500Y-111725000D03*
%TO.P,J1,20,VCC*%
X130862500Y-111075000D03*
%TD*%
%TO.P,J1,1,A->B*%
%TO.N,N/C*%
X117137500Y-95075000D03*
%TO.P,J1,2,A0*%
X117137500Y-95725000D03*
%TO.P,J1,3,A1*%
X117137500Y-96375000D03*
%TO.P,J1,4,A2*%
X117137500Y-97025000D03*
%TO.P,J1,5,A3*%
X117137500Y-97675000D03*
%TO.P,J1,6,A4*%
X117137500Y-98325000D03*
%TO.P,J1,7,A5*%
X117137500Y-98975000D03*
%TO.P,J1,8,A6*%
X117137500Y-99625000D03*
%TO.P,J1,9,A7*%
X117137500Y-100275000D03*
%TO.P,J1,10,GND*%
X117137500Y-100925000D03*
%TO.P,J1,11,B7*%
X122862500Y-100925000D03*
%TO.P,J1,12,B6*%
X122862500Y-100275000D03*
%TO.P,J1,13,B5*%
X122862500Y-99625000D03*
%TO.P,J1,14,B4*%
X122862500Y-98975000D03*
%TO.P,J1,15,B3*%
X122862500Y-98325000D03*
%TO.P,J1,16,B2*%
X122862500Y-97675000D03*
%TO.P,J1,17,B1*%
X122862500Y-97025000D03*
%TO.P,J1,18,B0*%
X122862500Y-96375000D03*
%TO.P,J1,19,CE*%
X122862500Y-95725000D03*
%TO.P,J1,20,VCC*%
X122862500Y-95075000D03*
%TD*%
%TO.P,J1,1,A->B*%
%TO.N,N/C*%
X117137500Y-127075000D03*
%TO.P,J1,2,A0*%
X117137500Y-127725000D03*
%TO.P,J1,3,A1*%
X117137500Y-128375000D03*
%TO.P,J1,4,A2*%
X117137500Y-129025000D03*
%TO.P,J1,5,A3*%
X117137500Y-129675000D03*
%TO.P,J1,6,A4*%
X117137500Y-130325000D03*
%TO.P,J1,7,A5*%
X117137500Y-130975000D03*
%TO.P,J1,8,A6*%
X117137500Y-131625000D03*
%TO.P,J1,9,A7*%
X117137500Y-132275000D03*
%TO.P,J1,10,GND*%
X117137500Y-132925000D03*
%TO.P,J1,11,B7*%
X122862500Y-132925000D03*
%TO.P,J1,12,B6*%
X122862500Y-132275000D03*
%TO.P,J1,13,B5*%
X122862500Y-131625000D03*
%TO.P,J1,14,B4*%
X122862500Y-130975000D03*
%TO.P,J1,15,B3*%
X122862500Y-130325000D03*
%TO.P,J1,16,B2*%
X122862500Y-129675000D03*
%TO.P,J1,17,B1*%
X122862500Y-129025000D03*
%TO.P,J1,18,B0*%
X122862500Y-128375000D03*
%TO.P,J1,19,CE*%
X122862500Y-127725000D03*
%TO.P,J1,20,VCC*%
X122862500Y-127075000D03*
%TD*%
%TO.P,J1,1,A->B*%
%TO.N,N/C*%
X133137500Y-95075000D03*
%TO.P,J1,2,A0*%
X133137500Y-95725000D03*
%TO.P,J1,3,A1*%
X133137500Y-96375000D03*
%TO.P,J1,4,A2*%
X133137500Y-97025000D03*
%TO.P,J1,5,A3*%
X133137500Y-97675000D03*
%TO.P,J1,6,A4*%
X133137500Y-98325000D03*
%TO.P,J1,7,A5*%
X133137500Y-98975000D03*
%TO.P,J1,8,A6*%
X133137500Y-99625000D03*
%TO.P,J1,9,A7*%
X133137500Y-100275000D03*
%TO.P,J1,10,GND*%
X133137500Y-100925000D03*
%TO.P,J1,11,B7*%
X138862500Y-100925000D03*
%TO.P,J1,12,B6*%
X138862500Y-100275000D03*
%TO.P,J1,13,B5*%
X138862500Y-99625000D03*
%TO.P,J1,14,B4*%
X138862500Y-98975000D03*
%TO.P,J1,15,B3*%
X138862500Y-98325000D03*
%TO.P,J1,16,B2*%
X138862500Y-97675000D03*
%TO.P,J1,17,B1*%
X138862500Y-97025000D03*
%TO.P,J1,18,B0*%
X138862500Y-96375000D03*
%TO.P,J1,19,CE*%
X138862500Y-95725000D03*
%TO.P,J1,20,VCC*%
X138862500Y-95075000D03*
%TD*%
%TO.P,J1,1,A->B*%
%TO.N,N/C*%
X157137500Y-103075000D03*
%TO.P,J1,2,A0*%
X157137500Y-103725000D03*
%TO.P,J1,3,A1*%
X157137500Y-104375000D03*
%TO.P,J1,4,A2*%
X157137500Y-105025000D03*
%TO.P,J1,5,A3*%
X157137500Y-105675000D03*
%TO.P,J1,6,A4*%
X157137500Y-106325000D03*
%TO.P,J1,7,A5*%
X157137500Y-106975000D03*
%TO.P,J1,8,A6*%
X157137500Y-107625000D03*
%TO.P,J1,9,A7*%
X157137500Y-108275000D03*
%TO.P,J1,10,GND*%
X157137500Y-108925000D03*
%TO.P,J1,11,B7*%
X162862500Y-108925000D03*
%TO.P,J1,12,B6*%
X162862500Y-108275000D03*
%TO.P,J1,13,B5*%
X162862500Y-107625000D03*
%TO.P,J1,14,B4*%
X162862500Y-106975000D03*
%TO.P,J1,15,B3*%
X162862500Y-106325000D03*
%TO.P,J1,16,B2*%
X162862500Y-105675000D03*
%TO.P,J1,17,B1*%
X162862500Y-105025000D03*
%TO.P,J1,18,B0*%
X162862500Y-104375000D03*
%TO.P,J1,19,CE*%
X162862500Y-103725000D03*
%TO.P,J1,20,VCC*%
X162862500Y-103075000D03*
%TD*%
%TO.P,J1,1,A->B*%
%TO.N,N/C*%
X125137500Y-127075000D03*
%TO.P,J1,2,A0*%
X125137500Y-127725000D03*
%TO.P,J1,3,A1*%
X125137500Y-128375000D03*
%TO.P,J1,4,A2*%
X125137500Y-129025000D03*
%TO.P,J1,5,A3*%
X125137500Y-129675000D03*
%TO.P,J1,6,A4*%
X125137500Y-130325000D03*
%TO.P,J1,7,A5*%
X125137500Y-130975000D03*
%TO.P,J1,8,A6*%
X125137500Y-131625000D03*
%TO.P,J1,9,A7*%
X125137500Y-132275000D03*
%TO.P,J1,10,GND*%
X125137500Y-132925000D03*
%TO.P,J1,11,B7*%
X130862500Y-132925000D03*
%TO.P,J1,12,B6*%
X130862500Y-132275000D03*
%TO.P,J1,13,B5*%
X130862500Y-131625000D03*
%TO.P,J1,14,B4*%
X130862500Y-130975000D03*
%TO.P,J1,15,B3*%
X130862500Y-130325000D03*
%TO.P,J1,16,B2*%
X130862500Y-129675000D03*
%TO.P,J1,17,B1*%
X130862500Y-129025000D03*
%TO.P,J1,18,B0*%
X130862500Y-128375000D03*
%TO.P,J1,19,CE*%
X130862500Y-127725000D03*
%TO.P,J1,20,VCC*%
X130862500Y-127075000D03*
%TD*%
%TO.P,J1,1,A->B*%
%TO.N,N/C*%
X149137500Y-103075000D03*
%TO.P,J1,2,A0*%
X149137500Y-103725000D03*
%TO.P,J1,3,A1*%
X149137500Y-104375000D03*
%TO.P,J1,4,A2*%
X149137500Y-105025000D03*
%TO.P,J1,5,A3*%
X149137500Y-105675000D03*
%TO.P,J1,6,A4*%
X149137500Y-106325000D03*
%TO.P,J1,7,A5*%
X149137500Y-106975000D03*
%TO.P,J1,8,A6*%
X149137500Y-107625000D03*
%TO.P,J1,9,A7*%
X149137500Y-108275000D03*
%TO.P,J1,10,GND*%
X149137500Y-108925000D03*
%TO.P,J1,11,B7*%
X154862500Y-108925000D03*
%TO.P,J1,12,B6*%
X154862500Y-108275000D03*
%TO.P,J1,13,B5*%
X154862500Y-107625000D03*
%TO.P,J1,14,B4*%
X154862500Y-106975000D03*
%TO.P,J1,15,B3*%
X154862500Y-106325000D03*
%TO.P,J1,16,B2*%
X154862500Y-105675000D03*
%TO.P,J1,17,B1*%
X154862500Y-105025000D03*
%TO.P,J1,18,B0*%
X154862500Y-104375000D03*
%TO.P,J1,19,CE*%
X154862500Y-103725000D03*
%TO.P,J1,20,VCC*%
X154862500Y-103075000D03*
%TD*%
%TO.P,J1,1,A->B*%
%TO.N,N/C*%
X149137500Y-127075000D03*
%TO.P,J1,2,A0*%
X149137500Y-127725000D03*
%TO.P,J1,3,A1*%
X149137500Y-128375000D03*
%TO.P,J1,4,A2*%
X149137500Y-129025000D03*
%TO.P,J1,5,A3*%
X149137500Y-129675000D03*
%TO.P,J1,6,A4*%
X149137500Y-130325000D03*
%TO.P,J1,7,A5*%
X149137500Y-130975000D03*
%TO.P,J1,8,A6*%
X149137500Y-131625000D03*
%TO.P,J1,9,A7*%
X149137500Y-132275000D03*
%TO.P,J1,10,GND*%
X149137500Y-132925000D03*
%TO.P,J1,11,B7*%
X154862500Y-132925000D03*
%TO.P,J1,12,B6*%
X154862500Y-132275000D03*
%TO.P,J1,13,B5*%
X154862500Y-131625000D03*
%TO.P,J1,14,B4*%
X154862500Y-130975000D03*
%TO.P,J1,15,B3*%
X154862500Y-130325000D03*
%TO.P,J1,16,B2*%
X154862500Y-129675000D03*
%TO.P,J1,17,B1*%
X154862500Y-129025000D03*
%TO.P,J1,18,B0*%
X154862500Y-128375000D03*
%TO.P,J1,19,CE*%
X154862500Y-127725000D03*
%TO.P,J1,20,VCC*%
X154862500Y-127075000D03*
%TD*%
%TO.P,J1,1,A->B*%
%TO.N,N/C*%
X125137500Y-103075000D03*
%TO.P,J1,2,A0*%
X125137500Y-103725000D03*
%TO.P,J1,3,A1*%
X125137500Y-104375000D03*
%TO.P,J1,4,A2*%
X125137500Y-105025000D03*
%TO.P,J1,5,A3*%
X125137500Y-105675000D03*
%TO.P,J1,6,A4*%
X125137500Y-106325000D03*
%TO.P,J1,7,A5*%
X125137500Y-106975000D03*
%TO.P,J1,8,A6*%
X125137500Y-107625000D03*
%TO.P,J1,9,A7*%
X125137500Y-108275000D03*
%TO.P,J1,10,GND*%
X125137500Y-108925000D03*
%TO.P,J1,11,B7*%
X130862500Y-108925000D03*
%TO.P,J1,12,B6*%
X130862500Y-108275000D03*
%TO.P,J1,13,B5*%
X130862500Y-107625000D03*
%TO.P,J1,14,B4*%
X130862500Y-106975000D03*
%TO.P,J1,15,B3*%
X130862500Y-106325000D03*
%TO.P,J1,16,B2*%
X130862500Y-105675000D03*
%TO.P,J1,17,B1*%
X130862500Y-105025000D03*
%TO.P,J1,18,B0*%
X130862500Y-104375000D03*
%TO.P,J1,19,CE*%
X130862500Y-103725000D03*
%TO.P,J1,20,VCC*%
X130862500Y-103075000D03*
%TD*%
D11*
%TO.N,*%
X141137500Y-112375000D02*
X143775000Y-112375000D01*
X141137500Y-88375000D02*
X143775000Y-88375000D01*
X120425000Y-129025000D02*
X122862500Y-129025000D01*
X125137500Y-119725000D02*
X127825000Y-119725000D01*
X128425000Y-113025000D02*
X130862500Y-113025000D01*
X119575000Y-90975000D02*
X120225000Y-91625000D01*
X159575000Y-90975000D02*
X160225000Y-91625000D01*
X144425000Y-121025000D02*
X146862500Y-121025000D01*
X120175000Y-132275000D02*
X122862500Y-132275000D01*
X149137500Y-98975000D02*
X151575000Y-98975000D01*
X141137500Y-90975000D02*
X143575000Y-90975000D01*
X128125000Y-100925000D02*
X130862500Y-100925000D01*
X125137500Y-114975000D02*
X127575000Y-114975000D01*
X125137500Y-106325000D02*
X127625000Y-106325000D01*
X151725000Y-97025000D02*
X152375000Y-97675000D01*
X125137500Y-130325000D02*
X127625000Y-130325000D01*
X141137500Y-105025000D02*
X143725000Y-105025000D01*
X141137500Y-113675000D02*
X143675000Y-113675000D01*
X149137500Y-106975000D02*
X151575000Y-106975000D01*
X136175000Y-108275000D02*
X138862500Y-108275000D01*
X144325000Y-114325000D02*
X146862500Y-114325000D01*
X141137500Y-121675000D02*
X143675000Y-121675000D01*
X151775000Y-128375000D02*
X152425000Y-129025000D01*
X141137500Y-95725000D02*
X143825000Y-95725000D01*
X149137500Y-90975000D02*
X151575000Y-90975000D01*
X149137500Y-122325000D02*
X151625000Y-122325000D01*
X117137500Y-111725000D02*
X119825000Y-111725000D01*
X143575000Y-98975000D02*
X144225000Y-99625000D01*
X133137500Y-129675000D02*
X135675000Y-129675000D01*
X133137500Y-98975000D02*
X135575000Y-98975000D01*
X144325000Y-90325000D02*
X146862500Y-90325000D01*
X152375000Y-89675000D02*
X154862500Y-89675000D01*
X159525000Y-99625000D02*
X160175000Y-100275000D01*
X143825000Y-103725000D02*
X144475000Y-104375000D01*
X120225000Y-115625000D02*
X122862500Y-115625000D01*
X149137500Y-100275000D02*
X151475000Y-100275000D01*
X117137500Y-98975000D02*
X119575000Y-98975000D01*
X149137500Y-130325000D02*
X151625000Y-130325000D01*
X127625000Y-122325000D02*
X128275000Y-122975000D01*
X117137500Y-89025000D02*
X119725000Y-89025000D01*
X143525000Y-123625000D02*
X144175000Y-124275000D01*
X136325000Y-90325000D02*
X138862500Y-90325000D01*
X144375000Y-105675000D02*
X146862500Y-105675000D01*
X151725000Y-105025000D02*
X152375000Y-105675000D01*
X120175000Y-100275000D02*
X122862500Y-100275000D01*
X136275000Y-98975000D02*
X138862500Y-98975000D01*
X128375000Y-129675000D02*
X130862500Y-129675000D01*
X141137500Y-97025000D02*
X143725000Y-97025000D01*
X117137500Y-124275000D02*
X119475000Y-124275000D01*
X136425000Y-97025000D02*
X138862500Y-97025000D01*
X133137500Y-130975000D02*
X135575000Y-130975000D01*
X157137500Y-105025000D02*
X159725000Y-105025000D01*
X144225000Y-107625000D02*
X146862500Y-107625000D01*
X117137500Y-131625000D02*
X119525000Y-131625000D01*
X127675000Y-113675000D02*
X128325000Y-114325000D01*
X152125000Y-108925000D02*
X154862500Y-108925000D01*
X119725000Y-89025000D02*
X120375000Y-89675000D01*
X144175000Y-100275000D02*
X146862500Y-100275000D01*
X143575000Y-114975000D02*
X144225000Y-115625000D01*
X143625000Y-90325000D02*
X144275000Y-90975000D01*
X143525000Y-115625000D02*
X144175000Y-116275000D01*
X120375000Y-113675000D02*
X122862500Y-113675000D01*
X136275000Y-90975000D02*
X138862500Y-90975000D01*
X159675000Y-113675000D02*
X160325000Y-114325000D01*
X149137500Y-124275000D02*
X151475000Y-124275000D01*
X144125000Y-124925000D02*
X146862500Y-124925000D01*
X117137500Y-127725000D02*
X119825000Y-127725000D01*
X117137500Y-89675000D02*
X119675000Y-89675000D01*
X152425000Y-97025000D02*
X154862500Y-97025000D01*
X144225000Y-123625000D02*
X146862500Y-123625000D01*
X133137500Y-98325000D02*
X135625000Y-98325000D01*
X119475000Y-132275000D02*
X120125000Y-132925000D01*
X127525000Y-131625000D02*
X128175000Y-132275000D01*
X141137500Y-106325000D02*
X143625000Y-106325000D01*
X151525000Y-123625000D02*
X152175000Y-124275000D01*
X136375000Y-89675000D02*
X138862500Y-89675000D01*
X160475000Y-120375000D02*
X162862500Y-120375000D01*
X141137500Y-129025000D02*
X143725000Y-129025000D01*
X125137500Y-129025000D02*
X127725000Y-129025000D01*
X160375000Y-129675000D02*
X162862500Y-129675000D01*
X117137500Y-108275000D02*
X119475000Y-108275000D01*
X127475000Y-108275000D02*
X128125000Y-108925000D01*
X119525000Y-91625000D02*
X120175000Y-92275000D01*
X133137500Y-116275000D02*
X135475000Y-116275000D01*
X157137500Y-105675000D02*
X159675000Y-105675000D01*
X117137500Y-98325000D02*
X119625000Y-98325000D01*
X151725000Y-89025000D02*
X152375000Y-89675000D01*
X120225000Y-123625000D02*
X122862500Y-123625000D01*
X152175000Y-116275000D02*
X154862500Y-116275000D01*
X157137500Y-98975000D02*
X159575000Y-98975000D01*
X152425000Y-89025000D02*
X154862500Y-89025000D01*
X159825000Y-103725000D02*
X160475000Y-104375000D01*
X141137500Y-91625000D02*
X143525000Y-91625000D01*
X151625000Y-130325000D02*
X152275000Y-130975000D01*
X152325000Y-98325000D02*
X154862500Y-98325000D01*
X141137500Y-104375000D02*
X143775000Y-104375000D01*
X159625000Y-122325000D02*
X160275000Y-122975000D01*
X135525000Y-115625000D02*
X136175000Y-116275000D01*
X117137500Y-88375000D02*
X119775000Y-88375000D01*
X135825000Y-111725000D02*
X136475000Y-112375000D01*
X119525000Y-115625000D02*
X120175000Y-116275000D01*
X135625000Y-114325000D02*
X136275000Y-114975000D01*
X141137500Y-90325000D02*
X143625000Y-90325000D01*
X157137500Y-130975000D02*
X159575000Y-130975000D01*
X127525000Y-91625000D02*
X128175000Y-92275000D01*
X152475000Y-112375000D02*
X154862500Y-112375000D01*
X127475000Y-124275000D02*
X128125000Y-124925000D01*
X127825000Y-119725000D02*
X128475000Y-120375000D01*
X141137500Y-124275000D02*
X143475000Y-124275000D01*
X127575000Y-106975000D02*
X128225000Y-107625000D01*
X157137500Y-113025000D02*
X159725000Y-113025000D01*
X135475000Y-124275000D02*
X136125000Y-124925000D01*
X143525000Y-107625000D02*
X144175000Y-108275000D01*
X119625000Y-130325000D02*
X120275000Y-130975000D01*
X141137500Y-114325000D02*
X143625000Y-114325000D01*
X141137500Y-111725000D02*
X143825000Y-111725000D01*
X133137500Y-90325000D02*
X135625000Y-90325000D01*
X135825000Y-103725000D02*
X136475000Y-104375000D01*
X120475000Y-96375000D02*
X122862500Y-96375000D01*
X151625000Y-114325000D02*
X152275000Y-114975000D01*
X125137500Y-112375000D02*
X127775000Y-112375000D01*
X133137500Y-124275000D02*
X135475000Y-124275000D01*
X157137500Y-120375000D02*
X159775000Y-120375000D01*
X143725000Y-89025000D02*
X144375000Y-89675000D01*
X157137500Y-106325000D02*
X159625000Y-106325000D01*
X125137500Y-108275000D02*
X127475000Y-108275000D01*
X144425000Y-89025000D02*
X146862500Y-89025000D01*
X128225000Y-123625000D02*
X130862500Y-123625000D01*
X120275000Y-106975000D02*
X122862500Y-106975000D01*
X119475000Y-92275000D02*
X120125000Y-92925000D01*
X141137500Y-106975000D02*
X143575000Y-106975000D01*
X159475000Y-116275000D02*
X160125000Y-116925000D01*
X152125000Y-116925000D02*
X154862500Y-116925000D01*
X117137500Y-119725000D02*
X119825000Y-119725000D01*
X128425000Y-105025000D02*
X130862500Y-105025000D01*
X133137500Y-96375000D02*
X135775000Y-96375000D01*
X136375000Y-121675000D02*
X138862500Y-121675000D01*
X136475000Y-104375000D02*
X138862500Y-104375000D01*
X159475000Y-100275000D02*
X160125000Y-100925000D01*
X127525000Y-99625000D02*
X128175000Y-100275000D01*
X159775000Y-128375000D02*
X160425000Y-129025000D01*
X149137500Y-91625000D02*
X151525000Y-91625000D01*
X136325000Y-114325000D02*
X138862500Y-114325000D01*
X136275000Y-106975000D02*
X138862500Y-106975000D01*
X119675000Y-113675000D02*
X120325000Y-114325000D01*
X125137500Y-129675000D02*
X127675000Y-129675000D01*
X117137500Y-121025000D02*
X119725000Y-121025000D01*
X160325000Y-114325000D02*
X162862500Y-114325000D01*
X151725000Y-129025000D02*
X152375000Y-129675000D01*
X117137500Y-113675000D02*
X119675000Y-113675000D01*
X157137500Y-132275000D02*
X159475000Y-132275000D01*
X119825000Y-95725000D02*
X120475000Y-96375000D01*
X133137500Y-114975000D02*
X135575000Y-114975000D01*
X128225000Y-99625000D02*
X130862500Y-99625000D01*
X144375000Y-97675000D02*
X146862500Y-97675000D01*
X133137500Y-122325000D02*
X135625000Y-122325000D01*
X157137500Y-129025000D02*
X159725000Y-129025000D01*
X157137500Y-106975000D02*
X159575000Y-106975000D01*
X125137500Y-98325000D02*
X127625000Y-98325000D01*
X117137500Y-121675000D02*
X119675000Y-121675000D01*
X143475000Y-116275000D02*
X144125000Y-116925000D01*
X135525000Y-99625000D02*
X136175000Y-100275000D01*
X144375000Y-89675000D02*
X146862500Y-89675000D01*
X120325000Y-130325000D02*
X122862500Y-130325000D01*
X135725000Y-89025000D02*
X136375000Y-89675000D01*
X136325000Y-130325000D02*
X138862500Y-130325000D01*
X160125000Y-116925000D02*
X162862500Y-116925000D01*
X144375000Y-129675000D02*
X146862500Y-129675000D01*
X120175000Y-92275000D02*
X122862500Y-92275000D01*
X135625000Y-122325000D02*
X136275000Y-122975000D01*
X157137500Y-103725000D02*
X159825000Y-103725000D01*
X119775000Y-112375000D02*
X120425000Y-113025000D01*
X151825000Y-127725000D02*
X152475000Y-128375000D01*
X128175000Y-132275000D02*
X130862500Y-132275000D01*
X120475000Y-120375000D02*
X122862500Y-120375000D01*
X128475000Y-96375000D02*
X130862500Y-96375000D01*
X152175000Y-92275000D02*
X154862500Y-92275000D01*
X125137500Y-116275000D02*
X127475000Y-116275000D01*
X159725000Y-105025000D02*
X160375000Y-105675000D01*
X136475000Y-120375000D02*
X138862500Y-120375000D01*
X133137500Y-97675000D02*
X135675000Y-97675000D01*
X149137500Y-108275000D02*
X151475000Y-108275000D01*
X125137500Y-88375000D02*
X127775000Y-88375000D01*
X159675000Y-121675000D02*
X160325000Y-122325000D01*
X127725000Y-121025000D02*
X128375000Y-121675000D01*
X159525000Y-115625000D02*
X160175000Y-116275000D01*
X152475000Y-128375000D02*
X154862500Y-128375000D01*
X143725000Y-105025000D02*
X144375000Y-105675000D01*
X151575000Y-106975000D02*
X152225000Y-107625000D01*
X133137500Y-112375000D02*
X135775000Y-112375000D01*
X151725000Y-113025000D02*
X152375000Y-113675000D01*
X141137500Y-128375000D02*
X143775000Y-128375000D01*
X133137500Y-106325000D02*
X135625000Y-106325000D01*
X141137500Y-130975000D02*
X143575000Y-130975000D01*
X127675000Y-97675000D02*
X128325000Y-98325000D01*
X144325000Y-106325000D02*
X146862500Y-106325000D01*
X144425000Y-113025000D02*
X146862500Y-113025000D01*
X135575000Y-98975000D02*
X136225000Y-99625000D01*
X133137500Y-104375000D02*
X135775000Y-104375000D01*
X151675000Y-97675000D02*
X152325000Y-98325000D01*
X149137500Y-97025000D02*
X151725000Y-97025000D01*
X149137500Y-95725000D02*
X151825000Y-95725000D01*
X119725000Y-113025000D02*
X120375000Y-113675000D01*
X133137500Y-97025000D02*
X135725000Y-97025000D01*
X144275000Y-106975000D02*
X146862500Y-106975000D01*
X160375000Y-105675000D02*
X162862500Y-105675000D01*
X125137500Y-107625000D02*
X127525000Y-107625000D01*
X152125000Y-92925000D02*
X154862500Y-92925000D01*
X133137500Y-100275000D02*
X135475000Y-100275000D01*
X117137500Y-92275000D02*
X119475000Y-92275000D01*
X128425000Y-97025000D02*
X130862500Y-97025000D01*
X125137500Y-92275000D02*
X127475000Y-92275000D01*
X135825000Y-95725000D02*
X136475000Y-96375000D01*
X160125000Y-108925000D02*
X162862500Y-108925000D01*
X149137500Y-105675000D02*
X151675000Y-105675000D01*
X159525000Y-91625000D02*
X160175000Y-92275000D01*
X135775000Y-120375000D02*
X136425000Y-121025000D01*
X160475000Y-96375000D02*
X162862500Y-96375000D01*
X135475000Y-116275000D02*
X136125000Y-116925000D01*
X133137500Y-113675000D02*
X135675000Y-113675000D01*
X133137500Y-114325000D02*
X135625000Y-114325000D01*
X127475000Y-132275000D02*
X128125000Y-132925000D01*
X160225000Y-107625000D02*
X162862500Y-107625000D01*
X157137500Y-98325000D02*
X159625000Y-98325000D01*
X135525000Y-131625000D02*
X136175000Y-132275000D01*
X127775000Y-88375000D02*
X128425000Y-89025000D01*
X136325000Y-106325000D02*
X138862500Y-106325000D01*
X152275000Y-122975000D02*
X154862500Y-122975000D01*
X119825000Y-111725000D02*
X120475000Y-112375000D01*
X128375000Y-113675000D02*
X130862500Y-113675000D01*
X117137500Y-103725000D02*
X119825000Y-103725000D01*
X149137500Y-122975000D02*
X151575000Y-122975000D01*
X119625000Y-106325000D02*
X120275000Y-106975000D01*
X125137500Y-120375000D02*
X127775000Y-120375000D01*
X159525000Y-131625000D02*
X160175000Y-132275000D01*
X135525000Y-91625000D02*
X136175000Y-92275000D01*
X120275000Y-90975000D02*
X122862500Y-90975000D01*
X119475000Y-108275000D02*
X120125000Y-108925000D01*
X127825000Y-111725000D02*
X128475000Y-112375000D01*
X149137500Y-132275000D02*
X151475000Y-132275000D01*
X119475000Y-116275000D02*
X120125000Y-116925000D01*
X143725000Y-113025000D02*
X144375000Y-113675000D01*
X119675000Y-129675000D02*
X120325000Y-130325000D01*
X120375000Y-121675000D02*
X122862500Y-121675000D01*
X119775000Y-96375000D02*
X120425000Y-97025000D01*
X159725000Y-113025000D02*
X160375000Y-113675000D01*
X160425000Y-105025000D02*
X162862500Y-105025000D01*
X160275000Y-122975000D02*
X162862500Y-122975000D01*
X144125000Y-108925000D02*
X146862500Y-108925000D01*
X151475000Y-92275000D02*
X152125000Y-92925000D01*
X149137500Y-115625000D02*
X151525000Y-115625000D01*
X125137500Y-98975000D02*
X127575000Y-98975000D01*
X120325000Y-114325000D02*
X122862500Y-114325000D01*
X159725000Y-121025000D02*
X160375000Y-121675000D01*
X127725000Y-89025000D02*
X128375000Y-89675000D01*
X152125000Y-124925000D02*
X154862500Y-124925000D01*
X160325000Y-90325000D02*
X162862500Y-90325000D01*
X157137500Y-100275000D02*
X159475000Y-100275000D01*
X157137500Y-99625000D02*
X159525000Y-99625000D01*
X125137500Y-89025000D02*
X127725000Y-89025000D01*
X133137500Y-99625000D02*
X135525000Y-99625000D01*
X117137500Y-99625000D02*
X119525000Y-99625000D01*
X144425000Y-129025000D02*
X146862500Y-129025000D01*
X143825000Y-95725000D02*
X144475000Y-96375000D01*
X160225000Y-131625000D02*
X162862500Y-131625000D01*
X128175000Y-116275000D02*
X130862500Y-116275000D01*
X152225000Y-99625000D02*
X154862500Y-99625000D01*
X157137500Y-124275000D02*
X159475000Y-124275000D01*
X119725000Y-97025000D02*
X120375000Y-97675000D01*
X135475000Y-108275000D02*
X136125000Y-108925000D01*
X135625000Y-98325000D02*
X136275000Y-98975000D01*
X144275000Y-114975000D02*
X146862500Y-114975000D01*
X120225000Y-131625000D02*
X122862500Y-131625000D01*
X151475000Y-116275000D02*
X152125000Y-116925000D01*
X127575000Y-90975000D02*
X128225000Y-91625000D01*
X141137500Y-99625000D02*
X143525000Y-99625000D01*
X133137500Y-106975000D02*
X135575000Y-106975000D01*
X152175000Y-124275000D02*
X154862500Y-124275000D01*
X136425000Y-105025000D02*
X138862500Y-105025000D01*
X136375000Y-105675000D02*
X138862500Y-105675000D01*
X159775000Y-112375000D02*
X160425000Y-113025000D01*
X133137500Y-121675000D02*
X135675000Y-121675000D01*
X141137500Y-87725000D02*
X143825000Y-87725000D01*
X128475000Y-128375000D02*
X130862500Y-128375000D01*
X143575000Y-106975000D02*
X144225000Y-107625000D01*
X143675000Y-105675000D02*
X144325000Y-106325000D01*
X152375000Y-129675000D02*
X154862500Y-129675000D01*
X160325000Y-106325000D02*
X162862500Y-106325000D01*
X127575000Y-122975000D02*
X128225000Y-123625000D01*
X117137500Y-132275000D02*
X119475000Y-132275000D01*
X157137500Y-131625000D02*
X159525000Y-131625000D01*
X159825000Y-111725000D02*
X160475000Y-112375000D01*
X125137500Y-103725000D02*
X127825000Y-103725000D01*
X143575000Y-122975000D02*
X144225000Y-123625000D01*
X127825000Y-95725000D02*
X128475000Y-96375000D01*
X157137500Y-90975000D02*
X159575000Y-90975000D01*
X151575000Y-114975000D02*
X152225000Y-115625000D01*
X152475000Y-96375000D02*
X154862500Y-96375000D01*
X135525000Y-123625000D02*
X136175000Y-124275000D01*
X128375000Y-105675000D02*
X130862500Y-105675000D01*
X125137500Y-121675000D02*
X127675000Y-121675000D01*
X151625000Y-98325000D02*
X152275000Y-98975000D01*
X120425000Y-105025000D02*
X122862500Y-105025000D01*
X117137500Y-91625000D02*
X119525000Y-91625000D01*
X157137500Y-127725000D02*
X159825000Y-127725000D01*
X141137500Y-97675000D02*
X143675000Y-97675000D01*
X160275000Y-130975000D02*
X162862500Y-130975000D01*
X159825000Y-87725000D02*
X160475000Y-88375000D01*
X157137500Y-123625000D02*
X159525000Y-123625000D01*
X159575000Y-98975000D02*
X160225000Y-99625000D01*
X120475000Y-112375000D02*
X122862500Y-112375000D01*
X149137500Y-89025000D02*
X151725000Y-89025000D01*
X128125000Y-92925000D02*
X130862500Y-92925000D01*
X159625000Y-130325000D02*
X160275000Y-130975000D01*
X136325000Y-98325000D02*
X138862500Y-98325000D01*
X157137500Y-119725000D02*
X159825000Y-119725000D01*
X128475000Y-104375000D02*
X130862500Y-104375000D01*
X143725000Y-97025000D02*
X144375000Y-97675000D01*
X157137500Y-130325000D02*
X159625000Y-130325000D01*
X157137500Y-128375000D02*
X159775000Y-128375000D01*
X135625000Y-130325000D02*
X136275000Y-130975000D01*
X159475000Y-124275000D02*
X160125000Y-124925000D01*
X144125000Y-116925000D02*
X146862500Y-116925000D01*
X135625000Y-106325000D02*
X136275000Y-106975000D01*
X159775000Y-104375000D02*
X160425000Y-105025000D01*
X135775000Y-112375000D02*
X136425000Y-113025000D01*
X136425000Y-121025000D02*
X138862500Y-121025000D01*
X125137500Y-89675000D02*
X127675000Y-89675000D01*
X149137500Y-89675000D02*
X151675000Y-89675000D01*
X119725000Y-121025000D02*
X120375000Y-121675000D01*
X125137500Y-90975000D02*
X127575000Y-90975000D01*
X152425000Y-105025000D02*
X154862500Y-105025000D01*
X149137500Y-121025000D02*
X151725000Y-121025000D01*
X120125000Y-116925000D02*
X122862500Y-116925000D01*
X152175000Y-108275000D02*
X154862500Y-108275000D01*
X117137500Y-96375000D02*
X119775000Y-96375000D01*
X125137500Y-91625000D02*
X127525000Y-91625000D01*
X135675000Y-129675000D02*
X136325000Y-130325000D01*
X127725000Y-129025000D02*
X128375000Y-129675000D01*
X127525000Y-107625000D02*
X128175000Y-108275000D01*
X151625000Y-106325000D02*
X152275000Y-106975000D01*
X152375000Y-97675000D02*
X154862500Y-97675000D01*
X135775000Y-96375000D02*
X136425000Y-97025000D01*
X160375000Y-97675000D02*
X162862500Y-97675000D01*
X125137500Y-113675000D02*
X127675000Y-113675000D01*
X160325000Y-130325000D02*
X162862500Y-130325000D01*
X157137500Y-108275000D02*
X159475000Y-108275000D01*
X159475000Y-108275000D02*
X160125000Y-108925000D01*
X128325000Y-130325000D02*
X130862500Y-130325000D01*
X125137500Y-111725000D02*
X127825000Y-111725000D01*
X117137500Y-106325000D02*
X119625000Y-106325000D01*
X143625000Y-122325000D02*
X144275000Y-122975000D01*
X143525000Y-91625000D02*
X144175000Y-92275000D01*
X159525000Y-123625000D02*
X160175000Y-124275000D01*
X117137500Y-114325000D02*
X119625000Y-114325000D01*
X117137500Y-115625000D02*
X119525000Y-115625000D01*
X144275000Y-130975000D02*
X146862500Y-130975000D01*
X125137500Y-97675000D02*
X127675000Y-97675000D01*
X144475000Y-96375000D02*
X146862500Y-96375000D01*
X149137500Y-105025000D02*
X151725000Y-105025000D01*
X141137500Y-89025000D02*
X143725000Y-89025000D01*
X143575000Y-90975000D02*
X144225000Y-91625000D01*
X128175000Y-108275000D02*
X130862500Y-108275000D01*
X160175000Y-116275000D02*
X162862500Y-116275000D01*
X133137500Y-132275000D02*
X135475000Y-132275000D01*
X119825000Y-87725000D02*
X120475000Y-88375000D01*
X125137500Y-99625000D02*
X127525000Y-99625000D01*
X135675000Y-97675000D02*
X136325000Y-98325000D01*
X117137500Y-120375000D02*
X119775000Y-120375000D01*
X135675000Y-105675000D02*
X136325000Y-106325000D01*
X128225000Y-131625000D02*
X130862500Y-131625000D01*
X117137500Y-130975000D02*
X119575000Y-130975000D01*
X128175000Y-124275000D02*
X130862500Y-124275000D01*
X141137500Y-130325000D02*
X143625000Y-130325000D01*
X144175000Y-116275000D02*
X146862500Y-116275000D01*
X128275000Y-130975000D02*
X130862500Y-130975000D01*
X119575000Y-114975000D02*
X120225000Y-115625000D01*
X141137500Y-105675000D02*
X143675000Y-105675000D01*
X127575000Y-98975000D02*
X128225000Y-99625000D01*
X157137500Y-121675000D02*
X159675000Y-121675000D01*
X159675000Y-89675000D02*
X160325000Y-90325000D01*
X133137500Y-108275000D02*
X135475000Y-108275000D01*
X159675000Y-105675000D02*
X160325000Y-106325000D01*
X119725000Y-129025000D02*
X120375000Y-129675000D01*
X119525000Y-107625000D02*
X120175000Y-108275000D01*
X120375000Y-129675000D02*
X122862500Y-129675000D01*
X135825000Y-119725000D02*
X136475000Y-120375000D01*
X120375000Y-89675000D02*
X122862500Y-89675000D01*
X119775000Y-120375000D02*
X120425000Y-121025000D01*
X120225000Y-107625000D02*
X122862500Y-107625000D01*
X127625000Y-106325000D02*
X128275000Y-106975000D01*
X119825000Y-119725000D02*
X120475000Y-120375000D01*
X151675000Y-89675000D02*
X152325000Y-90325000D01*
X125137500Y-105675000D02*
X127675000Y-105675000D01*
X120275000Y-122975000D02*
X122862500Y-122975000D01*
X119525000Y-131625000D02*
X120175000Y-132275000D01*
X160125000Y-124925000D02*
X162862500Y-124925000D01*
X149137500Y-131625000D02*
X151525000Y-131625000D01*
X135825000Y-127725000D02*
X136475000Y-128375000D01*
X159525000Y-107625000D02*
X160175000Y-108275000D01*
X143825000Y-111725000D02*
X144475000Y-112375000D01*
X133137500Y-130325000D02*
X135625000Y-130325000D01*
X120125000Y-92925000D02*
X122862500Y-92925000D01*
X160275000Y-106975000D02*
X162862500Y-106975000D01*
X127725000Y-113025000D02*
X128375000Y-113675000D01*
X149137500Y-87725000D02*
X151825000Y-87725000D01*
X135475000Y-92275000D02*
X136125000Y-92925000D01*
X125137500Y-121025000D02*
X127725000Y-121025000D01*
X136125000Y-124925000D02*
X138862500Y-124925000D01*
X117137500Y-95725000D02*
X119825000Y-95725000D01*
X127475000Y-92275000D02*
X128125000Y-92925000D01*
X141137500Y-113025000D02*
X143725000Y-113025000D01*
X151475000Y-124275000D02*
X152125000Y-124925000D01*
X160125000Y-100925000D02*
X162862500Y-100925000D01*
X143525000Y-131625000D02*
X144175000Y-132275000D01*
X152125000Y-100925000D02*
X154862500Y-100925000D01*
X151475000Y-100275000D02*
X152125000Y-100925000D01*
X144425000Y-105025000D02*
X146862500Y-105025000D01*
X117137500Y-123625000D02*
X119525000Y-123625000D01*
X159625000Y-90325000D02*
X160275000Y-90975000D01*
X135575000Y-122975000D02*
X136225000Y-123625000D01*
X160175000Y-124275000D02*
X162862500Y-124275000D01*
X160475000Y-128375000D02*
X162862500Y-128375000D01*
X141137500Y-131625000D02*
X143525000Y-131625000D01*
X136175000Y-124275000D02*
X138862500Y-124275000D01*
X120325000Y-90325000D02*
X122862500Y-90325000D01*
X120425000Y-89025000D02*
X122862500Y-89025000D01*
X117137500Y-87725000D02*
X119825000Y-87725000D01*
X152325000Y-106325000D02*
X154862500Y-106325000D01*
X127775000Y-128375000D02*
X128425000Y-129025000D01*
X119725000Y-105025000D02*
X120375000Y-105675000D01*
X151475000Y-132275000D02*
X152125000Y-132925000D01*
X160475000Y-112375000D02*
X162862500Y-112375000D01*
X119575000Y-106975000D02*
X120225000Y-107625000D01*
X133137500Y-107625000D02*
X135525000Y-107625000D01*
X135575000Y-106975000D02*
X136225000Y-107625000D01*
X119825000Y-103725000D02*
X120475000Y-104375000D01*
X157137500Y-88375000D02*
X159775000Y-88375000D01*
X141137500Y-121025000D02*
X143725000Y-121025000D01*
X160425000Y-129025000D02*
X162862500Y-129025000D01*
X152175000Y-100275000D02*
X154862500Y-100275000D01*
X144125000Y-132925000D02*
X146862500Y-132925000D01*
X128275000Y-106975000D02*
X130862500Y-106975000D01*
X143625000Y-130325000D02*
X144275000Y-130975000D01*
X141137500Y-98975000D02*
X143575000Y-98975000D01*
X133137500Y-128375000D02*
X135775000Y-128375000D01*
X119775000Y-128375000D02*
X120425000Y-129025000D01*
X157137500Y-113675000D02*
X159675000Y-113675000D01*
X149137500Y-128375000D02*
X151775000Y-128375000D01*
X119475000Y-100275000D02*
X120125000Y-100925000D01*
X119625000Y-114325000D02*
X120275000Y-114975000D01*
X133137500Y-91625000D02*
X135525000Y-91625000D01*
X128225000Y-107625000D02*
X130862500Y-107625000D01*
X144175000Y-108275000D02*
X146862500Y-108275000D01*
X128175000Y-100275000D02*
X130862500Y-100275000D01*
X119525000Y-99625000D02*
X120175000Y-100275000D01*
X149137500Y-106325000D02*
X151625000Y-106325000D01*
X125137500Y-104375000D02*
X127775000Y-104375000D01*
X135625000Y-90325000D02*
X136275000Y-90975000D01*
X159725000Y-129025000D02*
X160375000Y-129675000D01*
X159625000Y-114325000D02*
X160275000Y-114975000D01*
X120125000Y-124925000D02*
X122862500Y-124925000D01*
X128325000Y-90325000D02*
X130862500Y-90325000D01*
X127475000Y-100275000D02*
X128125000Y-100925000D01*
X152125000Y-132925000D02*
X154862500Y-132925000D01*
X117137500Y-129025000D02*
X119725000Y-129025000D01*
X127775000Y-104375000D02*
X128425000Y-105025000D01*
X157137500Y-91625000D02*
X159525000Y-91625000D01*
X125137500Y-128375000D02*
X127775000Y-128375000D01*
X135775000Y-104375000D02*
X136425000Y-105025000D01*
X157137500Y-116275000D02*
X159475000Y-116275000D01*
X136425000Y-113025000D02*
X138862500Y-113025000D01*
X135675000Y-89675000D02*
X136325000Y-90325000D01*
X159575000Y-114975000D02*
X160225000Y-115625000D01*
X120325000Y-98325000D02*
X122862500Y-98325000D01*
X117137500Y-113025000D02*
X119725000Y-113025000D01*
X159475000Y-92275000D02*
X160125000Y-92925000D01*
X157137500Y-107625000D02*
X159525000Y-107625000D01*
X144325000Y-98325000D02*
X146862500Y-98325000D01*
X119575000Y-98975000D02*
X120225000Y-99625000D01*
X119625000Y-122325000D02*
X120275000Y-122975000D01*
X117137500Y-105675000D02*
X119675000Y-105675000D01*
X127475000Y-116275000D02*
X128125000Y-116925000D01*
X127675000Y-121675000D02*
X128325000Y-122325000D01*
X152425000Y-113025000D02*
X154862500Y-113025000D01*
X143775000Y-96375000D02*
X144425000Y-97025000D01*
X133137500Y-89675000D02*
X135675000Y-89675000D01*
X120425000Y-97025000D02*
X122862500Y-97025000D01*
X160375000Y-113675000D02*
X162862500Y-113675000D01*
X151775000Y-120375000D02*
X152425000Y-121025000D01*
X135575000Y-114975000D02*
X136225000Y-115625000D01*
X120475000Y-128375000D02*
X122862500Y-128375000D01*
X143775000Y-112375000D02*
X144425000Y-113025000D01*
X125137500Y-124275000D02*
X127475000Y-124275000D01*
X160275000Y-90975000D02*
X162862500Y-90975000D01*
X136275000Y-130975000D02*
X138862500Y-130975000D01*
X135725000Y-97025000D02*
X136375000Y-97675000D01*
X151625000Y-122325000D02*
X152275000Y-122975000D01*
X151825000Y-95725000D02*
X152475000Y-96375000D01*
X120175000Y-124275000D02*
X122862500Y-124275000D01*
X151675000Y-121675000D02*
X152325000Y-122325000D01*
X143775000Y-104375000D02*
X144425000Y-105025000D01*
X144175000Y-124275000D02*
X146862500Y-124275000D01*
X160425000Y-121025000D02*
X162862500Y-121025000D01*
X125137500Y-100275000D02*
X127475000Y-100275000D01*
X144275000Y-90975000D02*
X146862500Y-90975000D01*
X119775000Y-88375000D02*
X120425000Y-89025000D01*
X152275000Y-98975000D02*
X154862500Y-98975000D01*
X117137500Y-97675000D02*
X119675000Y-97675000D01*
X120425000Y-113025000D02*
X122862500Y-113025000D01*
X127725000Y-105025000D02*
X128375000Y-105675000D01*
X159675000Y-129675000D02*
X160325000Y-130325000D01*
X157137500Y-104375000D02*
X159775000Y-104375000D01*
X157137500Y-121025000D02*
X159725000Y-121025000D01*
X151775000Y-104375000D02*
X152425000Y-105025000D01*
X133137500Y-111725000D02*
X135825000Y-111725000D01*
X128425000Y-121025000D02*
X130862500Y-121025000D01*
X152375000Y-113675000D02*
X154862500Y-113675000D01*
X159825000Y-95725000D02*
X160475000Y-96375000D01*
X144225000Y-91625000D02*
X146862500Y-91625000D01*
X117137500Y-130325000D02*
X119625000Y-130325000D01*
X143475000Y-100275000D02*
X144125000Y-100925000D01*
X160325000Y-98325000D02*
X162862500Y-98325000D01*
X119675000Y-89675000D02*
X120325000Y-90325000D01*
X143525000Y-99625000D02*
X144175000Y-100275000D01*
X133137500Y-129025000D02*
X135725000Y-129025000D01*
X151675000Y-113675000D02*
X152325000Y-114325000D01*
X117137500Y-90975000D02*
X119575000Y-90975000D01*
X127575000Y-114975000D02*
X128225000Y-115625000D01*
X151475000Y-108275000D02*
X152125000Y-108925000D01*
X128375000Y-89675000D02*
X130862500Y-89675000D01*
X128125000Y-108925000D02*
X130862500Y-108925000D01*
X141137500Y-123625000D02*
X143525000Y-123625000D01*
X152475000Y-88375000D02*
X154862500Y-88375000D01*
X149137500Y-90325000D02*
X151625000Y-90325000D01*
X136175000Y-132275000D02*
X138862500Y-132275000D01*
X149137500Y-111725000D02*
X151825000Y-111725000D01*
X159625000Y-98325000D02*
X160275000Y-98975000D01*
X133137500Y-127725000D02*
X135825000Y-127725000D01*
X151675000Y-105675000D02*
X152325000Y-106325000D01*
X157137500Y-122975000D02*
X159575000Y-122975000D01*
X159625000Y-106325000D02*
X160275000Y-106975000D01*
X152275000Y-130975000D02*
X154862500Y-130975000D01*
X128225000Y-115625000D02*
X130862500Y-115625000D01*
X128475000Y-88375000D02*
X130862500Y-88375000D01*
X128475000Y-112375000D02*
X130862500Y-112375000D01*
X151575000Y-98975000D02*
X152225000Y-99625000D01*
X149137500Y-104375000D02*
X151775000Y-104375000D01*
X135775000Y-88375000D02*
X136425000Y-89025000D01*
X151775000Y-112375000D02*
X152425000Y-113025000D01*
X151525000Y-131625000D02*
X152175000Y-132275000D01*
X135475000Y-100275000D02*
X136125000Y-100925000D01*
X144475000Y-104375000D02*
X146862500Y-104375000D01*
X144375000Y-113675000D02*
X146862500Y-113675000D01*
X141137500Y-122975000D02*
X143575000Y-122975000D01*
X152275000Y-114975000D02*
X154862500Y-114975000D01*
X125137500Y-131625000D02*
X127525000Y-131625000D01*
X149137500Y-123625000D02*
X151525000Y-123625000D01*
X127775000Y-96375000D02*
X128425000Y-97025000D01*
X120325000Y-106325000D02*
X122862500Y-106325000D01*
X127825000Y-87725000D02*
X128475000Y-88375000D01*
X117137500Y-112375000D02*
X119775000Y-112375000D01*
X141137500Y-119725000D02*
X143825000Y-119725000D01*
X141137500Y-120375000D02*
X143775000Y-120375000D01*
X160225000Y-99625000D02*
X162862500Y-99625000D01*
X159775000Y-88375000D02*
X160425000Y-89025000D01*
X135575000Y-90975000D02*
X136225000Y-91625000D01*
X160175000Y-132275000D02*
X162862500Y-132275000D01*
X135675000Y-121675000D02*
X136325000Y-122325000D01*
X149137500Y-114325000D02*
X151625000Y-114325000D01*
X128125000Y-124925000D02*
X130862500Y-124925000D01*
X136375000Y-113675000D02*
X138862500Y-113675000D01*
X143725000Y-121025000D02*
X144375000Y-121675000D01*
X141137500Y-96375000D02*
X143775000Y-96375000D01*
X152225000Y-131625000D02*
X154862500Y-131625000D01*
X157137500Y-129675000D02*
X159675000Y-129675000D01*
X141137500Y-116275000D02*
X143475000Y-116275000D01*
X119525000Y-123625000D02*
X120175000Y-124275000D01*
X127775000Y-112375000D02*
X128425000Y-113025000D01*
X127775000Y-120375000D02*
X128425000Y-121025000D01*
X152425000Y-129025000D02*
X154862500Y-129025000D01*
X143775000Y-88375000D02*
X144425000Y-89025000D01*
X136225000Y-107625000D02*
X138862500Y-107625000D01*
X149137500Y-103725000D02*
X151825000Y-103725000D01*
X160225000Y-91625000D02*
X162862500Y-91625000D01*
X135475000Y-132275000D02*
X136125000Y-132925000D01*
X160175000Y-100275000D02*
X162862500Y-100275000D01*
X144225000Y-131625000D02*
X146862500Y-131625000D01*
X120275000Y-130975000D02*
X122862500Y-130975000D01*
X133137500Y-90975000D02*
X135575000Y-90975000D01*
X119625000Y-90325000D02*
X120275000Y-90975000D01*
X120125000Y-108925000D02*
X122862500Y-108925000D01*
X157137500Y-87725000D02*
X159825000Y-87725000D01*
X149137500Y-129675000D02*
X151675000Y-129675000D01*
X143725000Y-129025000D02*
X144375000Y-129675000D01*
X144125000Y-92925000D02*
X146862500Y-92925000D01*
X128225000Y-91625000D02*
X130862500Y-91625000D01*
X127675000Y-89675000D02*
X128325000Y-90325000D01*
X133137500Y-105675000D02*
X135675000Y-105675000D01*
X133137500Y-89025000D02*
X135725000Y-89025000D01*
X160375000Y-121675000D02*
X162862500Y-121675000D01*
X135725000Y-113025000D02*
X136375000Y-113675000D01*
X151575000Y-90975000D02*
X152225000Y-91625000D01*
X143475000Y-132275000D02*
X144125000Y-132925000D01*
X127625000Y-114325000D02*
X128275000Y-114975000D01*
X128325000Y-106325000D02*
X130862500Y-106325000D01*
X159775000Y-96375000D02*
X160425000Y-97025000D01*
X144225000Y-99625000D02*
X146862500Y-99625000D01*
X152275000Y-90975000D02*
X154862500Y-90975000D01*
X141137500Y-103725000D02*
X143825000Y-103725000D01*
X127625000Y-90325000D02*
X128275000Y-90975000D01*
X149137500Y-92275000D02*
X151475000Y-92275000D01*
X125137500Y-96375000D02*
X127775000Y-96375000D01*
X144475000Y-112375000D02*
X146862500Y-112375000D01*
X151825000Y-87725000D02*
X152475000Y-88375000D01*
X151675000Y-129675000D02*
X152325000Y-130325000D01*
X133137500Y-95725000D02*
X135825000Y-95725000D01*
X160125000Y-92925000D02*
X162862500Y-92925000D01*
X160325000Y-122325000D02*
X162862500Y-122325000D01*
X136125000Y-92925000D02*
X138862500Y-92925000D01*
X133137500Y-103725000D02*
X135825000Y-103725000D01*
X136475000Y-112375000D02*
X138862500Y-112375000D01*
X125137500Y-130975000D02*
X127575000Y-130975000D01*
X136475000Y-96375000D02*
X138862500Y-96375000D01*
X151825000Y-103725000D02*
X152475000Y-104375000D01*
X119675000Y-97675000D02*
X120325000Y-98325000D01*
X133137500Y-115625000D02*
X135525000Y-115625000D01*
X136475000Y-88375000D02*
X138862500Y-88375000D01*
X141137500Y-114975000D02*
X143575000Y-114975000D01*
X136125000Y-116925000D02*
X138862500Y-116925000D01*
X141137500Y-129675000D02*
X143675000Y-129675000D01*
X133137500Y-122975000D02*
X135575000Y-122975000D01*
X143675000Y-113675000D02*
X144325000Y-114325000D01*
X149137500Y-112375000D02*
X151775000Y-112375000D01*
X127625000Y-130325000D02*
X128275000Y-130975000D01*
X143775000Y-128375000D02*
X144425000Y-129025000D01*
X157137500Y-112375000D02*
X159775000Y-112375000D01*
X120225000Y-99625000D02*
X122862500Y-99625000D01*
X149137500Y-129025000D02*
X151725000Y-129025000D01*
X157137500Y-95725000D02*
X159825000Y-95725000D01*
X144375000Y-121675000D02*
X146862500Y-121675000D01*
X128475000Y-120375000D02*
X130862500Y-120375000D01*
X125137500Y-106975000D02*
X127575000Y-106975000D01*
X149137500Y-120375000D02*
X151775000Y-120375000D01*
X143575000Y-130975000D02*
X144225000Y-131625000D01*
X151525000Y-99625000D02*
X152175000Y-100275000D01*
X152225000Y-123625000D02*
X154862500Y-123625000D01*
X120375000Y-105675000D02*
X122862500Y-105675000D01*
X149137500Y-99625000D02*
X151525000Y-99625000D01*
X120275000Y-98975000D02*
X122862500Y-98975000D01*
X152375000Y-105675000D02*
X154862500Y-105675000D01*
X133137500Y-88375000D02*
X135775000Y-88375000D01*
X144275000Y-98975000D02*
X146862500Y-98975000D01*
X119825000Y-127725000D02*
X120475000Y-128375000D01*
X141137500Y-107625000D02*
X143525000Y-107625000D01*
X152325000Y-130325000D02*
X154862500Y-130325000D01*
X160425000Y-97025000D02*
X162862500Y-97025000D01*
X152475000Y-120375000D02*
X154862500Y-120375000D01*
X136375000Y-129675000D02*
X138862500Y-129675000D01*
X125137500Y-87725000D02*
X127825000Y-87725000D01*
X160175000Y-92275000D02*
X162862500Y-92275000D01*
X143825000Y-127725000D02*
X144475000Y-128375000D01*
X144475000Y-128375000D02*
X146862500Y-128375000D01*
X117137500Y-107625000D02*
X119525000Y-107625000D01*
X157137500Y-114325000D02*
X159625000Y-114325000D01*
X136275000Y-114975000D02*
X138862500Y-114975000D01*
X159575000Y-106975000D02*
X160225000Y-107625000D01*
X127725000Y-97025000D02*
X128375000Y-97675000D01*
X159725000Y-97025000D02*
X160375000Y-97675000D01*
X135725000Y-121025000D02*
X136375000Y-121675000D01*
X133137500Y-120375000D02*
X135775000Y-120375000D01*
X157137500Y-89025000D02*
X159725000Y-89025000D01*
X125137500Y-105025000D02*
X127725000Y-105025000D01*
X128375000Y-97675000D02*
X130862500Y-97675000D01*
X141137500Y-89675000D02*
X143675000Y-89675000D01*
X149137500Y-113675000D02*
X151675000Y-113675000D01*
X136225000Y-91625000D02*
X138862500Y-91625000D01*
X159475000Y-132275000D02*
X160125000Y-132925000D01*
X133137500Y-123625000D02*
X135525000Y-123625000D01*
X125137500Y-127725000D02*
X127825000Y-127725000D01*
X125137500Y-122975000D02*
X127575000Y-122975000D01*
X135575000Y-130975000D02*
X136225000Y-131625000D01*
X117137500Y-114975000D02*
X119575000Y-114975000D01*
X141137500Y-115625000D02*
X143525000Y-115625000D01*
X136175000Y-116275000D02*
X138862500Y-116275000D01*
X128275000Y-98975000D02*
X130862500Y-98975000D01*
X143625000Y-106325000D02*
X144275000Y-106975000D01*
X160225000Y-123625000D02*
X162862500Y-123625000D01*
X119625000Y-98325000D02*
X120275000Y-98975000D01*
X135725000Y-105025000D02*
X136375000Y-105675000D01*
X133137500Y-105025000D02*
X135725000Y-105025000D01*
X143825000Y-87725000D02*
X144475000Y-88375000D01*
X136125000Y-100925000D02*
X138862500Y-100925000D01*
X136125000Y-132925000D02*
X138862500Y-132925000D01*
X120425000Y-121025000D02*
X122862500Y-121025000D01*
X135825000Y-87725000D02*
X136475000Y-88375000D01*
X128125000Y-132925000D02*
X130862500Y-132925000D01*
X125137500Y-95725000D02*
X127825000Y-95725000D01*
X144325000Y-130325000D02*
X146862500Y-130325000D01*
X159675000Y-97675000D02*
X160325000Y-98325000D01*
X136375000Y-97675000D02*
X138862500Y-97675000D01*
X151825000Y-119725000D02*
X152475000Y-120375000D01*
X125137500Y-122325000D02*
X127625000Y-122325000D01*
X149137500Y-127725000D02*
X151825000Y-127725000D01*
X133137500Y-119725000D02*
X135825000Y-119725000D01*
X141137500Y-122325000D02*
X143625000Y-122325000D01*
X149137500Y-113025000D02*
X151725000Y-113025000D01*
X125137500Y-113025000D02*
X127725000Y-113025000D01*
X159825000Y-127725000D02*
X160475000Y-128375000D01*
X141137500Y-98325000D02*
X143625000Y-98325000D01*
X160425000Y-113025000D02*
X162862500Y-113025000D01*
X136225000Y-99625000D02*
X138862500Y-99625000D01*
X159575000Y-122975000D02*
X160225000Y-123625000D01*
X127575000Y-130975000D02*
X128225000Y-131625000D01*
X141137500Y-108275000D02*
X143475000Y-108275000D01*
X117137500Y-122325000D02*
X119625000Y-122325000D01*
X120475000Y-88375000D02*
X122862500Y-88375000D01*
X152225000Y-107625000D02*
X154862500Y-107625000D01*
X149137500Y-114975000D02*
X151575000Y-114975000D01*
X136275000Y-122975000D02*
X138862500Y-122975000D01*
X120175000Y-108275000D02*
X122862500Y-108275000D01*
X127825000Y-127725000D02*
X128475000Y-128375000D01*
X149137500Y-116275000D02*
X151475000Y-116275000D01*
X151525000Y-115625000D02*
X152175000Y-116275000D01*
X136225000Y-115625000D02*
X138862500Y-115625000D01*
X143675000Y-97675000D02*
X144325000Y-98325000D01*
X157137500Y-89675000D02*
X159675000Y-89675000D01*
X135775000Y-128375000D02*
X136425000Y-129025000D01*
X136325000Y-122325000D02*
X138862500Y-122325000D01*
X141137500Y-132275000D02*
X143475000Y-132275000D01*
X136175000Y-92275000D02*
X138862500Y-92275000D01*
X149137500Y-88375000D02*
X151775000Y-88375000D01*
X120225000Y-91625000D02*
X122862500Y-91625000D01*
X159825000Y-119725000D02*
X160475000Y-120375000D01*
X151625000Y-90325000D02*
X152275000Y-90975000D01*
X128275000Y-114975000D02*
X130862500Y-114975000D01*
X144425000Y-97025000D02*
X146862500Y-97025000D01*
X143675000Y-89675000D02*
X144325000Y-90325000D01*
X128375000Y-121675000D02*
X130862500Y-121675000D01*
X128325000Y-122325000D02*
X130862500Y-122325000D01*
X127675000Y-105675000D02*
X128325000Y-106325000D01*
X144275000Y-122975000D02*
X146862500Y-122975000D01*
X159775000Y-120375000D02*
X160425000Y-121025000D01*
X160425000Y-89025000D02*
X162862500Y-89025000D01*
X152225000Y-115625000D02*
X154862500Y-115625000D01*
X136175000Y-100275000D02*
X138862500Y-100275000D01*
X160175000Y-108275000D02*
X162862500Y-108275000D01*
X157137500Y-90325000D02*
X159625000Y-90325000D01*
X152375000Y-121675000D02*
X154862500Y-121675000D01*
X143625000Y-114325000D02*
X144275000Y-114975000D01*
X119575000Y-130975000D02*
X120225000Y-131625000D01*
X157137500Y-97025000D02*
X159725000Y-97025000D01*
X152325000Y-122325000D02*
X154862500Y-122325000D01*
X125137500Y-115625000D02*
X127525000Y-115625000D01*
X160275000Y-98975000D02*
X162862500Y-98975000D01*
X120275000Y-114975000D02*
X122862500Y-114975000D01*
X144325000Y-122325000D02*
X146862500Y-122325000D01*
X120475000Y-104375000D02*
X122862500Y-104375000D01*
X151575000Y-122975000D02*
X152225000Y-123625000D01*
X125137500Y-97025000D02*
X127725000Y-97025000D01*
X127525000Y-115625000D02*
X128175000Y-116275000D01*
X143675000Y-129675000D02*
X144325000Y-130325000D01*
X144225000Y-115625000D02*
X146862500Y-115625000D01*
X120325000Y-122325000D02*
X122862500Y-122325000D01*
X128325000Y-98325000D02*
X130862500Y-98325000D01*
X157137500Y-115625000D02*
X159525000Y-115625000D01*
X160475000Y-88375000D02*
X162862500Y-88375000D01*
X152325000Y-90325000D02*
X154862500Y-90325000D01*
X151725000Y-121025000D02*
X152375000Y-121675000D01*
X133137500Y-121025000D02*
X135725000Y-121025000D01*
X151575000Y-130975000D02*
X152225000Y-131625000D01*
X141137500Y-100275000D02*
X143475000Y-100275000D01*
X135675000Y-113675000D02*
X136325000Y-114325000D01*
X157137500Y-97675000D02*
X159675000Y-97675000D01*
X144475000Y-120375000D02*
X146862500Y-120375000D01*
X133137500Y-92275000D02*
X135475000Y-92275000D01*
X128425000Y-89025000D02*
X130862500Y-89025000D01*
X136225000Y-123625000D02*
X138862500Y-123625000D01*
X157137500Y-96375000D02*
X159775000Y-96375000D01*
X125137500Y-132275000D02*
X127475000Y-132275000D01*
X149137500Y-121675000D02*
X151675000Y-121675000D01*
X135525000Y-107625000D02*
X136175000Y-108275000D01*
X117137500Y-97025000D02*
X119725000Y-97025000D01*
X151525000Y-107625000D02*
X152175000Y-108275000D01*
X125137500Y-123625000D02*
X127525000Y-123625000D01*
X151775000Y-96375000D02*
X152425000Y-97025000D01*
X117137500Y-128375000D02*
X119775000Y-128375000D01*
X151525000Y-91625000D02*
X152175000Y-92275000D01*
X157137500Y-122325000D02*
X159625000Y-122325000D01*
X135725000Y-129025000D02*
X136375000Y-129675000D01*
X143475000Y-92275000D02*
X144125000Y-92925000D01*
X160475000Y-104375000D02*
X162862500Y-104375000D01*
X119675000Y-121675000D02*
X120325000Y-122325000D01*
X143475000Y-124275000D02*
X144125000Y-124925000D01*
X125137500Y-114325000D02*
X127625000Y-114325000D01*
X160375000Y-89675000D02*
X162862500Y-89675000D01*
X143825000Y-119725000D02*
X144475000Y-120375000D01*
X149137500Y-107625000D02*
X151525000Y-107625000D01*
X133137500Y-87725000D02*
X135825000Y-87725000D01*
X152325000Y-114325000D02*
X154862500Y-114325000D01*
X120175000Y-116275000D02*
X122862500Y-116275000D01*
X117137500Y-129675000D02*
X119675000Y-129675000D01*
X160125000Y-132925000D02*
X162862500Y-132925000D01*
X149137500Y-119725000D02*
X151825000Y-119725000D01*
X152275000Y-106975000D02*
X154862500Y-106975000D01*
X127625000Y-98325000D02*
X128275000Y-98975000D01*
X160225000Y-115625000D02*
X162862500Y-115625000D01*
X152425000Y-121025000D02*
X154862500Y-121025000D01*
X117137500Y-122975000D02*
X119575000Y-122975000D01*
X119575000Y-122975000D02*
X120225000Y-123625000D01*
X157137500Y-114975000D02*
X159575000Y-114975000D01*
X117137500Y-106975000D02*
X119575000Y-106975000D01*
X133137500Y-131625000D02*
X135525000Y-131625000D01*
X149137500Y-96375000D02*
X151775000Y-96375000D01*
X159725000Y-89025000D02*
X160375000Y-89675000D01*
X119775000Y-104375000D02*
X120425000Y-105025000D01*
X128275000Y-122975000D02*
X130862500Y-122975000D01*
X157137500Y-111725000D02*
X159825000Y-111725000D01*
X143475000Y-108275000D02*
X144125000Y-108925000D01*
X128175000Y-92275000D02*
X130862500Y-92275000D01*
X120125000Y-132925000D02*
X122862500Y-132925000D01*
X151825000Y-111725000D02*
X152475000Y-112375000D01*
X128325000Y-114325000D02*
X130862500Y-114325000D01*
X119475000Y-124275000D02*
X120125000Y-124925000D01*
X119675000Y-105675000D02*
X120325000Y-106325000D01*
X159575000Y-130975000D02*
X160225000Y-131625000D01*
X136125000Y-108925000D02*
X138862500Y-108925000D01*
X127825000Y-103725000D02*
X128475000Y-104375000D01*
X120375000Y-97675000D02*
X122862500Y-97675000D01*
X127675000Y-129675000D02*
X128325000Y-130325000D01*
X149137500Y-98325000D02*
X151625000Y-98325000D01*
X125137500Y-90325000D02*
X127625000Y-90325000D01*
X151775000Y-88375000D02*
X152425000Y-89025000D01*
X157137500Y-92275000D02*
X159475000Y-92275000D01*
X136475000Y-128375000D02*
X138862500Y-128375000D01*
X141137500Y-127725000D02*
X143825000Y-127725000D01*
X144175000Y-132275000D02*
X146862500Y-132275000D01*
X120125000Y-100925000D02*
X122862500Y-100925000D01*
X136425000Y-129025000D02*
X138862500Y-129025000D01*
X133137500Y-113025000D02*
X135725000Y-113025000D01*
X152225000Y-91625000D02*
X154862500Y-91625000D01*
X152175000Y-132275000D02*
X154862500Y-132275000D01*
X117137500Y-100275000D02*
X119475000Y-100275000D01*
X136225000Y-131625000D02*
X138862500Y-131625000D01*
X144175000Y-92275000D02*
X146862500Y-92275000D01*
X149137500Y-97675000D02*
X151675000Y-97675000D01*
X143625000Y-98325000D02*
X144275000Y-98975000D01*
X143775000Y-120375000D02*
X144425000Y-121025000D01*
X127525000Y-123625000D02*
X128175000Y-124275000D01*
X152475000Y-104375000D02*
X154862500Y-104375000D01*
X128125000Y-116925000D02*
X130862500Y-116925000D01*
X117137500Y-104375000D02*
X119775000Y-104375000D01*
X117137500Y-105025000D02*
X119725000Y-105025000D01*
X160275000Y-114975000D02*
X162862500Y-114975000D01*
X117137500Y-116275000D02*
X119475000Y-116275000D01*
X143675000Y-121675000D02*
X144325000Y-122325000D01*
X117137500Y-90325000D02*
X119625000Y-90325000D01*
X141137500Y-92275000D02*
X143475000Y-92275000D01*
X136425000Y-89025000D02*
X138862500Y-89025000D01*
X149137500Y-130975000D02*
X151575000Y-130975000D01*
X128275000Y-90975000D02*
X130862500Y-90975000D01*
X144475000Y-88375000D02*
X146862500Y-88375000D01*
X128425000Y-129025000D02*
X130862500Y-129025000D01*
X144125000Y-100925000D02*
X146862500Y-100925000D01*
%TD*%
M02*
